<?xml version="1.0" standalone="no"?>
<!DOCTYPE svg PUBLIC "-//W3C//DTD SVG 1.1//EN" "http://www.w3.org/Graphics/SVG/1.1/DTD/svg11.dtd" >
<svg xmlns="http://www.w3.org/2000/svg" xmlns:xlink="http://www.w3.org/1999/xlink" version="1.1">
<metadata></metadata>
<defs>
<font id="sweet_purpleregular" horiz-adv-x="108" >
<font-face units-per-em="2048" ascent="1638" descent="-410" />
<missing-glyph horiz-adv-x="400" />
<glyph unicode="&#xd;" horiz-adv-x="508" />
<glyph horiz-adv-x="0" />
<glyph horiz-adv-x="0" />
<glyph unicode=" "  horiz-adv-x="400" />
<glyph unicode="&#x09;" horiz-adv-x="400" />
<glyph unicode="&#xa0;" horiz-adv-x="400" />
<glyph unicode="!" horiz-adv-x="335" d="M54 721q0 127 3.5 185t15.5 137q25 157 57 220q23 48 61 48l6 -1q14 -2 27 -10q30 -17 43.5 -61.5t13.5 -136.5q0 -78 -9 -204q-2 -17 -6 -141q-6 -170 -17 -239q-18 -109 -28.5 -146.5t-27.5 -49.5q-13 -8 -29 -8q-12 0 -22 5q-43 26 -70 147q-13 55 -15.5 91.5 t-2.5 163.5zM61 137q0 56 30 95.5t71 39.5h7q14 -1 31 -9q51 -26 56 -98v-13q0 -40 -21 -82q-27 -53 -55 -66q-9 -4 -23 -4q-16 0 -34 8q-38 18 -55 78q-7 24 -7 51z" />
<glyph unicode="&#x22;" horiz-adv-x="572" d="M79 1480q0 31 10 45q10 15 22 23q6 4 11 6q2 1 6 1q3 1 5 1h21q17 0 22 -1t13 -3q6 -2 15 -6q41 -23 63 -62q23 -41 23 -85q0 -58 -34 -122q-35 -65 -82 -82q-11 -4 -22 -4q-17 0 -31 10q-17 9 -24 27q-2 3 -4 14q-1 5 -1 26v27q0 60 -8 121q-5 45 -5 64zM332 1480 q0 35 10 46l10 11q13 13 21 16t34 3t35 -4q27 -9 52 -34q49 -49 49 -119q0 -49 -29 -109q-46 -99 -109 -99q-9 0 -21 5q-34 11 -38 46q-1 5 -1 39q0 77 -7 126q-6 46 -6 73z" />
<glyph unicode="#" horiz-adv-x="929" d="M54 355q0 17 21 37q28 26 123 48l9 2l-2 145q-71 6 -98.5 17t-27.5 40q0 48 106 75l34 9q2 2 7 43q13 91 28 153q17 60 45 61q23 0 39 -33q22 -46 25 -143q2 -60 5 -62l51 1q35 2 41.5 3t7.5 7q4 17 10 53q23 126 59 148q9 6 23 6t27 -8q42 -29 57 -168l3 -39 q80 -8 121 -26q36 -18 36 -56q0 -37 -37 -55q-39 -19 -98 -26l-19 -2q-4 -40 -4 -81l1 -17q25 -1 52.5 -1t37 -0.5t23.5 -1.5t23 -3.5t23 -7.5q28 -8 43 -19q24 -17 26 -45q0 -20 -15 -37q-23 -25 -144 -31l-63 -4l4 -234v-40q-4 -43 -30 -56q-13 -7 -21 -7q-6 0 -15 3 q-34 10 -65 92q-39 103 -51 199l-5 37l-9 1q-75 0 -85 -5q-6 -2 -6 -114l-2 -112q-10 -17 -15 -25t-15 -13.5t-23 -5.5q-19 0 -32 12q-19 17 -30 60q-17 55 -31 155q-4 29 -7 31q-2 2 -52 2h-21q-64 0 -76 13q-12 12 -12 25zM366 463h11l45 4l35 4v17l-4 98h-87v-123z" />
<glyph unicode="$" horiz-adv-x="668" d="M54 902v17q3 68 30 116q52 90 140 119l17 6l-1 58q0 58 7 84q11 44 34 57q13 7 22 7t21 -6q26 -12 36 -53q6 -21 6 -48q0 -25 -4 -53q-3 -20 -3 -31v-4q0 -1 22 -5q55 -10 88 -32q61 -40 81 -103q8 -24 8 -44l-1 -17q-3 -37 -13 -68q-8 -26 -21 -54q-31 -61 -54 -61 q-7 0 -16 6q-8 6 -8 18q0 10 8 40q7 24 7 47q0 41 -28 69q-25 28 -75 28l-21 -2q-46 -6 -71.5 -27t-25.5 -52q0 -11 3 -23q6 -19 31 -44q24 -24 46 -40q42 -33 108.5 -91t87.5 -81q44 -51 69 -109q25 -54 29 -105l1 -13q0 -66 -35 -130.5t-87 -94.5q-42 -24 -97 -33l-40 -8 q-6 -1 -9 -18q-11 -90 -20 -104q-12 -20 -41 -20q-12 0 -21 4q-24 13 -34 45q-4 15 -4 36l1 72q-34 16 -46.5 23t-30.5 21.5t-37 36.5q-37 43 -51 98q-6 28 -6 49v19q1 39 12 59q9 19 29 41.5t38 34.5q19 12 34 12q16 0 27 -11q10 -9 10 -19t-12 -64q-8 -40 -8 -58 q0 -21 7 -38q10 -21 30.5 -36t44.5 -17h8q36 0 82 22q22 10 31 26q13 25 13 42q0 8 -3 19q-10 42 -49 87.5t-141 137.5q-61 55 -86 83.5t-42 64.5q-27 57 -27 112z" />
<glyph unicode="%" horiz-adv-x="1148" d="M54 1117q0 34 5 56t16 45q9 17 16 27q7 11 25 29q21 24 45 40q19 13 47 25q24 10 51 10q25 0 54 -10q3 -1 12.5 -4.5t15.5 -5.5q4 -2 12 -5.5t12 -5.5q104 -44 104 -183q0 -33 -3 -52q-5 -20 -16 -43q-7 -13 -15 -25q-7 -11 -20 -23q-80 -68 -168 -68l-20 1q-51 5 -97 37 q-47 35 -69 94q-3 8 -5 24q-2 14 -2 37zM229 1152q0 -14 9 -26t23 -17q10 -2 20 -2q9 0 27 2q15 2 22 6q12 5 19 14q6 10 7 19l2 13q0 33 -38 73q-4 3 -10 9q-4 4 -7 4t-11 -6l-18 -15q-10 -9 -18 -18q-26 -28 -27 -51v-5zM328 63q0 105 30 272q2 11 11 56q2 11 13 52l21 77 q5 17 15 55q3 10 7.5 26.5t6.5 23.5q5 16 5 18q18 64 29 99q3 11 35 115q16 52 23 67q0 1 2 7t4.5 12.5t4.5 13.5t8 24t9 26q6 17 20 55q4 11 9.5 26t6.5 19q2 6 7 16.5t7 16.5q7 20 9 26q11 28 27 61q19 39 37 70q53 92 107 92h1q59 0 60 -87q0 -9 -2 -31q-3 -31 -12 -74 q-7 -35 -17 -74l-21 -72q-5 -19 -15 -51q-3 -9 -9.5 -30t-10.5 -32q-16 -48 -27 -82q-11 -35 -33 -101q-4 -12 -34 -107q-5 -16 -16 -48.5t-16 -46.5q-34 -103 -68 -236q-33 -132 -43 -202q-3 -19 -6 -42q-1 -6 -2.5 -18.5t-2.5 -17.5q-1 -12 -5 -29q-4 -14 -6 -23 q-29 -66 -76 -66q-14 0 -23 4q-46 16 -63 68q-7 22 -7 72zM679 218q0 34 5 56t16 45q8 17 16 27q7 11 25 29q21 24 45 40q19 13 47 25q24 10 51 10q25 0 54 -10q3 -1 12.5 -4.5t15.5 -5.5q4 -2 12 -5.5t12 -5.5q104 -44 104 -183q0 -32 -3 -52q-5 -20 -16 -43 q-7 -13 -15 -25q-7 -11 -20 -23q-80 -68 -168 -68l-20 1q-51 5 -97 37q-47 35 -69 94q-3 8 -5 24q-2 14 -2 37zM854 253q0 -14 9 -26t23 -17q10 -2 20 -2q9 0 27 2q15 2 22 6q12 5 19 14q6 10 7 19l2 13q0 33 -38 73q-4 3 -10 9q-4 4 -7 4q-4 0 -11 -6l-18 -15 q-11 -9 -18 -18q-25 -29 -27 -51v-5z" />
<glyph unicode="&#x26;" horiz-adv-x="994" d="M54 371q0 44 6 89q14 105 60 200q12 23 38.5 62t40.5 51q8 6 8 12q0 7 -12 22q-35 53 -47 125q-9 48 -9 91q0 87 38 166q47 95 109 138q60 40 139 40q56 0 103 -18q60 -22 97 -71.5t37 -107.5q0 -34 -10.5 -65t-26.5 -43q-9 -6 -19 -6q-9 0 -14 5q-4 6 -13 37 q-23 89 -82 117q-17 8 -58 8q-39 0 -55 -7q-44 -21 -66 -87q-9 -25 -9 -56q0 -29 9 -62q14 -52 36 -74t79 -41q66 -23 86 -44q33 -33 33 -77q0 -32 -19 -62q-31 -46 -94 -46l-48 1q-27 0 -42 -9q-25 -13 -52.5 -46t-38.5 -64q-22 -54 -22 -135q0 -59 13 -102 q7 -25 24.5 -59.5t31.5 -51.5q62 -74 155 -74q59 0 101.5 24.5t79.5 80.5q48 76 48 117q0 22 -10 45q-9 20 -14.5 25.5t-18.5 5.5l-15 -1q-44 -4 -62 -22t-34 -75l-13 -40q-12 -18 -34 -18q-25 0 -42 23q-22 29 -25 82v9q0 50 23 91q9 18 37.5 46.5t48.5 40.5q45 27 112 37 q119 16 155 38q34 22 44 52q6 22 6 30q0 18 8.5 28.5t21.5 10.5q8 0 16 -4q20 -10 33 -39t13 -61l-1 -21q-8 -47 -39 -92.5t-70 -67.5q-16 -8 -16 -14l1 -1q20 -46 20 -105q0 -56 -20 -121q-20 -61 -63 -127q-45 -67 -112 -116.5t-135 -64.5q-34 -7 -79 -7q-39 0 -59 5 q-128 27 -210 130q-18 22 -40.5 64.5t-33.5 75.5q-28 83 -28 180z" />
<glyph unicode="'" horiz-adv-x="319" d="M79 1435q0 32 10 46q9 13 22 22q12 8 43 8q29 0 50 -10q19 -10 37 -28t28 -37q21 -39 21 -82q0 -48 -29 -109q-39 -80 -87 -95q-12 -4 -22 -4q-11 0 -21 5q-23 7 -34 32q-5 10 -5 40v27q0 53 -7 112q-6 48 -6 73z" />
<glyph unicode="(" horiz-adv-x="622" d="M54 574q0 79 9 127q14 73 38 151q31 96 75 182q45 85 84 133q45 56 93.5 95t87.5 50q19 6 34 6q42 0 42 -41q0 -13 -2 -20q-7 -31 -57 -115q-89 -152 -152 -322q-50 -136 -50 -291q0 -87 16.5 -153.5t55.5 -134.5q35 -65 97 -109l53 -37q22 -17 40 -27q41 -23 48 -49 l2 -13v-3l-3 -13q-5 -24 -38 -36q-15 -6 -34 -6q-21 0 -53 4q-29 3 -49 8q-139 37 -235 204q-58 101 -84 221q-18 83 -18 189z" />
<glyph unicode=")" horiz-adv-x="622" d="M54 1263l3 12q2 10 13.5 21t25.5 16q15 6 33 6q12 0 54 -5q37 -4 48 -7q139 -39 236 -205q58 -100 84 -221q17 -83 17 -189q0 -78 -8 -126q-12 -66 -39 -152q-30 -93 -75 -181q-40 -78 -83 -133q-98 -120 -181 -146q-22 -5 -34 -5q-42 0 -42 41q0 12 2 19q6 30 56 116 q89 150 153 321q50 136 50 292q0 160 -72 288q-39 67 -98 108l-53 38l-39 26q-43 26 -48 50q-3 11 -3 16z" />
<glyph unicode="*" horiz-adv-x="529" d="M54 964q0 12 5 22q11 20 60 33l-4 2q-19 10 -19 30q0 21 20 46q14 14 27 14q23 0 55 -17q-10 31 -10 37q1 20 27 32q19 8 29 8q14 0 22 -3q27 -13 43 -79l12 27q9 20 30 20q9 0 19 -3q43 -17 43 -45q-3 -36 -24 -72l39 -12q32 -14 42 -40q5 -7 5 -20q0 -33 -70 -33l-12 1 q8 -10 12 -18q11 -19 13 -22q7 -17 7 -34q0 -13 -4 -24q0 -7 -3 -11q-12 -16 -26 -16q-8 0 -28 12q-24 16 -48 42q-8 -66 -47 -86q-8 -5 -20 -5q-15 0 -24 11l-1 3q-10 16 -12 54q-37 -24 -61 -24q-10 0 -19 3q-8 1 -19 10q-9 9 -9 21q6 27 29 53l35 39q-24 -1 -43 -7 l-34 -8q-20 4 -32 29q-5 18 -5 30z" />
<glyph unicode="+" horiz-adv-x="669" d="M54 544q0 18 6 30q6 10 21 19q33 20 90 31q5 1 12 2.5t9 1.5q5 1 18 1q16 0 27 1h3q7 1 20 1q-4 61 -15 91q0 3 -1.5 8t-2.5 7t-1.5 4.5t-1.5 4.5t-1 3q-2 6 -3 10q-2 6 -2 8q3 26 36 43q24 10 39 10q21 0 30 -4q10 -4 21 -20q23 -35 36 -89q6 -24 7 -37l3 -31l2 -14h4 q7 -1 20 -1q20 -2 30 -4q4 -1 10 -1q3 -1 7.5 -2t6.5 -1q4 -1 10 -1q1 0 26 -7l16.5 -5.5t15.5 -4.5q43 -18 56 -54q5 -6 6 -13q1 -5 1 -13q0 -21 -16 -31l-4 -2q-1 -1 -3.5 -1.5t-3.5 -0.5q-10 -3 -25 -6q-17 -3 -28 -3h-27q-11 0 -20 1q-17 0 -25 1l-53 4l-1 -31 q0 -10 -2 -30v-10q-3 -11 -3 -24q-1 -20 -14 -59q-15 -43 -50 -60q-10 -7 -26 -7q-21 0 -32 14q0 3 -1 5q-1 1 -3 5q-12 28 -13 66l-1 55v84q-33 0 -65 -3q-31 -3 -51 -9q-3 0 -7.5 -1t-6.5 -2q-3 -1 -13 -4q-2 -1 -5 -1t-5 -1q-4 -1 -8 -1q-27 4 -42 38l-5 16q-2 18 -2 24z " />
<glyph unicode="," horiz-adv-x="319" d="M54 170q0 31 10 45q9 13 22 22q12 8 43 8q29 0 50 -10q19 -10 37 -28t28 -37q21 -39 21 -81q0 -49 -29 -110q-39 -80 -87 -95q-18 -4 -22 -4q-8 0 -21 5q-23 7 -34 32q-5 11 -5 41v26q0 53 -7 112q-6 50 -6 74z" />
<glyph unicode="-" horiz-adv-x="669" d="M54 544q0 19 7 30q5 10 20 19q37 22 91 31q24 5 69 6q16 1 47 1q91 0 109 -4q12 -3 34 -3q5 0 13 -1t16 -2.5t10 -1.5q18 -4 25 -4q20 -3 57 -17q42 -18 57 -54q6 -8 6 -26q0 -21 -16 -31q-1 0 -4.5 -1.5t-5.5 -2.5q-27 -9 -53 -9h-28q-29 0 -44 2l-72 5q-14 1 -43 3 t-37 2l-46 2q-75 0 -118 -12q-19 -4 -26 -7q-11 -3 -19 -3q-26 3 -41 38l-5 16q-3 12 -3 24z" />
<glyph unicode="." horiz-adv-x="303" d="M54 146q0 56 29.5 95.5t71.5 39.5q19 0 38 -9q51 -26 56 -98v-13q0 -37 -21 -82q-28 -55 -55 -66q-9 -4 -23 -4q-16 0 -34 8q-38 18 -55 78q-7 24 -7 51z" />
<glyph unicode="/" horiz-adv-x="623" d="M54 64q0 116 30 271q14 74 45 185q6 24 34 123q15 54 47.5 159t39.5 122q14 39 28 83q12 36 36 100q15 35 23 59q21 57 64 131q53 92 107 92h1q60 0 60 -87q0 -9 -2 -31q-8 -69 -29 -148l-21 -72q-10 -40 -35 -113q-26 -77 -60 -183q-27 -84 -66 -202 q-36 -109 -68.5 -237.5t-42.5 -200.5q-8 -48 -11 -78q-5 -32 -11 -52q-24 -66 -77 -66q-11 0 -22 4q-48 17 -63 68q-7 21 -7 73z" />
<glyph unicode="0" horiz-adv-x="794" d="M54 677q0 112 12 185.5t44 153.5q42 109 99 180q26 32 68 64.5t84 52.5q26 12 35 21q22 20 54 20q14 0 41.5 -7t42.5 -15q12 -7 45.5 -40t45.5 -51q29 -42 49 -111q9 -28 22 -74q21 -66 29 -152q5 -48 6 -70q9 -94 9 -183q0 -114 -15 -226q-36 -272 -155 -389 q-62 -61 -133 -75q-22 -5 -48 -5q-33 0 -54 6q-109 30 -177 169q-104 211 -104 546zM253 707l2 -61q5 -109 8 -109q1 0 18 61q71 245 172 446q24 45 24 52q-2 5 -25 34.5t-26 29.5q-4 0 -35.5 -33.5t-41.5 -48.5q-26 -39 -51 -102q-45 -115 -45 -269zM339 237 q0 -16 23.5 -43.5t36.5 -27.5q3 0 21 8q34 17 70 82t55 144q13 54 23 145.5t10 161.5q0 78 -14 156q-6 26 -8 27v1l-1 -1q-4 -4 -101 -299q-17 -56 -50 -149q-65 -179 -65 -204v-1z" />
<glyph unicode="1" horiz-adv-x="620" d="M54 114q0 23 19 44q14 13 50 27.5t69 19.5q21 3 23 7l1 2q0 10 -8 36q-13 50 -25 132q-5 43 -5 100v55q0 109 4 163q15 211 30 273q10 57 14 92l11 78q0 8 -2 8q-8 0 -33.5 -28.5t-27.5 -39.5q-2 -7 -10 -13.5t-16 -6.5q-20 0 -30 20q-5 10 -5 27q0 25 10 47 q21 43 67 91.5t78 62.5q21 10 47 10t43 -8q73 -32 93 -139q5 -24 5 -122q0 -219 -17 -406q-4 -49 -6 -153q-4 -127 -7 -182l-2 -71l1 -24q39 -9 55.5 -13.5t33 -11.5t26.5 -16q27 -21 27 -52q0 -22 -17 -41q-15 -16 -39.5 -23t-75.5 -11q-33 -3 -66 -3q-31 0 -54 3 q-23 2 -78 4q-98 3 -125.5 7.5t-43.5 18.5q-14 16 -14 36z" />
<glyph unicode="2" horiz-adv-x="843" d="M54 124l2 19q3 25 14.5 47.5t55.5 90.5l183 284q5 4 67 105.5t84 141.5q132 234 132 309q0 11 -1 15q-4 17 -12 24.5t-28 11.5q-9 2 -25 2q-45 0 -98 -47q-72 -62 -119 -168q-14 -31 -18.5 -37.5t-13.5 -10.5q-5 -2 -13 -2q-26 0 -39 33q-5 13 -5 24l2 26q5 69 52 143 q68 108 158 162q62 39 139 39q29 0 53 -7q43 -11 71 -31t51 -55q31 -44 40 -106q3 -20 3 -32q0 -8 -5 -61q-6 -54 -15 -86t-33 -86q-64 -146 -191 -330q-97 -145 -119 -171q-13 -16 -41 -55.5t-28 -41.5q0 -3 8 -3h13q51 0 159 -11t166 -22q33 -6 46.5 -13t19.5 -20 q4 -12 4 -21q0 -15 -7 -27q-14 -21 -46 -32q-66 -20 -307 -27q-85 -2 -120.5 -9.5t-86.5 -33.5q-40 -20 -63 -20q-13 0 -28 5q-43 13 -57 61q-4 11 -4 23z" />
<glyph unicode="3" horiz-adv-x="732" d="M54 998q1 60 36 129q40 82 116 147.5t153 86.5q34 8 78 8q32 0 49 -4q58 -12 93 -51q54 -57 54 -141v-6q0 -56 -20 -121q-22 -70 -66 -157.5t-91 -152.5q-21 -28 -21 -32q0 -2 2 -2l34 -9q39 -9 76 -31.5t59 -49.5q52 -65 67 -181q5 -35 5 -77q0 -84 -32 -157 q-10 -25 -34.5 -62t-44.5 -58q-91 -95 -229 -116q-25 -4 -41 -4q-18 0 -31 2q-48 6 -93 29q-30 16 -59 45q-28 28 -37.5 46t-9.5 46t8 46q16 33 39 42q12 6 24 6q24 0 46 -20q16 -14 63 -22q27 -5 49 -5q58 0 94 21q26 15 52 47t37 64q15 42 15 93q0 31 -6 59 q-9 46 -24 60.5t-56 15.5h-9q-70 0 -149 -49q-28 -18 -57 -18q-51 0 -80 49q-9 14 -9 42q0 33 14.5 56t89.5 109q67 78 110 143q65 101 103 187t38 135v5q-1 23 -9 29q-8 7 -34 7q-30 0 -59 -9q-46 -15 -99 -64t-86 -108q-32 -58 -32 -93q0 -25 -20 -32q-10 -2 -13 -2 q-29 0 -46 32q-7 13 -7 47z" />
<glyph unicode="4" horiz-adv-x="692" d="M54 605q0 17 6 34q20 59 159 292l94 159q71 122 144 200q49 53 77 56h3q16 0 31 -12l18 -13q31 -19 47 -96q5 -27 5 -92q0 -67 -5 -134q-19 -214 -34 -524q-6 -139 -9 -175l-6 -100q-8 -132 -17 -162q-12 -41 -34 -53q-12 -5 -25 -5q-17 0 -31 8q-39 20 -50 92 q-4 23 -6 95q-4 75 -5 76q-2 4 -6.5 105.5t-4.5 147.5q0 64 -5 64q-14 0 -85 -14t-120 -27q-35 -8 -56 -8q-22 0 -36 7q-49 25 -49 79zM274 728l68 13q66 14 68 16q1 1 5 51q2 48 11 118q6 66 6 70v3q-3 0 -19 -30l-69 -118q-70 -119 -70 -123z" />
<glyph unicode="5" horiz-adv-x="718" d="M54 707q0 16 2 58q12 192 62 390q13 49 14 69q0 28 5 37q11 26 63 48q51 24 150 24q14 0 44 -2q32 -1 70 -8q100 -18 100 -61v-3q-1 -24 -33 -36q-25 -12 -179 -27l-87 -9q-4 -1 -4 -7v-16q0 -51 -9 -192q-9 -142 -9 -185q3 -11 6 -11h2l91 27q15 -1 34 -1.5t25 -1 t16.5 -2.5t19 -5t22.5 -9q104 -43 165 -163q11 -22 22.5 -65t14.5 -74q3 -17 3 -35l-3 -57q-3 -61 -15 -98q-16 -58 -44 -104q-60 -96 -129 -136q-55 -31 -119 -44q-34 -6 -60 -6h-21q-52 4 -56 6q-46 11 -80 41q-32 25 -59 85q-19 42 -19 76v11q1 38 26 58q16 12 32 12h3 q3 0 11 -2q22 -7 27 -38q3 -19 21.5 -43t39.5 -37q22 -12 56 -14h16q56 0 100 21q18 10 41 29.5t35 36.5q36 49 47 104q2 12 4 41l1 36q0 43 -4 63q-10 50 -39 91t-65 55q-6 3 -20 5h-4q-44 0 -117 -58q-27 -22 -49 -31q-22 -8 -33 -8l-21 1q-23 1 -30.5 3.5t-21.5 10.5 q-49 31 -58 99q-3 21 -3 51z" />
<glyph unicode="6" horiz-adv-x="810" d="M54 560q0 86 6 122q25 160 75 285q91 221 223 339q51 43 89 43h2q23 -2 33 -20q6 -11 6 -26q0 -19 -7 -36q-6 -14 -47 -79q-37 -57 -58 -95q-103 -190 -131 -387q-6 -34 -6 -132q0 -51 3 -54q4 0 12 10q63 74 145 99q59 17 117 17q57 0 102 -19q110 -49 134 -175 q4 -19 4 -61q0 -53 -6 -83q-17 -89 -66 -162t-118 -111q-63 -35 -126 -35q-25 0 -48 4q-94 13 -174 90q-47 44 -82 113q-58 112 -78 260q-4 25 -4 93zM319 292q0 -14 19 -36q33 -40 67 -54q18 -7 34 -7q12 0 23 4q31 12 62 39q32 30 47 60q25 45 25 105q0 28 -7 42 q-10 22 -25 29t-47 7h-7q-63 0 -101 -37q-58 -57 -84 -127q-6 -17 -6 -25z" />
<glyph unicode="7" horiz-adv-x="727" d="M54 1168l2 8q6 18 29.5 30t100.5 37q170 53 316 82q32 7 60 7q52 0 82 -30q29 -31 29 -83q0 -22 -5 -55q-18 -107 -138 -451q-77 -225 -121 -418q-21 -96 -61 -209q-30 -84 -51 -98q-13 -9 -34 -9q-5 0 -13 2q-34 10 -40 52q-2 12 -2 25q0 91 24 211q14 74 63 257 q34 132 42 157l31 111q30 106 79 245q54 152 54 156v1h-3q-25 0 -151 -32q-161 -40 -223 -40q-52 0 -65 28q-5 13 -5 16z" />
<glyph unicode="8" horiz-adv-x="827" d="M54 356q0 92 35 201.5t86 177.5q20 25 20 28q0 4 -11 11q-11 8 -33 31q-24 25 -37 54q-23 48 -26 103l-1 14q0 90 49.5 187t121.5 144q68 46 152 64q29 7 72 7t68 -7q105 -26 139 -131q10 -32 10 -84q0 -24 -3 -44q-7 -47 -33 -107t-57 -98q-45 -55 -93 -89 q-12 -9 -12 -11q0 -1 11 -7q41 -19 107 -66q55 -39 93 -87q37 -49 54 -117q7 -27 7 -55v-32q-1 -50 -11 -89q-19 -72 -54 -144q-21 -42 -60 -89.5t-73 -73.5q-49 -37 -118 -58q-26 -8 -76 -9h-24q-29 0 -44 3q-104 25 -167 96q-32 36 -54 86q-30 69 -37 166zM235 397 q0 -88 27 -144q13 -25 34.5 -46t42.5 -29q27 -8 61 -8q18 0 42 4q20 5 46.5 23.5t44.5 39.5q45 52 67 101q30 67 30 120q0 61 -40 104q-44 49 -143 89q-109 45 -119 45q-8 0 -33 -57q-46 -104 -58 -209zM253 979q0 -19 9 -34q11 -18 27 -30q14 -12 40 -27t31 -15t34 40 q46 65 77 131q24 53 31 87q7 44 7 56q0 8 -1 11q-2 11 -12.5 15.5t-36.5 4.5q-87 0 -142 -51q-35 -32 -55 -98q-8 -26 -8 -67z" />
<glyph unicode="9" horiz-adv-x="787" d="M45 929q0 19 7 61q8 49 20 81q32 84 93.5 147.5t135.5 88.5q47 16 90 16q19 0 40 -3q26 -5 47 -13q91 -30 156 -119q39 -53 61 -125q32 -104 32 -233q0 -25 -1 -37q-1 -27 -12 -92q-16 -86 -28 -119q-53 -155 -123 -268q-130 -204 -279 -294q-50 -28 -82 -28q-9 0 -13 1 h-2q-23 7 -29 26q-3 7 -3 16q0 6 1 10q3 15 13 34q8 13 61 70q57 64 73 83q134 169 197 359q12 34 29 128q7 40 7 50l-1 4h-1q-6 0 -12 -8q-75 -61 -160 -72q-27 -3 -47 -3q-25 0 -71 7q-55 9 -97 37q-100 67 -102 195zM205 926q0 -8 2 -18q7 -23 20 -33t45 -15l7 -2 q28 -4 36 -4q36 0 69 23q69 46 105 111q7 12 11 23v5q0 11 -13 34q-24 43 -56 65q-22 11 -33 12q-8 2 -13 2q-1 0 -5 -0.5t-5 -0.5q-30 -5 -68 -28q-36 -24 -57 -51q-33 -41 -43 -99q-2 -16 -2 -24z" />
<glyph unicode=":" horiz-adv-x="303" d="M54 145q0 56 30 96t71 40h7q14 -1 31 -9q51 -26 56 -98v-13q0 -37 -21 -82q-27 -53 -55 -66q-9 -4 -23 -4q-16 0 -34 8q-38 18 -55 78q-7 24 -7 50zM54 509q0 56 30 96t71 40h7q14 -1 31 -9q51 -26 56 -98v-13q0 -37 -21 -82q-28 -55 -55 -66q-12 -5 -24 -5q-18 0 -33 9 q-38 18 -55 78q-7 24 -7 50z" />
<glyph unicode=";" horiz-adv-x="330" d="M54 509q0 56 30 96t71 40h7q14 -1 31 -9q51 -26 56 -98v-13q0 -37 -21 -82q-28 -55 -55 -66q-12 -5 -24 -5q-18 0 -33 9q-38 18 -55 78q-7 24 -7 50zM66 210q0 30 9 43q7 11 22 22q13 9 43 9t51 -11q43 -23 64 -65q21 -39 21 -82q0 -48 -29 -109q-37 -79 -87 -94 q-18 -4 -22 -4q-5 0 -21 4q-23 9 -33 32q-6 13 -6 67v19q0 41 -6 94q-6 49 -6 75z" />
<glyph unicode="&#x3c;" horiz-adv-x="672" d="M54 611v12q2 34 12.5 58t48 60.5t95.5 79t169 118.5q153 104 189 104q12 0 25.5 -8t18.5 -18q7 -14 7 -26q0 -38 -46 -94q-14 -19 -68.5 -73t-94.5 -90q-106 -93 -106 -100q0 -4 6 -7q29 -19 111 -94.5t113 -111.5q40 -47 40 -80q0 -11 -5 -23q-8 -17 -26.5 -28.5 t-39.5 -11.5q-11 0 -39 8t-109.5 47.5t-119.5 63.5q-95 61 -134 101q-35 38 -45 82q-2 14 -2 31z" />
<glyph unicode="=" horiz-adv-x="673" d="M54 634q0 19 7 30q4 9 20 19q35 20 91 31q4 0 7.5 1t7.5 2t5 1q5 1 18 1q16 0 27 1h4q8 1 26 1h21h37q8 0 23 -0.5t22 -1.5l27 -2q1 0 3 -0.5t5 -1t6 -0.5q6 -1 20 -1q20 -2 30 -4q4 -1 9 -1q3 -1 7.5 -2t6.5 -1q5 -1 11 -1q1 0 26 -7l16.5 -5.5t14.5 -4.5q42 -18 57 -54 q3 -4 5 -13q1 -5 1 -13q0 -21 -16 -31l-4 -2l-6 -2q-12 -3 -26 -6q-17 -3 -27 -3h-28q-10 0 -19 1q-17 0 -25 1l-72 5q-15 1 -49 3q-5 0 -15.5 0.5t-15.5 1.5l-46 2q-34 0 -66 -3q-33 -3 -52 -9q-3 0 -7 -1t-7 -2q-2 0 -4.5 -1t-4.5 -2t-3 -1q-2 -1 -5.5 -1.5t-5.5 -0.5 q-4 -1 -8 -1q-27 5 -41 38l-5 16q-3 14 -3 24zM58 387q0 33 27 49q35 20 91 31q24 5 69 6q11 1 47 1l37 -1q61 -1 73 -3q12 -3 33 -3q20 -2 30 -4l9 -1q16 -4 25 -4q92 -17 114 -71q6 -7 6 -26q0 -21 -16 -31l-4 -2q-25 -11 -73 -11q-50 0 -179 10l-77 4q-91 0 -144 -19 q-10 -3 -19 -3q-27 5 -41 38q-8 27 -8 40z" />
<glyph unicode="&#x3e;" horiz-adv-x="673" d="M54 330q0 37 45 95q14 18 68.5 72.5t94.5 90.5q107 92 107 99q0 3 -7 7q-29 19 -111 94.5t-113 112.5q-39 46 -39 80q0 13 4 22q8 17 26.5 28.5t39.5 11.5q10 0 40 -8q27 -8 108.5 -47.5t120.5 -63.5q91 -57 133 -101q37 -40 45 -81q3 -10 3 -32v-12q-3 -44 -27.5 -79.5 t-88.5 -86t-210 -149.5q-151 -105 -189 -105q-12 0 -25.5 8t-18.5 18q-6 12 -6 26z" />
<glyph unicode="?" horiz-adv-x="855" d="M54 1012q0 87 40 161q45 80 136 145q95 69 176 85q30 4 56 4q27 0 57 -4q74 -14 141 -55.5t99 -92.5q42 -66 42 -162q0 -62 -20 -134q-17 -59 -43 -107.5t-84 -132.5q-35 -51 -58 -89q-28 -49 -61 -131t-38 -112q-6 -38 -28 -49q-12 -6 -31 -6q-16 0 -24 4 q-27 12 -44 50.5t-17 85.5q0 68 46.5 170t128.5 217q37 52 63.5 113t31.5 106l2 27q0 81 -65 122q-35 20 -79 23h-10q-51 0 -118 -43q-32 -21 -63.5 -54t-45.5 -61q-20 -40 -20 -88q0 -20 5 -40q8 -30 28.5 -60.5t43.5 -46.5q17 -11 22 -21l2 -10q0 -16 -15 -33 q-25 -25 -61 -25q-52 0 -107 50q-56 51 -79 127q-9 27 -9 67zM331 137q0 56 29.5 95.5t71.5 39.5h7q14 -1 31 -9q51 -25 56 -97v-14q0 -40 -21 -81q-27 -55 -55 -67q-9 -4 -23 -4q-17 0 -35 8q-37 18 -54 79q-7 24 -7 50z" />
<glyph unicode="@" horiz-adv-x="1006" d="M54 483q0 37 3 63q4 38 16.5 96.5t22.5 86.5q52 137 145 221q37 33 59 47.5t68 34.5q85 37 180 43l41 1q104 0 181 -50q16 -10 46.5 -38.5t45.5 -46.5q29 -37 61 -116q29 -73 29 -132q0 -25 -3 -56q-8 -91 -24 -142t-49 -96q-34 -45 -71 -63q-33 -16 -72 -16 q-88 0 -142 71q-15 19 -17 19l-13 -20q-39 -68 -114 -68q-56 0 -96 41q-28 30 -40 67q-9 30 -9 59q0 49 25 99q38 77 123 112q39 16 78 16q68 0 93 -48l18 -25q14 -17 26 -58q21 -67 39 -87q16 -18 29 -18q15 0 33 20q22 24 36.5 70.5t14.5 92.5v15q-3 57 -33 110 q-10 18 -39 47t-47 40q-27 16 -60 16l-40 -2q-132 -9 -201 -42q-29 -15 -59 -45q-33 -32 -52.5 -65t-40.5 -92q-29 -80 -29 -168q0 -71 22 -114q11 -22 49 -62q42 -42 75.5 -59t109.5 -36q57 -14 88 -14l29 1q54 5 107 29q48 21 93 30l7 1q28 0 51 -19q20 -22 20 -48 q0 -38 -36.5 -79.5t-98.5 -72.5q-39 -20 -100 -37q-28 -8 -86 -9h-27q-38 0 -56 3q-84 15 -160 56q-109 60 -179 166q-46 74 -63 164q-7 35 -7 106zM438 496q0 -27 10 -27q2 0 14 10q14 11 40.5 53.5t26.5 51.5v1h-1q-6 0 -23 -7q-65 -26 -67 -82z" />
<glyph unicode="A" horiz-adv-x="788" d="M54 372q0 87 11 191q16 140 54 300.5t80 261.5q14 33 38.5 81.5t37.5 66.5q93 131 197 132h14q43 -2 83.5 -27t64.5 -63q48 -75 62 -212q5 -45 5 -179q0 -112 -4 -156q-5 -52 -7 -119l-7 -121q-3 -52 -3 -165q0 -115 4 -177q8 -134 31 -155q20 -18 20 -43q0 -15 -7 -25 q-16 -26 -57 -26q-11 0 -23 3q-48 13 -90 90q-21 39 -39 104q-23 78 -26 230q-1 86 -5 86l-23 -4q-24 -4 -141 -4q-122 0 -124 -2t-7 -66l-6 -73q-1 -6 -5 -83q-4 -104 -10 -136.5t-21 -40.5q-10 -5 -16 -5q-7 0 -19 7q-21 14 -37 81q-25 111 -25 248zM220 585q0 -6 6 -6 q8 0 25 4q83 17 155 17q53 0 81 -8l5 -1q3 0 3 16q0 21 7 144q6 126 6 199q0 74 -6 128q-7 65 -18 104t-22 39q-16 0 -45.5 -36.5t-53.5 -84.5q-63 -127 -108 -325q-35 -169 -35 -190z" />
<glyph unicode="B" horiz-adv-x="917" d="M54 568q0 111 4 156q4 75 15 164.5t19 117.5q8 32 12 60q15 81 47 178q24 76 59 92q12 4 26 4q20 -2 37 -17t24 -37q7 -21 7 -79q0 -70 -10 -149q-4 -24 -8 -88q-2 -45 -6 -89q-16 -182 -16 -307q0 -24 2 -24q2 2 11 49q37 180 74 300q28 95 68.5 186.5t78.5 145.5 q77 109 150 109q43 0 84 -41q36 -36 50 -92q7 -22 7 -88q0 -63 -8 -101q-28 -132 -106 -246q-25 -36 -25 -38t21 -5q43 -8 79 -32q68 -43 97 -139q16 -54 16 -103q0 -78 -37 -154q-33 -68 -79 -125q-93 -118 -231 -131l-31 -2q-60 0 -106 40q-16 16 -20 16q-3 0 -7 -15 q-18 -68 -68 -91q-22 -10 -47 -10l-15 2q-33 9 -57 37q-28 33 -50 96q-17 47 -34 141t-24 181q-3 38 -3 128zM385 282q2 -5 23.5 -19.5t31.5 -18.5q9 -4 33 -4q27 0 53 6q32 8 51.5 19.5t47.5 39.5q36 36 53 67.5t23 75.5l1 21q0 45 -10 70q-11 27 -30 38q-5 3 -23 5 q-52 0 -102 -26q-18 -9 -47 -36q-40 -36 -71 -36q-11 0 -11 -2q-4 -5 -13.5 -90t-9.5 -106v-4zM450 736q0 -2 1 -2q5 0 48 66q72 109 102 186t30 153v13q-1 45 -7 46h-1q-4 0 -12 -10q-23 -26 -52 -86t-50 -123q-15 -47 -37 -137t-22 -105v-1z" />
<glyph unicode="C" horiz-adv-x="781" d="M54 608l1 42q7 199 56 342q78 225 201 343q27 26 72 51.5t74 31.5q14 3 33 3q42 0 66 -9q46 -18 75 -58.5t29 -84.5v-13q-5 -40 -25 -95.5t-40 -83.5q-18 -26 -38 -26q-11 0 -19 10q-6 8 -8 88q-2 79 -4 83q-3 5 -8 5q-17 0 -57 -46q-52 -58 -93.5 -154.5t-64.5 -209.5 q-17 -89 -20 -206l-1 -35q0 -145 35 -258q11 -36 18 -50.5t20 -28.5q26 -27 55 -27q23 0 58 22t61 54q39 46 70 149q18 60 30 82t30 27q4 2 10 2q7 0 16 -4q41 -14 41 -102l-1 -45q-7 -90 -23 -143q-27 -85 -98 -159q-47 -49 -100 -75q-66 -30 -121 -30q-18 0 -27 1 q-25 2 -44 7q-38 11 -77 41.5t-65 69.5q-11 16 -30.5 55t-28.5 65q-11 28 -28 100t-21 108q-9 66 -9 161z" />
<glyph unicode="D" horiz-adv-x="944" d="M54 595l2 83q9 199 30 341q24 149 31 176q3 9 10 42q4 26 16.5 70t18.5 58q17 32 47 32l5 -1q21 -3 34 -18q26 -26 26 -130l-1 -68q-1 -19 -2 -39t-2 -31l-1 -11q-3 -6 -14 -215q-9 -151 -9 -263l1 -37q5 -156 14 -179l1 -3q2 0 26 160q23 166 33.5 224.5t31.5 144.5 q34 138 95 264q74 157 176 157l16 -1q107 -12 171 -139q55 -108 71 -298q9 -118 9 -173q0 -39 -3 -90q-11 -169 -78 -338q-33 -81 -83 -148q-43 -57 -105 -91t-124 -34q-68 0 -104 36l-15 14q-2 0 -11 -18q-25 -42 -61 -61q-17 -10 -44 -11h-12q-18 0 -25 3 q-28 10 -47.5 30.5t-37.5 57.5q-40 83 -63 217t-23 287zM414 240q0 -4 9 -4l18 1q28 1 51 13q43 23 68.5 52.5t57.5 92.5q30 62 46.5 116.5t26.5 130.5q7 48 7 150q0 156 -15 263q-13 80 -31 116q-4 9 -16.5 21.5t-18.5 14.5h-3q-14 0 -34 -30q-75 -108 -110 -391 q-6 -47 -19 -173q-18 -197 -30 -300z" />
<glyph unicode="E" horiz-adv-x="752" d="M54 469q0 45 3 85q6 76 13 136l8 64q15 133 48 293q34 167 34 188v1l-7 21q-4 8 -4 19q0 17 12 35q30 49 160 76q135 29 223 29q43 0 82 -4q82 -8 109 -38q17 -20 17 -42q0 -28 -24 -44q-12 -9 -86 -25q-40 -7 -58 -12q-69 -14 -174 -20q-16 -1 -61 -6l-34 -3 q-1 -37 -1 -82.5t-1 -62t-4 -57t-10 -109.5q-4 -36 -8 -83l-2 -23q148 31 160 32q22 2 31 2q15 0 39 -3q43 -5 64 -14t33 -28q11 -18 11 -38q0 -48 -57 -74q-46 -21 -95.5 -29t-188.5 -17q-8 -1 -10 -3t-3 -15q-2 -10 -2 -70q0 -157 7 -192q16 -76 34 -99q17 -25 40 -25 q25 0 84 35q52 32 93 84q25 32 36.5 42.5t25.5 14.5q10 2 15 2q33 0 52 -36q9 -19 9 -54q0 -52 -28 -112q-40 -83 -112 -139q-46 -35 -84 -49q-51 -20 -104 -20q-29 0 -53 6q-36 9 -71.5 30t-58.5 47q-53 56 -77 144q-25 87 -25 242z" />
<glyph unicode="F" horiz-adv-x="668" d="M54 486q0 93 5.5 211.5t10.5 156.5q1 5 2 13.5t2 19t2 16.5q6 49 22 148q15 97 32 149q12 41 12 58v11q0 23 9.5 37.5t37.5 35.5q46 36 154 51q45 5 78 11q35 4 88 6l38 1q27 0 46 -4q71 -14 75 -62v-6q0 -27 -25 -47t-83 -39q-40 -13 -62 -17q-139 -32 -181 -36h-14 q-3 -124 -7 -173q-16 -190 -16 -217v-4q0 -12 8 -12t36 6q65 12 137 12q38 0 58 -4q36 -8 57.5 -26.5t21.5 -42.5l-2 -13q-7 -27 -34.5 -42t-107.5 -38q-109 -31 -166 -36l-20 -2q-5 -185 -5 -264q-3 -263 -12 -295q-6 -22 -22.5 -35.5t-37.5 -13.5q-10 0 -23 5 q-35 16 -57 71q-36 90 -46 193q-11 112 -11 217z" />
<glyph unicode="G" horiz-adv-x="865" d="M54 541l1 59q4 96 8 125l6 63q14 142 78 312q52 141 126.5 235t154.5 121q54 18 95 18q51 0 94 -27q62 -36 82 -117q8 -32 8 -63q0 -50 -19 -122q-28 -111 -67 -150q-20 -19 -41 -19q-15 0 -27 8q-20 14 -20 43q0 13 3 30q10 69 10 122q0 39 -6 66q-6 30 -22 30 q-11 0 -35 -12q-97 -47 -173 -246q-17 -46 -35 -121.5t-25 -139.5q-9 -69 -9 -160q0 -131 17 -228q9 -55 29.5 -108.5t41.5 -76.5l11 -13q32 35 57 77.5t59 131.5q14 37 42 106l34 93q59 173 98 230q38 56 82 56q21 0 40 -11q39 -22 54 -90q5 -27 5 -106q0 -81 -4 -173 q-3 -156 -3 -228v-61q0 -89 -12 -151q-10 -47 -29 -66q-25 -23 -57 -23q-38 0 -67 30q-47 66 -47 209q0 61 8 131q-9 -63 -27 -122.5t-48 -119.5t-77.5 -96.5t-105.5 -36.5q-19 0 -46 5q-29 7 -65 32.5t-56 51.5q-121 162 -121 502z" />
<glyph unicode="H" horiz-adv-x="770" d="M54 515q0 172 10 307l6 91q1 15 6 63q3 17 10 84q7 66 11 85l9 56q23 144 38 183q18 46 55 46q64 0 85 -121q6 -39 6 -133q0 -60 -3 -100l-9 -99q0 -11 -7 -86q-3 -19 -8 -85q0 -3 -3 -40.5t-5 -54.5q-7 -73 -7 -106q0 -18 3 -18l29 6q90 22 169 22h33l7 144 q3 69 10.5 167t11.5 112l11 75q25 199 53 247q20 34 52 34q4 0 14 -2q44 -12 66 -93l9 -30q-3 -262 -8 -326q-15 -177 -17 -210l-5 -88q-5 -57 -5 -338q0 -148 2 -175q4 -58 8 -72q4 -22 4 -26q0 -9 -6 -23q-16 -31 -53 -31q-12 0 -20 4q-22 8 -36 25.5t-28 55.5 q-32 78 -54 207q-13 75 -13 138q0 25 -2 29q-5 6 -64 6q-86 0 -151 -10l-22 -3q-5 -213 -5 -292q0 -68 -1 -81.5t-7 -24.5q-12 -24 -36 -30q-10 -2 -14 -2q-47 0 -69 65q-12 35 -29 114.5t-22 129.5q-3 26 -7 111z" />
<glyph unicode="I" horiz-adv-x="442" d="M54 3q0 41 58 69q21 11 21 13q0 5 -11 32q-25 67 -34 198q-3 50 -3 248t3 246l7 96q10 166 34 279q11 53 11 59v1q-2 2 -21 4q-28 4 -43.5 19.5t-15.5 39.5q0 60 90 86q24 7 58 7q55 0 106 -18t65 -44q9 -16 9 -33q0 -20 -16 -36l-11 -9l-70 2v-8l4 -49q3 -25 3 -139 q0 -201 -6 -337l-8 -281q-6 -232 -12 -315l-2 -35q63 -15 63 -49q0 -14 -13 -27q-8 -8 -25 -13.5t-83 -20.5l-84 -22q-18 -6 -30 -6q-10 0 -22 5q-22 11 -22 38z" />
<glyph unicode="J" horiz-adv-x="755" d="M54 291q0 29 6 49q21 67 79 104q21 13 31 13q4 0 14 -4q17 -9 17 -27q0 -13 -9 -31q-12 -23 -12 -38q0 -13 6 -32q16 -64 51 -98q17 -18 29.5 -23t43.5 -7h13q19 0 33 7q83 37 114 240q12 79 20 525q5 258 14 299q8 32 28 50q13 11 25 11q25 0 45 -36q16 -28 40.5 -126.5 t30.5 -154.5q2 -22 7 -49q21 -152 21 -362q0 -78 -5 -140q-22 -237 -109 -348q-64 -80 -153 -105q-32 -8 -80 -8q-34 0 -59 5q-52 11 -82.5 26.5t-62.5 47.5q-60 59 -85 138q-11 33 -11 74z" />
<glyph unicode="K" horiz-adv-x="906" d="M54 522q0 138 20 301q14 109 38 238t43 190q20 63 42 83q13 11 26 11q26 0 41 -25q17 -31 20 -116v-33q0 -51 -18 -258q-6 -67 -15 -198q-6 -69 -6 -219q0 -81 2 -103q10 -135 13 -137q1 0 5 18q4 45 35 183q35 158 100.5 343t129.5 305q51 96 101 169.5t76 91.5 q11 8 25 8q24 0 32 -18q4 -10 4 -20q0 -9 -4 -17q-20 -30 -102 -229q-95 -233 -147 -418q-16 -55 -16 -71q0 -14 12 -47l21 -61q30 -88 106.5 -194.5t141.5 -150.5q3 -2 10.5 -6.5t13 -8t9.5 -5.5q22 -12 30.5 -23t8.5 -28q0 -48 -61 -48q-65 0 -147 51q-138 86 -195 195 l-13 23q-2 0 -11 -47q-25 -135 -43 -177q-35 -89 -112 -94h-10q-13 0 -23 2q-55 14 -98 80q-28 43 -45 108q-40 148 -40 352z" />
<glyph unicode="L" horiz-adv-x="690" d="M54 754q0 98 11 180q1 12 5.5 42.5t5.5 40.5q10 71 27.5 151.5t31.5 116.5q25 64 65 64h5q59 -6 72 -147q2 -32 2 -76q0 -103 -6 -238q-4 -67 -4 -150q0 -157 13 -232q15 -91 43 -178q19 -58 34.5 -82t37.5 -28q30 -6 63 -6q54 0 92 13q18 6 33 6q34 0 47 -30 q4 -14 4 -20q0 -27 -37 -64q-24 -24 -53 -41q-56 -35 -114 -51q-20 -5 -46 -5q-37 0 -59 7q-81 22 -132 97.5t-93 235.5q-19 78 -26 132q-7 49 -10 69q-12 83 -12 193z" />
<glyph unicode="M" horiz-adv-x="1200" d="M54 1008q0 140 8 202q16 147 42 164q10 6 20 6q16 0 29 -12q50 -45 63 -239q2 -41 4 -62q1 -11 7 -149q2 -64 7 -169q4 -40 4 -59q0 -23 2 -33l2 -6q1 0 4 15q54 259 100 389q34 99 74 169q32 54 70 67q16 6 33 6q29 0 55 -16.5t41 -44.5q22 -40 29 -107q2 -20 2 -58 q0 -87 -7 -250q0 -37 1 -43l2 -7q3 0 44 115q62 169 97.5 248.5t74.5 138.5q44 65 76 91.5t67 26.5h8q77 -5 114 -107q11 -34 17 -104l2 -50q0 -52 -16 -171l-9 -73l-12 -88q-3 -20 -8.5 -55t-6.5 -41q-1 -7 -14 -89q-30 -189 -35 -270q-2 -15 -5 -47q-4 -26 -6 -81 q-7 -114 -21 -156q-10 -31 -40 -47q-12 -6 -23 -6l-9 1q-33 2 -51.5 28t-31.5 92q-8 38 -8 168q1 149 11 248t44 303q15 88 19 105q11 59 26 171q10 76 10 88q0 6 -1 6q-2 0 -17 -24q-35 -59 -62.5 -135.5t-79.5 -260.5q-55 -192 -88 -298q-17 -54 -31.5 -77t-39.5 -37 q-16 -9 -40 -9t-40 9q-41 22 -61 89q-29 95 -29 276q0 104 4 231q0 64 -1 64q-4 0 -23 -69q-23 -77 -46.5 -193.5t-32.5 -195.5l-6 -52q-13 -101 -17 -325q-3 -126 -17 -156q-6 -15 -19.5 -29t-26.5 -19t-27 -5q-22 0 -36 7q-29 14 -48.5 54.5t-40.5 129.5q-45 200 -63 424 q-17 236 -17 393z" />
<glyph unicode="N" horiz-adv-x="871" d="M54 516q0 226 11 385q22 340 53 400q14 29 43 29l12 -2q45 -12 59 -114q11 -117 11 -180v-6q0 -1 -4 -234l-1 -135q0 -307 8 -352l3 -12q37 240 95 495.5t99 367.5q82 221 169 263q21 10 50 10q27 0 48 -11q63 -33 93 -161q14 -68 14 -169q0 -39 -3 -72l-8 -90 q-7 -73 -10 -93l-7 -67q-36 -363 -36 -499q0 -67 5 -109q5 -38 5 -72q0 -27 -3 -39q-5 -21 -22.5 -35t-38.5 -14q-51 0 -84.5 66.5t-37.5 174.5l-1 26q0 194 25 444l6 66q5 41 6 71l11 114q10 107 10 200q0 53 -2 70q-4 36 -6 38h-1q-7 0 -30 -40.5t-39 -80.5 q-38 -92 -63 -223q-18 -89 -43 -240q-31 -203 -44 -321q-7 -74 -17 -158q-14 -103 -24 -143q-19 -77 -71 -106q-15 -8 -46 -13q-13 0 -22 1q-30 4 -63 30q-28 22 -48 59q-43 80 -55 251q-6 75 -6 230z" />
<glyph unicode="O" horiz-adv-x="920" d="M54 535q0 151 33 297q37 163 86 269q14 31 14 34q0 4 21.5 44t31.5 55q16 25 24 50q26 82 82 128q63 52 137 56h13q54 0 110 -28q64 -31 109 -77q121 -119 147 -354q4 -33 4 -144q0 -143 -6 -196q-15 -147 -65 -309q-35 -109 -91 -194q-44 -66 -102 -117q-35 -32 -94 -62 q-56 -28 -121 -28l-25 2q-64 10 -113 46q-15 10 -42 39.5t-42 50.5q-79 112 -103 297q-8 72 -8 141zM250 581q0 -195 53 -314q51 -113 104 -113h7q18 2 30 8q35 15 79 59q47 49 76 101q110 200 110 506q0 21 -2 65q-4 94 -15 148t-37 101q-35 63 -131 109q-20 10 -32 10h-11 q-19 -1 -39 -12q-29 -17 -39.5 -33.5t-35.5 -82.5q-32 -79 -36 -94q-5 -20 -14 -47q-67 -211 -67 -411z" />
<glyph unicode="P" horiz-adv-x="888" d="M54 830q0 208 36 391q15 80 31 110.5t43 30.5q22 0 32.5 -15t16.5 -55q5 -36 5 -302q1 -290 10 -380q1 -17 3 -17q4 0 4 45q0 14 5 86q28 336 151 524q62 92 143 119q27 8 52 8q48 0 87 -18q29 -13 61 -46t48 -65q52 -101 52 -271q0 -73 -14 -146q-11 -62 -40 -121 q-44 -87 -111 -142t-146 -68q-23 -4 -50 -4q-49 0 -74 15q-11 7 -12 7q-2 0 -2 -13q0 -60 17 -199q10 -98 10 -167q0 -49 -5 -74q-12 -48 -40.5 -75.5t-65.5 -27.5q-13 0 -30 5q-29 9 -50.5 31.5t-43.5 66.5q-52 107 -79.5 248.5t-39.5 365.5q-4 72 -4 153zM384 655l1 -14 q2 -2 5 -2l24 3q28 5 77 33q52 30 77.5 63t44.5 93q19 63 23 160v33q0 107 -23 160q-7 14 -19 27t-19 13q-23 0 -57 -36q-114 -124 -132 -482z" />
<glyph unicode="Q" horiz-adv-x="929" d="M54 595q0 78 12 174q14 119 53.5 249t86.5 216q38 69 101 139q45 48 117 48h8q102 -2 189 -87q22 -22 55.5 -69.5t54.5 -85.5q14 -26 46.5 -103.5t49.5 -126.5q28 -78 41 -184q7 -56 7 -168q0 -62 -3 -92q-30 -227 -98 -360q-16 -28 -16 -32q0 -2 13 -22q38 -65 64 -128 q7 -18 7 -37q0 -37 -34 -56q-12 -6 -29 -6q-21 0 -35 7q-36 17 -86 63q-34 30 -37 30t-23 -11q-78 -42 -155 -42h-9q-61 4 -113 28q-35 16 -76 53.5t-68 76.5q-16 25 -38.5 70.5t-30.5 71.5q-42 132 -52 322zM246 651q0 -127 27 -250q15 -71 41 -127q24 -52 56 -86.5 t64 -42.5q3 -1 14 -1q24 0 42 7q11 5 11 8l-24 52q-46 95 -51 129q-3 12 -3 22q0 19 14 33q11 11 26 11q18 0 38 -14t62 -57q51 -51 53 -51q3 0 23 44.5t28 70.5q43 130 47 261v29q0 105 -34 206q-32 93 -61 144.5t-80 102.5q-33 33 -55 46.5t-68 29.5l-31 10 q-2 -1 -8.5 -4.5t-8 -5t-6 -7t-7.5 -15t-9 -24.5t-14 -39q-86 -257 -86 -482z" />
<glyph unicode="R" horiz-adv-x="1017" d="M54 830q0 212 36 391q13 76 31 110q16 31 43 31q22 0 33 -15q10 -16 16 -55q2 -14 3 -41q0 -8 0.5 -21t1 -33t0.5 -35v-172q0 -143 1 -188q1 -69 3 -111t6 -81q2 -17 3 -17q3 0 4 45q0 18 1 31q0 6 1 20t2 20q0 10 1 15q30 336 151 524q63 90 143 119q27 8 52 8 q45 0 87 -18q30 -15 61 -46t48 -65q52 -105 52 -271q0 -33 -2 -71q-3 -30 -12 -75q-8 -40 -16 -63q-8 -25 -24 -58q-79 -154 -213 -199q9 -17 28 -49.5t27 -47.5q44 -76 58 -98q26 -44 39 -63q43 -59 66 -78q18 -17 38 -17h6q4 1 10 1q25 0 35 -21q7 -14 7 -24q0 -9 -8 -28 q-8 -18 -32 -32q-13 -7 -29 -10q-20 -3 -38 -3h-18q-15 2 -43 9q-25 4 -54 24q-28 19 -70 70q-40 46 -114 151q-12 18 -84 121l11 -110q10 -91 10 -167q0 -46 -5 -74q-14 -50 -41 -76q-28 -27 -65 -27q-13 0 -30 5q-55 13 -94 98q-99 188 -119 614q-4 71 -4 153zM384 655 l1 -14q2 -2 5 -2l24 3q24 4 77 33q49 28 77 64q28 35 45 92q13 41 17 70q4 31 6 90v33q0 116 -23 160q-5 10 -19 28q-12 12 -19 12q-12 0 -26 -10q-14 -9 -31 -26q-112 -124 -132 -482z" />
<glyph unicode="S" horiz-adv-x="786" d="M54 1053q0 62 13 114q14 61 47 116.5t76 90.5q20 17 57 36.5t68 29.5q46 15 109 15h19q53 -4 102.5 -29t82.5 -66q31 -38 41 -82q6 -29 6 -61q0 -92 -47 -188q-31 -62 -69 -100q-41 -41 -76 -41h-7q-10 0 -18 9q-9 10 -9 18q0 10 27 46q66 87 78 178l1 24q0 11 -3 32 q-6 29 -16.5 44.5t-32.5 26.5q-37 17 -69 17q-28 0 -57 -12q-61 -26 -88 -64t-30 -104l-1 -20q0 -67 39 -149q32 -69 127 -174q157 -171 220 -262q48 -73 67 -131q20 -65 20 -117q0 -36 -9 -74q-13 -52 -39 -91q-41 -61 -125 -96q-72 -30 -132 -30q-20 0 -38 3 q-79 15 -121.5 37.5t-101.5 81.5q-30 30 -39 41.5t-20 32.5q-24 49 -24 99l1 8q2 47 23 74.5t58 30.5l11 1q10 0 18 -4q22 -11 22 -40v-9q0 -62 55 -118q60 -62 136 -66l16 -1q12 0 29 8q45 19 53 36q9 18 9 38q0 44 -51 122q-34 50 -123 142q-111 120 -168 204 q-117 177 -117 373z" />
<glyph unicode="T" horiz-adv-x="785" d="M54 1233q0 30 18 46.5t76 30.5q48 12 148.5 25.5t163.5 16.5q47 0 97 5l42 2l33 -2q9 -1 20 -2t15 -1.5t10.5 -1.5t9.5 -2.5l7 -3.5t9 -5q27 -18 28 -41q0 -31 -30 -54q-39 -31 -203 -49q-61 -7 -61 -10q0 -9 2 -15q10 -48 10 -131l-1 -30l1 -23q0 -42 -3 -115 q-2 -144 -9 -442q-3 -62 -3 -97v-179l1 -65q0 -32 -2 -62q-3 -27 -7 -38q-12 -30 -37 -42q-8 -2 -16 -2h-8q-16 1 -31 7q-17 14 -23 22q-14 19 -19 42t-11 102q-15 166 -15 212v19l-1 41q-5 84 -5 279q2 98 15 244q3 47 10 109q12 106 26 149l1 3q0 5 -1 5l-2 1 q-22 0 -40 -1q-26 -2 -72 -2q-34 0 -49 1q-47 5 -64 14q-10 5 -19 17.5t-11 22.5z" />
<glyph unicode="U" horiz-adv-x="909" d="M54 834q0 64 2 76q1 5 5 66q8 136 37 235q34 110 86 110l13 -2q39 -10 50 -81q6 -31 11 -378q6 -332 23 -461t65 -198q10 -15 27 -31t22 -16q15 0 37 18q27 23 44 57q24 46 47 178q26 151 41 281q3 35 8 72l36 307q25 227 40 266q20 46 67 46q31 0 54.5 -24t32.5 -64 q10 -49 16 -133q11 -185 11 -487q0 -196 4.5 -288t20.5 -247q1 -9 1 -29q0 -60 -11 -84q-20 -46 -67 -46q-54 0 -90 74q-21 41 -38 140q-9 52 -12 52l-2 -8q-20 -77 -35 -108q-29 -66 -94 -121q-52 -46 -118 -46l-17 1q-65 11 -114 47q-95 71 -138 205q-47 144 -60 406 q-5 92 -5 215z" />
<glyph unicode="V" horiz-adv-x="902" d="M54 1328q0 56 3.5 73.5t17.5 30.5t30 13q23 0 45 -22q57 -52 99 -277q24 -119 37 -227q3 -29 8 -57q8 -58 10 -75q38 -271 85 -445q23 -80 26 -80h1q6 8 29 91q29 106 44 166q51 200 78 290q18 60 21 72q56 202 110 333q23 59 59 115q37 55 59 55q6 0 13 -3q19 -7 19 -41 q0 -46 -36 -135q-71 -174 -122 -437l-20 -100q-13 -65 -17 -89q-62 -343 -92 -462q-15 -60 -28 -87.5t-36 -49.5q-32 -31 -81 -32h-14q-14 0 -34 6q-35 15 -61 47q-49 59 -98 230q-40 142 -80 372.5t-54 394.5q-4 63 -6 65q-2 4 -8 111t-7 154z" />
<glyph unicode="W" horiz-adv-x="1018" d="M54 589l1 40q8 221 23 349q7 81 32 182q13 53 25 72t32 19q41 0 52 -83q4 -36 4 -116q0 -81 -3 -213l-1 -81q0 -294 36 -480q7 -34 9 -34q1 1 1 3q0 8 10 68l30 189q61 404 77 462q11 37 34 54q20 16 44 16q27 0 49.5 -20t35.5 -55q16 -45 31 -149q14 -103 44 -235 q34 -147 79 -242t58 -95h1q6 4 19.5 40t21.5 71q31 129 31 273v25q-8 223 -46 434q-17 86 -17 130q0 37 16 54q15 17 36 17q29 0 46 -29t31 -101l15 -82q29 -147 45 -311q8 -95 8 -187q0 -235 -51 -375q-43 -117 -122 -138q-18 -5 -31 -5q-54 0 -114 64q-106 111 -169 347 q-11 45 -13 45t-9 -81q-20 -229 -33 -309q-15 -90 -39 -136q-32 -61 -92 -73q-15 -3 -21 -3t-21 3q-23 5 -49 25t-44 47q-48 76 -73 240q-29 183 -29 364z" />
<glyph unicode="X" horiz-adv-x="914" d="M54 85q0 24 13.5 72.5t31.5 89.5l23 59q38 102 121 249q44 77 44 84q0 8 -16 67q-116 441 -116 541l1 14q3 31 19 48.5t41 17.5q44 0 81.5 -54t80.5 -182q43 -129 61 -193q5 -20 7 -20q3 0 86 113q88 123 159 200q36 39 87 83t75 56q13 7 26 7q30 0 35 -32v-5 q0 -11 -5 -20q-5 -10 -58 -83t-76 -100q-112 -137 -206 -280l-58 -86q-12 -17 -12 -23q0 -2 2 -12q11 -41 48.5 -140.5t64.5 -156.5q66 -138 89.5 -182t40.5 -63q12 -14 19 -25q7 -13 7 -31q0 -45 -38 -69q-12 -9 -37 -10h-10q-14 0 -22 2q-42 14 -103.5 75t-101.5 127 q-56 95 -93 193q-14 38 -17 38t-32 -54l-47 -84q-57 -102 -65 -120q-25 -52 -65 -111q-29 -41 -52 -41q-11 0 -22 11t-11 30z" />
<glyph unicode="Y" horiz-adv-x="843" d="M54 766q0 65 4 104q7 66 8 93q10 112 32.5 231.5t41.5 159.5q6 12 17 22t21 12l7 1q17 0 32 -13.5t21 -34.5q5 -20 5 -79q0 -50 -5 -148q-7 -101 -7 -241l-1 -60q0 -69 8 -122q4 -37 12 -76.5t15.5 -64t11.5 -24.5q6 0 28 44.5t37 86.5q41 114 98 345q85 335 144 397 q24 27 54 27q52 0 84 -68q36 -74 49 -184l6 -56q12 -102 12 -266q0 -159 -18 -267q-23 -135 -74 -250q-38 -88 -89.5 -161.5t-97.5 -105.5q-37 -27 -87 -44q-69 -24 -123 -24q-12 0 -28 2q-20 4 -39 15q-55 28 -55 75q0 11 2 16q10 47 54 49q21 0 72 20q52 20 69 31 q37 23 74 73q60 90 103 226q42 143 53 400q3 71 3 140q0 105 -6 105q-8 0 -50 -267q-23 -152 -37 -220.5t-34 -130.5q-22 -67 -55 -121.5t-67 -79.5q-43 -31 -99 -31q-14 0 -34 4q-80 22 -123 124q-23 56 -39 155q-10 77 -10 181z" />
<glyph unicode="Z" horiz-adv-x="853" d="M54 89q0 111 112 345q51 109 118 235.5t108 189.5l37 62q56 89 68 108q131 205 131 218v2q-2 2 -10 2q-42 0 -167 -30q-183 -45 -243 -45h-11q-42 0 -57 19q-9 12 -9 27q0 17 11 30q10 11 25.5 18t73.5 25l89 27q162 51 227 65q40 10 88 10q34 0 52 -6q78 -28 97 -102 q5 -20 5 -48q0 -25 -3 -38q-22 -103 -152 -316q-243 -401 -329 -591q-60 -128 -60 -142q3 0 56 21q38 16 91 35q38 11 89 29q183 61 218 61h11q23 -2 37 -17.5t14 -36.5q0 -23 -19 -42q-24 -23 -106.5 -66t-146.5 -67q-38 -15 -194 -86q-60 -28 -81 -33q-22 -6 -48 -6 q-20 0 -31 4q-69 23 -86 95q-5 22 -5 44z" />
<glyph unicode="[" horiz-adv-x="571" d="M54 415l1 94q2 153 7 235t22 226q11 96 29 139.5t53 60.5q29 15 97 15q61 0 116 -7t75 -18q19 -10 32 -27.5t13 -33.5q0 -12 -8 -25t-19 -20q-29 -17 -114 -19q-64 -2 -64 -5q-1 -3 -5 -84l-6 -106q-6 -43 -8 -69q-8 -62 -21 -221q-12 -174 -15 -206l-7 -64 q-4 -69 -5 -95l-2 -66q6 1 26 3.5t48.5 6t58.5 6.5l40 1q83 0 108 -30q10 -12 11 -31v-7q0 -48 -61 -77q-40 -20 -211 -36q-38 -5 -52 -5q-7 0 -20 3q-26 5 -49 22.5t-34 40.5q-16 35 -26 136q-10 93 -10 263z" />
<glyph unicode="\" horiz-adv-x="623" d="M54 1299q0 90 59 90h2q54 0 108 -92q45 -79 63 -131q2 -7 11 -29t12 -30q15 -35 36 -100q20 -62 29 -83q7 -18 39.5 -124t46.5 -157l35 -123q31 -111 45 -185q29 -158 29 -271q0 -47 -7 -73q-16 -52 -62 -68q-11 -4 -23 -4q-25 0 -45.5 17.5t-30.5 48.5q-7 19 -11 52 q-6 35 -11 78q-11 74 -43.5 203t-68.5 235q-18 55 -65 202l-61 183l-35 113l-20 72q-22 73 -30 148z" />
<glyph unicode="]" horiz-adv-x="571" d="M54 1060v5q0 49 62 79q41 20 211 36q48 5 51 5q8 0 20 -3q58 -12 83 -63q18 -37 27 -136q9 -89 9 -284v-73q-2 -153 -7 -235t-22 -226q-11 -96 -29 -139.5t-53 -60.5q-29 -15 -98 -15q-60 0 -115.5 7t-75.5 18q-18 10 -31 27.5t-13 33.5q0 30 27 45q28 17 113 19 q63 2 65 5q1 3 5 84q2 74 6 106l8 69q15 140 20 221l16 206q2 30 6 64q3 25 5 95l2 66q-57 -9 -133 -16l-40 -2q-82 0 -108 31q-8 12 -11 31z" />
<glyph unicode="^" horiz-adv-x="663" d="M54 856v2q2 18 13 35q11 18 40 51q19 21 45.5 52t37.5 43.5t27 29t29 25t28 14.5q19 9 36 9l23 -1q33 -3 51 -9.5t48 -26.5q74 -49 111.5 -87t56.5 -82q9 -21 9 -40v-5q-2 -27 -21 -42q-15 -12 -40 -12q-41 4 -109 55q-36 29 -99 87q-23 23 -30 23q-15 0 -93 -74 q-80 -76 -109 -85q-12 -3 -17 -3t-15 6q-22 13 -22 35z" />
<glyph unicode="_" horiz-adv-x="867" d="M54 -52q0 18 9 30q8 10 28 19q48 22 123 31q33 5 93 6q22 1 63 1q122 0 148 -4q18 -3 45 -3q8 0 18.5 -1t21.5 -2.5t14 -1.5q24 -4 33 -4q28 -3 78 -17q58 -18 77 -54q8 -8 8 -26q0 -20 -21 -31q-2 0 -7 -1.5t-8 -2.5q-34 -9 -71 -9h-37q-40 0 -61 2l-97 5q-18 1 -57.5 3 t-50.5 2l-62 2q-102 0 -159 -12q-28 -5 -36 -7q-13 -3 -26 -3q-36 3 -56 38l-6 16q-4 11 -4 24z" />
<glyph unicode="`" horiz-adv-x="542" d="M54 1079q0 8 1 12q10 37 49 37q4 0 16 -2q25 -5 58 -29q36 -28 74 -70q39 -44 63 -83q45 -70 45 -97q0 -9 -3 -16q-8 -25 -35 -30q-3 -1 -9 -1q-20 0 -44 18q-60 47 -120 109q-39 41 -61 73q-34 51 -34 79z" />
<glyph unicode="a" horiz-adv-x="746" d="M54 150q0 29 5 56q16 79 83 200q121 222 301 304q51 21 111 24l24 1q17 0 35 -7q36 -15 36 -44q0 -10 -5 -22q-4 -4 -4 -11l2 -11q1 -6 1 -36q0 -50 -6 -194l-2 -83q0 -143 19 -206q4 -14 16 -21q23 -13 23 -29q0 -14 -12.5 -26.5t-30.5 -17.5q-6 -1 -16 -1 q-35 0 -66.5 35t-51.5 97q-19 58 -23 136l-2 39q-69 -121 -121.5 -188.5t-107.5 -98.5q-44 -26 -91 -26q-10 0 -22 2q-32 6 -56.5 27.5t-33.5 52.5q-5 18 -5 48zM227 207q0 -2 1 -2q3 0 19 16q41 43 107 142q28 42 66 110t38 75l-1 1q-2 0 -34.5 -30t-45.5 -45 q-65 -75 -110 -164q-14 -27 -27 -60.5t-13 -42.5z" />
<glyph unicode="b" horiz-adv-x="749" d="M54 602l1 72q4 200 35 384q25 161 68 186q8 5 20 7h7q28 -3 43 -35q13 -29 13 -110v-24q-16 -308 -17 -328q-3 -52 -3 -208t3 -158q4 0 23 39q29 57 73 116.5t77 85.5q55 44 114 44q7 0 23 -2q56 -9 92 -50t58 -121q8 -30 11 -84v-31q0 -31 -7 -61q-18 -79 -74 -141 q-69 -77 -159 -77q-70 0 -127 45q-16 13 -22 13h-1q-1 -2 -18 -51q-13 -44 -24 -66q-18 -31 -48 -43q-11 -4 -27 -4q-20 0 -39 8q-29 12 -45 38q-11 20 -23 106.5t-17 176.5q-10 176 -10 273zM329 250q0 -1 11 -5q11 -5 14 -10q4 -6 30 -12q42 -9 52 -9t20 3q14 4 33 21 t29 36q19 38 19 83l-2 31q-4 40 -16 83t-21 48h-4q-14 -2 -51.5 -51.5t-64.5 -102.5q-8 -16 -28.5 -63.5t-20.5 -51.5z" />
<glyph unicode="c" horiz-adv-x="700" d="M54 337q0 23 1 34q4 59 30 128q46 122 129 201q52 48 101 70q45 20 89 21q76 0 139 -48q27 -20 43 -55.5t16 -72.5q0 -20 -3 -30q-4 -18 -19 -44t-31 -42q-35 -35 -73 -35q-26 0 -35 19q-1 3 -1 9q0 8 3 23q7 22 7 58q0 29 -6 39q-12 25 -34 30l-3 1q-15 0 -41 -17.5 t-48 -41.5q-79 -90 -79 -210q0 -42 13 -89q24 -80 75 -101q14 -4 24 -4q42 0 100 36q34 22 60 60q34 49 80 49q39 0 51 -37q4 -11 4 -23q0 -24 -21 -66q-31 -59 -71 -99.5t-97 -69.5q-55 -30 -134 -30q-20 0 -30 1q-110 10 -178 110q-28 40 -44.5 102t-16.5 124z" />
<glyph unicode="d" horiz-adv-x="683" d="M54 373q0 88 39.5 168t103.5 118q55 34 116 37q52 0 93 -11q12 -2 14 -2q8 0 11 16t8 77t11 115q11 92 33.5 172t44.5 111q21 31 45 31q35 -2 50 -54q5 -22 5 -93q0 -56 -12 -235t-12 -363q0 -90 5 -440q0 -40 -4 -49q-8 -16 -23.5 -24t-29.5 -8q-38 0 -62 36 q-18 29 -51 170q-1 4 -3 4t-18 -13q-61 -49 -140 -49q-98 0 -156 69q-36 42 -51 90t-17 127zM228 394q0 -59 21 -97q10 -19 18.5 -25.5t23.5 -6.5h8q38 3 123 48q0 39 -1 97q0 73 -1.5 95t-7.5 26q-22 18 -89 18q-44 -4 -69.5 -46.5t-25.5 -108.5z" />
<glyph unicode="e" horiz-adv-x="683" d="M54 351q0 92 44.5 182t113.5 139q63 46 132 46h5q75 0 137 -53q50 -44 50 -110q0 -65 -55 -139q-23 -32 -67.5 -63.5t-79.5 -41.5q-68 -22 -86 -22q-13 0 -22 4l-4 1q-1 0 -1 -1l1 -5q7 -24 33 -50q37 -34 73 -46q40 -14 68 -14q26 0 45 9q38 14 88 51q42 32 54.5 39.5 t21.5 7.5q14 0 19 -6.5t5 -25.5v-13q-4 -51 -31 -90q-28 -41 -81 -77q-71 -48 -162 -48q-29 0 -54 6q-134 31 -196 132q-51 83 -51 188zM214 445q0 -6 19 -6t34 6q54 19 82 73q9 18 9 33q0 10 -4 17q-11 16 -33 18h-6q-17 -2 -39 -22t-37 -48q-8 -15 -16.5 -38.5t-8.5 -32.5 z" />
<glyph unicode="f" horiz-adv-x="703" d="M54 441l1 8q1 19 19.5 33.5t57.5 29.5q24 8 32 12q5 2 5 45q0 121 16 249q10 81 25 143q29 117 70 184q20 34 52 61q54 46 108 54q14 2 23 2h8q31 0 57 -8q50 -20 78 -48q43 -47 43 -91q0 -19 -12.5 -39.5t-29.5 -29.5q-12 -6 -21 -6q-23 0 -49 32q-13 15 -31.5 27.5 t-26.5 12.5q-5 0 -16.5 -12t-17.5 -22q-18 -27 -41 -116q-16 -64 -27 -169t-11 -199v-43q20 0 35 0.5t25 1t23 0.5q29 0 56 -5q46 -9 63.5 -20.5t17.5 -34.5v-7q0 -7 -12.5 -18.5t-25.5 -16.5q-46 -20 -128 -23q-52 -4 -55 -5q-2 -1 -2 -19q0 -43 8.5 -141t19.5 -165 q11 -73 12 -97l7 -73q0 -8 -6 -18q-9 -11 -19 -15q-12 -5 -29 -5t-29 5q-13 7 -20 12q-12 8 -33.5 37.5t-29.5 48.5q-16 35 -31.5 99t-21.5 121q-4 40 -7 58q-5 29 -8 76q-4 55 -5 56l-21 -2q-17 -4 -32 -4q-19 0 -35 8q-29 11 -29 36z" />
<glyph unicode="g" horiz-adv-x="604" d="M54 395q0 27 6 57q12 53 43 115q34 69 82.5 122t100.5 77q37 18 78 18q41 -2 64 -19q25 -21 25 -44q0 -11 12 -24q23 -25 45 -107t33 -183q7 -59 7 -162q0 -174 -17 -281q-23 -148 -83 -240q-29 -44 -75.5 -71.5t-91.5 -27.5l-21 2q-43 7 -72 35.5t-29 60.5q0 14 6 26 q14 26 45 26q14 0 27 -4q15 -5 22 -5q13 0 35 30q69 95 69 354l-1 63q-2 94 -4 98q-4 0 -18 -17q-60 -69 -139 -69q-42 0 -76.5 22t-54.5 64q-18 36 -18 84zM235 425q20 18 36 40q40 56 60 137q4 15 4 22q0 3 -1 3h-1q-1 0 -11 -10q-32 -34 -55.5 -83t-29.5 -92z" />
<glyph unicode="h" horiz-adv-x="807" d="M54 387q0 163 10 264q21 230 35 291q4 16 9 56q5 35 13 72q7 30 9 47q11 75 28 121q18 52 58 54q12 0 26 -6q18 -7 32.5 -35t19.5 -64q2 -20 2 -48q0 -70 -6 -127l-7 -76q-1 -9 -10 -89q-30 -270 -33 -450l-2 -108q12 19 36.5 59.5t32 53t25 40.5t25 37.5t21 28.5t23 29 t22.5 22.5t27 24.5q91 79 169 79q42 0 79 -25q31 -20 46 -64q8 -24 8 -47l-1 -49q-2 -91 -4 -258q0 -13 -1 -37q-1 -147 -8 -163q-4 -9 -18 -14q-2 -1 -3 -1q-15 -5 -27 -5q-20 0 -37 10q-25 14 -45 58t-28 103q-11 79 -11 271q0 67 -1 67h-1q-7 0 -39 -42t-54 -77 q-17 -30 -54.5 -113t-52.5 -125q-23 -62 -58 -115q-26 -37 -64 -54q-19 -8 -55 -8q-16 0 -21 2q-45 12 -68 53q-24 40 -37 129q-10 69 -10 228z" />
<glyph unicode="i" horiz-adv-x="315" d="M54 478q0 96 7 139q11 71 36 108q26 38 69 38l13 -1q42 -6 61 -43q21 -39 21 -121q0 -53 -6 -152q-6 -103 -6 -200q0 -69 2 -102v-15q0 -30 -3 -51q-4 -30 -12.5 -45t-27.5 -25q-16 -8 -36 -8q-19 0 -35 8q-31 15 -46.5 55t-23.5 122q-13 149 -13 293zM69 933l2 32 q5 61 30 90q24 28 64 28h18q12 -1 27 -10q46 -27 47 -110v-9q0 -43 -18 -69q-28 -39 -75 -39q-23 0 -45 11q-28 14 -43 48q-7 15 -7 28z" />
<glyph unicode="j" horiz-adv-x="545" d="M54 -91q0 45 33 45q11 0 16.5 -4.5t18.5 -23.5q15 -20 47 -24l15 -1q10 0 24 6q51 23 74 124q10 36 10 167q0 58 -3 123l-1 70q0 223 28 304q24 65 67 68q14 0 29 -6q44 -21 61 -122q18 -87 18 -247q0 -48 -3 -86q-11 -154 -21 -224.5t-28 -118.5q-33 -90 -88 -143 q-56 -58 -144 -58q-18 0 -41 5q-44 11 -70 38q-30 30 -40 85q-2 16 -2 23zM292 976q0 8 2 26q6 45 30 69q22 22 52 22h7q34 -3 56 -33q17 -26 23 -69q2 -14 2 -21q0 -34 -14.5 -61t-39.5 -38q-12 -6 -30 -6q-19 0 -31 6q-57 28 -57 105z" />
<glyph unicode="k" horiz-adv-x="718" d="M52 527q0 94 6 208q7 158 14 228q26 243 62 297q23 36 55 36h5q34 -3 55 -45q6 -15 9 -34q3 -15 3 -41q0 -39 -4 -128q-9 -183 -19 -311q-9 -119 -10 -158l-1 -15l2 -2q4 0 36 27q74 63 168 124q89 57 135 57h2q17 -2 26 -7q25 -15 25 -43v-3q-1 -34 -39 -71t-136 -100 q-120 -76 -126 -93l-1 -3q0 -7 4 -12q9 -15 45 -51.5t63 -58.5q61 -53 100 -69l26 -10q63 15 65 15q4 0 9 -3q16 -8 16 -25l-3 -10q-4 -12 -30 -34.5t-46 -30.5q-32 -15 -71 -15h-13q-68 2 -146 45q-47 28 -89 66q-19 19 -22 19l-1 -4q0 -12 6 -72q5 -57 5 -72v-11 q-1 -23 -10 -71q-6 -32 -28 -43q-15 -6 -29 -6q-3 0 -11 2q-27 10 -50 44q-18 29 -25 52q-20 68 -31 384q-1 12 -1 48z" />
<glyph unicode="l" horiz-adv-x="363" d="M54 673q0 130 5 178q3 24 5 61q10 143 41.5 229.5t78.5 99.5q10 2 15 2h1q54 0 74 -89q6 -28 6 -78q0 -46 -7 -123q-18 -161 -33 -389q-4 -55 -4 -190q0 -134 4 -167q7 -66 15.5 -89.5t27.5 -32.5q26 -11 26 -35q0 -22 -18.5 -36t-44.5 -14q-16 0 -27 5q-39 15 -73 48 q-37 35 -51.5 86t-22.5 171l-16 259q-2 46 -2 104z" />
<glyph unicode="m" horiz-adv-x="1024" d="M54 415q0 111 7 172q17 134 45.5 195t74.5 61q22 0 40 -15t26 -41q6 -19 6 -71q0 -49 -4 -93q-11 -118 -11 -209l1 -77q29 85 81 200q29 62 64.5 120t55.5 77q21 20 35 26t38 6q27 0 43 -8q29 -16 47 -47q16 -32 16 -109q0 -18 -2 -80l-3 -79q3 0 32 49q35 58 90.5 137 t72.5 94q32 27 67 27q29 0 52 -18t33 -51q9 -25 9 -65q0 -51 -21 -240q-19 -171 -19 -215q0 -23 5 -41q3 -14 3 -23q0 -18 -11 -30q-15 -16 -36 -16t-41 14t-32 37q-20 40 -33.5 119.5t-13.5 152.5l2 44q4 43 5 48l1 5q0 2 -1 2q-9 0 -45 -83q-46 -104 -71 -140.5t-59 -47.5 q-15 -5 -31 -5q-26 0 -48 10q-40 20 -59.5 68.5t-22.5 133.5l-2 50q-37 -79 -84 -236q-26 -90 -30 -101q-36 -122 -114 -122h-2q-20 0 -26 3q-42 12 -69 58q-9 17 -23.5 60.5t-19.5 72.5q-12 59 -15 96t-3 125z" />
<glyph unicode="n" horiz-adv-x="701" d="M54 266q0 122 6 183q4 59 16 128.5t22 95.5q15 41 39 54q10 7 21 7h9q35 -3 56 -42q8 -16 9.5 -24.5t2.5 -45.5v-18q0 -62 -11 -183q-5 -68 -5 -103q0 -16 1 -16q3 0 25 45q71 139 164 262q37 49 68 70t67 21q68 0 96 -78q7 -20 7 -98q0 -71 -7 -133l-15 -128 q-24 -220 -36 -245q-14 -25 -44 -25q-18 0 -32 10q-18 12 -29.5 38.5t-21.5 81.5q-10 50 -10 113q0 77 20 234l2 12q-20 -20 -59 -97t-72 -158q-42 -108 -59 -144.5t-33 -54.5q-33 -35 -74 -35q-11 0 -23 3q-42 11 -68 64q-23 49 -30 127q-2 30 -2 79z" />
<glyph unicode="o" horiz-adv-x="664" d="M54 343q0 118 42 215q50 118 131 170q29 19 64 20l43 5q10 2 32 2q56 -2 100 -26q35 -20 59.5 -50t52.5 -85q32 -62 32 -163q0 -56 -24 -129q-48 -144 -152 -217q-50 -35 -91 -47q-25 -7 -63 -7q-22 0 -37 3q-16 3 -50 19q-30 15 -55 40q-33 34 -58 95q-26 67 -26 155z M227 367q1 -99 34 -134q15 -16 26 -16q8 0 24 8q17 9 43.5 36t39.5 49q28 46 37 96q6 30 6 56q0 66 -34 100q-25 25 -72 28h-17q-15 0 -23 -7q-13 -13 -23 -35q-41 -85 -41 -181z" />
<glyph unicode="p" horiz-adv-x="718" d="M54 341q0 409 54 521q18 40 52 40h2q31 0 50 -37q17 -37 17 -164q0 -95 -3 -133t-3 -80v-34q61 165 107.5 238t112.5 93q17 5 37 5h15q31 -2 51.5 -11t44.5 -33q23 -22 37 -52q35 -75 35 -176q0 -76 -19 -142q-10 -35 -30 -77t-36 -61q-37 -44 -78 -63q-40 -20 -78 -20 q-34 0 -73 16l-24 8l-13 -83q-4 -29 -8.5 -64.5t-8.5 -65.5t-8 -67q-10 -83 -24 -117.5t-44 -48.5q-20 -10 -40 -10q-11 0 -20 3q-33 9 -51 37.5t-29 89.5q-21 116 -24 397zM348 295q0 -6 6 -6q8 0 34 12q37 19 54 49q35 61 35 165q0 81 -11 90h-2q-11 -2 -39 -65t-50 -136 q-27 -89 -27 -109z" />
<glyph unicode="q" horiz-adv-x="733" d="M54 313q0 69 9 116q24 129 80 206q13 18 38 40t42 30q32 17 85 17q22 0 42 -5q40 -10 72 -38q15 -13 17 -13q7 0 65 131q26 56 44.5 74t49.5 18q33 0 56 -23q25 -26 25 -84q0 -10 -2 -44q-11 -130 -43 -305q-23 -118 -39 -273l-6 -54q-7 -43 -16 -160l-8 -110 q-4 -41 -4 -82l2 -63q0 -17 -5 -29q-12 -24 -40 -24q-15 0 -30 9t-29 38q-30 61 -45 149q-6 38 -6 169t6 196l5 63q-4 0 -23 -28q-43 -63 -80 -91q-56 -47 -106 -47h-13q-27 1 -48 11q-23 11 -42.5 31t-30.5 42q-15 33 -18.5 54t-3.5 79zM225 313q15 13 30 35 q33 44 72.5 108.5t39.5 74.5v1q-4 3 -26 10t-28 7q-16 0 -31 -20q-25 -30 -41 -89q-16 -56 -16 -100v-27z" />
<glyph unicode="r" horiz-adv-x="604" d="M54 344l1 63q10 243 54 329q29 59 76 62h4q46 0 67 -51q12 -30 12 -71l-2 -49l-7 -87q51 93 86 129q24 23 40.5 31.5t38.5 9.5h11q11 0 28 -6q48 -22 78 -97q9 -24 9 -38q0 -21 -21 -32q-7 -5 -19 -5q-22 0 -51 25q-18 16 -24 16q-5 0 -20.5 -15.5t-24.5 -31.5 q-59 -94 -96 -315q-19 -109 -26 -133.5t-25 -44.5q-28 -33 -69 -33l-15 2q-20 5 -39.5 20.5t-29.5 36.5q-36 72 -36 285z" />
<glyph unicode="s" horiz-adv-x="541" d="M54 187q0 54 48 104q27 20 34 21q22 0 30 -21q2 -8 2 -13q0 -4 -5 -42l-2 -16q0 -24 8 -46.5t21 -29.5q13 -9 34 -9l16 2q40 10 62 40q8 11 8 24q0 41 -97 137q-96 93 -119 176q-7 26 -7 59q1 50 27 98q13 24 40 51.5t49 37.5q43 22 89 22h5q40 0 81 -19q26 -13 45 -31 q28 -29 37.5 -49t9.5 -50q0 -28 -6 -42q-10 -27 -28.5 -44t-38.5 -19h-7q-12 0 -18 7.5t-12 29.5q-8 26 -21 40q-26 29 -54 29q-14 0 -26 -10q-8 -6 -8 -17q0 -13 21 -43q18 -24 54 -52q57 -46 93 -95q68 -91 68 -186v-14q-3 -82 -64 -144q-46 -47 -121 -67q-26 -6 -49 -6 q-24 0 -51 6q-88 21 -122 88q-23 47 -25 82z" />
<glyph unicode="t" horiz-adv-x="673" d="M54 726q0 22 12 38q13 18 49 32t70 14q14 0 18 2q5 2 12 52q25 146 70 197q25 28 53 28q47 -2 70 -72q12 -43 15 -142q2 -53 3 -62.5t5 -10.5l40 -8q30 -5 62 -20t46 -30q16 -17 16 -37q0 -39 -51 -54q-37 -12 -76 -12l-49 3q-4 -61 -4 -88q0 -126 9 -205 q15 -114 37 -154q10 -19 17 -19q3 0 13 8q23 23 46 81q14 36 24 49.5t22 13.5q16 0 22 -9.5t11 -41.5q3 -18 3 -41q0 -67 -18 -124q-18 -52 -48 -82q-50 -49 -114 -49q-20 0 -37 4q-69 15 -120 82q-27 36 -45 90q-25 77 -33.5 148.5t-10.5 212.5l-1 125q-117 12 -135 63 q-3 9 -3 18z" />
<glyph unicode="u" horiz-adv-x="665" d="M54 405q0 142 26 237q13 48 27 71.5t36 34.5q18 7 29 7h4q23 -1 41.5 -19.5t25.5 -50.5q4 -20 4 -177q1 -158 8 -192q8 -32 9 -33h1q1 0 6 5q18 27 85 164q66 139 83 167t41 39q14 7 27 7l11 -1q53 -3 77 -51q10 -19 13 -41t3 -84l-2 -161q-4 -234 -21 -266 q-18 -35 -56 -35q-16 0 -29 7q-21 10 -35 39t-29 91q-3 10 -6 22.5t-5 18.5l-2 6l-14 -30q-25 -60 -68 -92.5t-95 -32.5h-13q-95 8 -140 101q-36 73 -41 200z" />
<glyph unicode="v" horiz-adv-x="706" d="M54 521q0 72 12 106q23 60 78 60q55 -1 83 -63q26 -55 44 -182q20 -135 30 -155q2 0 16 25t34 66t38 80q53 111 143 246q27 38 35 48.5t20 17.5q8 7 23 9h4q15 0 26.5 -11t11.5 -28q0 -12 -34 -116q-46 -135 -82 -213q-36 -80 -69 -176q-46 -132 -81 -167 q-34 -34 -74 -41q-16 -3 -24 -3q-10 0 -27 4q-36 8 -65 34q-33 29 -61 91q-27 57 -49.5 149.5t-29.5 172.5q-2 30 -2 46z" />
<glyph unicode="w" horiz-adv-x="806" d="M54 524l1 46q5 126 36 169q20 32 58 32q49 0 75 -49q15 -31 21 -79t10 -188q5 -143 9 -143l1 1q6 6 54 118q23 53 51 69q16 10 40 10t39 -7q31 -16 51.5 -58.5t53.5 -155.5q18 -65 21 -72l1 -1q6 0 30 81q19 68 26 117.5t7 124.5q0 26 -2 124l-2 57q0 42 15 56 q13 11 25 11q24 -2 39 -30q19 -35 26.5 -75t10.5 -120l1 -71q0 -75 -9 -165q-7 -56 -23 -121.5t-30 -95.5q-21 -44 -52.5 -67t-65.5 -23q-62 0 -106 66q-15 21 -20 33q-20 40 -40 122q-7 29 -9 31q-4 0 -17 -49q-33 -111 -54 -150.5t-55 -57.5q-22 -10 -51 -10q-20 0 -29 4 q-29 9 -51 36q-57 71 -73 250q-2 36 -6 60q-7 46 -7 170z" />
<glyph unicode="x" horiz-adv-x="626" d="M54 40q0 29 7 51q23 93 108 235q30 52 30 58q0 7 -25 53q-44 87 -79 172q-21 54 -21 99q0 43 30 65q14 9 35 9q22 0 37 -9.5t36 -36.5q35 -46 84 -160q11 -23 14 -23q3 2 30 39q40 56 88 112q34 39 51 51.5t36 12.5q24 0 40.5 -15.5t16.5 -38.5q0 -21 -23 -58 q-105 -175 -148 -261l-12 -24q48 -104 110 -196q57 -85 57 -116q0 -11 -4 -19q-13 -25 -42 -25q-33 0 -71 31q-18 15 -58.5 64.5t-63.5 85.5q-14 18 -15 18q-3 0 -30 -47q-72 -123 -106 -159q-27 -32 -59 -32q-11 0 -19 4q-21 9 -30 31q-4 9 -4 29z" />
<glyph unicode="y" horiz-adv-x="658" d="M54 465q0 98 22 171q14 47 27 69t35 32q11 5 24 7h5q36 0 58 -33q17 -30 20 -118q4 -112 10 -126q2 -5 4 -5q4 0 39.5 46.5t54.5 77.5q34 55 65 91q26 27 61 27q21 0 40 -10q25 -12 38.5 -34t24.5 -67q10 -39 19 -150q3 -39 3 -181t-3 -193q-13 -210 -84 -348 q-40 -79 -99 -123q-60 -44 -118 -44q-18 0 -30 4q-44 11 -76 45t-32 110q0 38 20 51q9 6 18 6q16 0 38 -31q32 -47 49 -47q14 0 37 26q32 34 56 100t32 138q12 106 12 347q0 87 -4 87q-2 0 -13 -21q-43 -85 -92 -118q-46 -30 -94 -30q-13 0 -24 3q-47 10 -82.5 51t-51.5 102 q-9 30 -9 88z" />
<glyph unicode="z" horiz-adv-x="652" d="M54 100q0 50 41 118q18 30 85.5 126.5t95.5 133.5q21 26 57.5 77t36.5 54q0 2 -84 2l-53 -1q-35 0 -49 5q-46 13 -46 48q0 33 43 57q45 24 147 45q50 10 95 10h10q47 0 74.5 -8.5t50.5 -29.5q40 -37 40 -88q0 -35 -20 -77q-18 -37 -51 -77t-137 -151q-69 -75 -87 -97 q-17 -21 -42.5 -56.5t-25.5 -38.5q0 -2 45 -2q54 0 112.5 -8t79.5 -18q31 -16 31 -44q0 -19 -17 -33q-19 -16 -93 -35q-105 -27 -194 -27l-33 2q-92 13 -110 95z" />
<glyph unicode="{" horiz-adv-x="1073" d="M134 452q0 15 8 31q4 8 13 17q31 31 144 49q44 8 71 11q39 4 77 5h29q36 0 53 -1q22 -1 62 -8q31 -4 52 -11q19 -7 35 -19q10 -8 18 -15q21 -22 21 -47q0 -20 -12 -39q-5 -8 -12 -14q-31 -29 -114 -41q-28 -5 -59 -7q-36 -2 -76 -2q-57 1 -120 6q-64 5 -110 12 q-42 6 -61 27q-5 5 -8 11q-11 19 -11 35zM437 1140q0 7 2 17q17 53 69 53q11 0 23 -3q22 -3 38 -12q23 -13 44 -30q24 -17 52 -43q23 -21 53 -56q31 -34 50 -59q20 -26 40 -59q64 -92 64 -137q0 -14 -4 -23q-12 -35 -50 -43q-4 -1 -13 -1q-30 0 -62 25q-37 30 -84 72 q-41 37 -87 83q-33 36 -51 57q-10 12 -35 47q-49 72 -49 112zM440 -172q0 43 64 137q20 33 40 59q35 43 50 59q30 35 53 56q24 22 52 43q21 17 44 30q16 9 38 12q12 3 23 3q52 0 69 -53q2 -10 2 -17q0 -42 -49 -112q-25 -35 -35 -47q-17 -21 -51 -57q-42 -44 -87 -83 q-47 -42 -84 -72q-32 -25 -62 -25q-9 0 -13 1q-36 7 -50 43q-4 14 -4 23z" />
<glyph unicode="|" horiz-adv-x="311" d="M54 882q0 133 17 272q17 157 49 194q17 21 39 21q23 0 46 -25q51 -60 51 -301q0 -98 -8 -268q-14 -238 -14 -452l2 -214q0 -62 -20 -93q-17 -22 -43 -22q-6 0 -14 2q-16 4 -32 24.5t-26 46.5q-15 38 -30 173q-9 72 -13 361z" />
<glyph unicode="}" horiz-adv-x="1087" d="M211 157q0 7 2 17q15 53 69 53q11 0 23 -3q22 -3 38 -12q23 -13 44 -30q18 -13 52 -43q23 -21 53 -56q24 -27 49 -59q20 -24 41 -59q63 -93 63 -137q0 -12 -3 -23q-14 -36 -50 -43q-5 -1 -14 -1q-29 0 -61 25q-37 30 -84 72q-45 39 -87 83q-34 36 -51 57q-19 22 -35 47 q-49 70 -49 112zM214 811q0 45 64 137q14 26 40 59q19 25 50 59q30 35 53 56q28 26 52 43q24 20 44 30q17 9 38 12q12 3 23 3q52 0 69 -53q1 -5 1 -17q0 -42 -48 -112q-17 -24 -35 -47q-18 -21 -51 -57q-46 -46 -87 -83q-29 -26 -84 -72q-34 -25 -62 -25q-9 0 -13 1 q-38 8 -50 43q-4 9 -4 23zM369 464q0 24 21 47q8 7 18 15q15 12 35 19q21 7 52 11q40 7 67 8q14 1 48 1h29q38 -1 77 -5q27 -3 71 -11q112 -18 143 -49q9 -8 14 -17q8 -16 8 -31q0 -16 -11 -35q-1 -1 -3.5 -5t-4.5 -6q-19 -21 -61 -27q-46 -7 -110 -12q-63 -5 -120 -6 q-40 0 -76 2q-31 2 -59 7q-83 12 -114 41q-7 6 -12 14q-12 19 -12 39z" />
<glyph unicode="~" horiz-adv-x="780" d="M54 494q1 61 31 111t79 73q41 18 95 18h13q26 0 58 -9q42 -12 68.5 -27t64.5 -46q78 -65 113 -65q23 0 33 22.5t10 77.5q0 34 1.5 42t7.5 12q8 6 22 6q33 0 52 -40q24 -59 24 -106q0 -103 -107 -150l-34 -16l-40 -1q-41 0 -60 5q-51 14 -102 50q-11 7 -60 47 q-31 27 -48.5 36t-39.5 10q-19 0 -30 -9q-21 -19 -46 -79q-10 -22 -20 -30t-27 -8q-33 0 -49 29q-9 16 -9 47z" />
<glyph unicode="&#xa1;" horiz-adv-x="335" d="M54 209q0 79 9 203q1 17 6 141q6 170 17 239q18 109 28.5 146.5t27.5 49.5q12 9 29 9q13 0 22 -6q43 -26 70 -147q13 -55 15.5 -91.5t2.5 -163.5t-3.5 -185t-15.5 -137q-25 -157 -57 -220q-23 -47 -61 -47h-6q-14 2 -27 10q-31 18 -44 62.5t-13 136.5zM79 1145v13 q0 37 21 82q27 53 55 66q12 5 23 5q19 0 34 -9q38 -18 55 -78q7 -24 7 -50q0 -56 -29.5 -96t-71.5 -40h-7q-14 1 -31 9q-51 26 -56 98z" />
<glyph unicode="&#xa2;" horiz-adv-x="792" d="M54 619v32q0 67 18 138q24 89 73 160q59 87 146 129q21 11 23 14l1 4l-3 24q-3 31 -3 66q0 46 5 66q22 80 78 80q13 0 22 -4q15 -5 29 -19.5t20 -32.5q10 -21 10 -59q0 -27 -6 -57l-7 -38q0 -3 20 -7q94 -19 153 -105q34 -49 34 -105q0 -37 -17 -90q-25 -79 -57 -125 t-61 -46l-12 2q-12 4 -17 15q-3 8 -3 12q0 7 19 52q27 60 27 110q0 43 -21 74q-27 38 -73 38q-70 0 -136 -67q-56 -56 -82 -150q-7 -27 -7 -76q0 -44 4 -64.5t18 -49.5q11 -22 33.5 -51t35.5 -38q46 -31 120 -31q40 0 78 11q42 14 79 36.5t54 42.5q17 22 37 22q17 0 31 -12 t19 -31q2 -4 2 -15q0 -46 -38 -108q-26 -46 -81 -86.5t-111 -56.5q-19 -6 -20 -7q-2 -1 -6 -85q-3 -84 -10 -97q-16 -33 -50 -34h-8q-11 0 -28 7q-62 32 -66 162q-2 47 -5 49q-3 3 -16 7q-65 20 -123 77q-67 67 -98 160q-23 67 -24 157z" />
<glyph unicode="&#xa3;" horiz-adv-x="1082" d="M54 -23q0 35 27 77q46 76 145 127q61 31 115 44l34 8q3 10 8 21t6.5 15.5t2.5 12t1 18.5v14q0 30 -11 69q-21 67 -62 148l-10 18q-162 5 -187 11q-27 7 -34 27q-2 6 -2 11q0 16 12 33q26 33 120 50q29 6 29 10q0 9 -15 54q-20 65 -25 130l-1 36q0 117 31 201 q17 50 61 123q71 113 174 164q69 34 127 34q59 0 110 -27q31 -16 60.5 -47t43.5 -62q9 -22 15 -45q8 -32 8 -78t-8 -81q-18 -87 -77 -165q-25 -33 -52 -33q-12 0 -22 10q-12 12 -12 26q0 17 13 70q13 58 13 94l-1 24q-13 106 -66 122l-12 2q-23 0 -53 -15.5t-55 -40.5 q-37 -37 -64 -92q-29 -61 -32 -129l-1 -23q0 -42 10.5 -73t40.5 -82q27 -46 33 -60q10 -18 13 -19q20 0 40 2q16 2 59 2q78 0 100 -7q37 -10 51 -37q8 -16 8 -31q0 -43 -50 -66q-40 -17 -99 -23q-27 -2 -27 -4q0 -3 16 -44q14 -38 19 -61t9 -69q2 -17 2 -42q0 -20 -2 -30 q-6 -51 -26 -89q-3 -6 -3 -8q0 -3 2 -5q5 -4 59.5 -25.5t76.5 -27.5q32 -8 57 -8q20 0 67 7q41 8 60.5 16t50.5 30q11 8 22 8q13 0 22 -11t9 -28v-7q-4 -41 -79 -116q-41 -43 -112 -61q-61 -14 -89 -14l-27 2q-56 6 -170 49q-107 39 -162 39q-27 0 -62 -8q-76 -19 -167 -79 q-58 -39 -69 -39q-3 0 -15 6q-22 12 -22 47z" />
<glyph unicode="&#xa4;" />
<glyph unicode="&#xa5;" />
<glyph unicode="&#xa6;" />
<glyph unicode="&#xa7;" />
<glyph unicode="&#xa8;" horiz-adv-x="546" d="M54 955q0 35 7 62q25 85 71 109q11 6 32 8h8q14 0 23 -4q14 -5 28 -21t19 -31q5 -18 5 -42q0 -84 -29 -137q-14 -28 -42 -42q-14 -7 -39 -7q-17 0 -30 5q-28 13 -44 44q-9 19 -9 56zM299 955q0 35 7 62q25 85 71 109q11 6 32 8h8q14 0 23 -4q14 -5 28 -21t19 -31 q5 -18 5 -41q0 -80 -29 -138q-14 -28 -42 -42q-14 -7 -39 -7q-17 0 -30 5q-30 14 -44 44q-9 19 -9 56z" />
<glyph unicode="&#xa9;" horiz-adv-x="858" d="M144 1266q0 14 2 32q1 18 8 48q3 14 11 43q24 63 64 106q37 38 69 55q16 6 23 9l28 7q8 2 11 3q8 0 13 1q11 0 19 -1h13q5 0 11 -0.5t10 -1t7 -0.5q44 -9 80 -31q53 -32 87 -86q21 -34 29 -82q2 -22 2 -35q0 -12 -1 -19q0 -13 -2 -31q-2 -21 -9 -48q-8 -31 -13 -43 q-22 -53 -57 -94t-66 -56q-9 -7 -21 -10q-10 -4 -29 -9q-8 -2 -11 -3t-12 -1q-5 -1 -20 -1h-13q-16 0 -28 2q-43 8 -81 28q-53 29 -89 83q-23 37 -32 82q-3 24 -3 53zM217 1266q0 -16 1 -35q1 -29 33 -61l2 -2q21 -21 40 -31q23 -12 58 -19q13 -3 33 -3q14 0 27 1 q19 0 46 12q2 1 7 4.5t8 5.5q7 4 16 13q20 17 30 34q9 15 22 48q17 41 18 88q-2 59 -39 99q-14 15 -34 28q-20 11 -58 21q-20 4 -44 4q-41 0 -72 -16q-2 -1 -7 -4.5t-8 -5.5q-5 -3 -16 -14q-20 -20 -28 -34q-10 -19 -21 -48q-14 -39 -14 -85zM282 1267q0 9 1 12q2 13 3 20 q2 10 7 21q13 38 41 65q2 2 8 6t9 7q7 6 15 9q13 7 29 7q25 0 45 -16q19 -16 19 -41q0 -7 -1 -10q-1 -5 -6 -13q-2 -3 -10 -14q-14 -11 -24 -11q-6 0 -11 6q-1 1 -1 3q0 1 2 7q2 12 2 19q0 6 -2 12q-1 3 -5 7l-6 3h-1q-5 0 -13 -5q-6 -4 -16 -14q-25 -31 -25 -67 q0 -17 4 -29q8 -25 24 -33h8q12 0 32 11q13 7 20 19q12 16 25 16q11 0 17 -12q1 -2 1 -7q0 -11 -7 -21q-19 -37 -54 -55q-19 -10 -43 -10q-7 0 -10 1q-34 3 -57 35q-20 34 -20 72z" />
<glyph unicode="&#xaa;" />
<glyph unicode="&#xab;" />
<glyph unicode="&#xac;" />
<glyph unicode="&#xad;" horiz-adv-x="669" d="M54 544q0 19 7 30q5 10 20 19q37 22 91 31q24 5 69 6q16 1 47 1q91 0 109 -4q12 -3 34 -3q5 0 13 -1t16 -2.5t10 -1.5q18 -4 25 -4q20 -3 57 -17q42 -18 57 -54q6 -8 6 -26q0 -21 -16 -31q-1 0 -4.5 -1.5t-5.5 -2.5q-27 -9 -53 -9h-28q-29 0 -44 2l-72 5q-14 1 -43 3 t-37 2l-46 2q-75 0 -118 -12q-19 -4 -26 -7q-11 -3 -19 -3q-26 3 -41 38l-5 16q-3 12 -3 24z" />
<glyph unicode="&#xae;" horiz-adv-x="1006" d="M208 764q0 17 2 41q3 23 11 62q9 43 14 56q33 85 82 135q48 51 89 71q14 7 29 12q12 4 37 9q2 0 6.5 1t7.5 2q2 1 7.5 1.5t8.5 0.5q14 0 25 -1h17l36 -3q54 -11 102 -39q68 -40 112 -111q28 -45 37 -106q3 -21 3 -44q0 -4 -0.5 -12.5t-0.5 -12.5q0 -22 -3 -40 q-3 -28 -12 -62q-11 -42 -16 -55q-30 -69 -73 -121t-85 -72q-22 -11 -28 -13q-21 -7 -36 -11q-10 -2 -14 -3q-10 -2 -16 -2q-7 -1 -26 -1h-17q-20 0 -36 2q-53 9 -103 36q-72 40 -115 107q-31 48 -41 105q-4 28 -4 68zM302 764q0 -19 1 -45q2 -38 43 -78l2 -3q26 -27 52 -40 q9 -5 36 -14q-7 8 -12 19q-32 61 -38 193q-1 17 -1 48q0 65 11 123q5 22 9 32l-1 -1q-12 -10 -21 -19q-22 -20 -36 -44q-13 -23 -27 -62q-18 -48 -18 -109zM424 1010q4 -2 6 -4q4 -5 5 -17q1 -3 1 -13v-28v-54q0 -44 1 -58q0 -26 1 -35q0 -10 2 -26q0 -5 1 -5l1 14v10 q0 8 1 12v5q11 106 48 164q19 28 45 37q7 3 16 3q14 0 27 -6q11 -5 20 -14q11 -13 14 -20q17 -36 17 -86q0 -16 -1 -22q-3 -20 -4 -23l-4 -20q-2 -6 -8 -18q-26 -50 -67 -63q2 -4 8 -14t9 -16q3 -5 9.5 -15.5t9.5 -15.5l12 -20q14 -18 21 -24q7 -5 11 -5h4q9 0 12 -7 q2 -3 2 -8q0 -4 -1 -6q-2 -4 -3 -5l10 10q24 19 38 43t29 62q21 49 23 113q-1 74 -50 127q-23 25 -44 36q-24 13 -74 27q-25 5 -56 5q-53 0 -92 -20zM475 574q15 -4 43 -4h18q42 2 74 17q14 8 20 12q-1 -1 -3.5 -1.5t-3.5 -0.5q-4 -1 -10 -1h-7q-5 0 -14 3q-9 2 -17 7 q-9 6 -22 22q-19 23 -36 47q-3 5 -7 11t-10 14.5t-9 13.5q1 -11 3 -35q3 -30 3 -52q0 -19 -1 -24q-5 -16 -13 -23q-5 -5 -8 -6zM489 785q0 -1 1 -1l8 1q9 2 24 10t25 20q9 12 13 29q5 12 6 22q1 4 1.5 14t0.5 15v10q0 36 -8 50q-1 3 -5 9q-4 4 -7 4q-4 0 -8 -3l-9 -9 q-36 -39 -42 -151v-20z" />
<glyph unicode="&#xaf;" horiz-adv-x="598" d="M54 939q0 29 24 43q51 30 139 32q14 1 41 1q69 0 96 -3q3 -1 15 -2t27.5 -2.5t21.5 -2.5q14 -4 21 -4q17 -3 50 -15q26 -11 40.5 -30.5t14.5 -38.5q0 -25 -23 -31q-20 -8 -46 -8h-24q-29 0 -98.5 5.5t-113.5 6.5q-35 0 -67 -5t-51.5 -9.5t-23.5 -4.5q-19 2 -31 22.5 t-12 45.5z" />
<glyph unicode="&#xb0;" horiz-adv-x="523" d="M54 993q0 58 21 101q13 26 41 56q43 46 92 65q26 10 51 10t54 -10q35 -13 52 -21q55 -26 79.5 -69.5t24.5 -113.5q0 -55 -19 -95q-13 -26 -35 -48q-31 -31 -77.5 -49.5t-90.5 -18.5l-20 1q-51 4 -97 37q-47 33 -69 94q-7 20 -7 61zM158 972q0 -22 15 -41.5t37 -27.5 q12 -3 32 -3q53 0 79 13q21 11 29.5 21.5t12.5 31.5l2 21q0 54 -60 117q-25 21 -28 21q-7 0 -32 -21t-43 -42q-39 -46 -43 -82z" />
<glyph unicode="&#xb1;" horiz-adv-x="677" d="M54 193q0 19 7 30q4 9 20 19q35 20 91 31l20 4q5 1 18 1q16 0 27 1h4q8 1 26 1h21h37q8 0 23 -0.5t22 -1.5l27 -2q1 0 3 -0.5t5 -1t6 -0.5q6 -1 20 -1q20 -2 30 -4q4 -1 9 -1q3 0 7.5 -1t6.5 -2q5 -1 11 -1q1 0 26 -7l16.5 -5.5t14.5 -4.5q42 -18 57 -54q3 -4 5 -13 q1 -5 1 -13q0 -21 -16 -31l-4 -2l-6 -2q-12 -4 -26 -6q-17 -3 -27 -3h-28q-10 0 -19 1q-17 0 -25 1l-72 5q-15 1 -49 3q-5 0 -15.5 0.5t-15.5 1.5l-46 2q-34 0 -66 -3q-33 -3 -52 -9q-2 -1 -6.5 -2t-7.5 -1q-2 0 -4.5 -1t-4.5 -2t-3 -1q-2 -1 -5.5 -1.5t-5.5 -0.5 q-4 -1 -8 -1q-27 5 -41 38l-5 16q-3 13 -3 24zM62 629q0 18 6 30q6 10 21 19q33 20 90 31q5 1 12 2.5t9 1.5q5 1 18 1q16 0 27 1h3q7 1 21 1q-4 57 -16 91q-1 3 -2.5 8t-1.5 7q-1 2 -1.5 4.5t-1.5 4.5t-1 3q-2 6 -3 10q-2 6 -2 8q3 26 36 43q24 10 39 10q21 0 30 -4 q10 -4 21 -20q23 -35 36 -89q6 -24 7 -37l3 -31l2 -14h4q7 -1 20 -1q20 -2 30 -4q4 -1 10 -1q2 0 7 -1t7 -2q4 -1 10 -1q1 0 26 -7q5 -1 15.5 -5t16.5 -5q43 -18 56 -54q5 -6 6 -13q1 -5 1 -13q0 -21 -16 -31l-4 -2q-1 -1 -3.5 -1.5t-3.5 -0.5q-10 -3 -25 -6q-17 -3 -28 -3 h-27q-11 0 -20 1q-17 0 -25 1l-53 4l-1 -31q0 -10 -2 -30v-10q-3 -10 -3 -24q-1 -20 -14 -59q-15 -43 -50 -60q-10 -7 -26 -7q-21 0 -32 14q0 3 -1 5q-1 1 -3 5q-12 28 -13 66l-1 55v84q-34 0 -65 -3t-51 -9q-3 -1 -7 -2t-7 -1q-2 0 -13 -4q-1 0 -5 -1t-5 -1q-4 -1 -8 -1 q-27 4 -42 38l-5 16q-2 18 -2 24z" />
<glyph unicode="&#xb4;" horiz-adv-x="542" d="M54 847q0 29 45 97q24 39 63 83q38 42 74 70q33 24 58 29q10 2 16 2q40 0 48 -37q2 -8 2 -12q0 -29 -35 -79q-20 -32 -60 -73q-63 -64 -121 -109q-22 -18 -43 -18q-6 0 -9 1q-27 5 -35 30q-3 7 -3 16z" />
<glyph unicode="&#xb7;" horiz-adv-x="303" d="M54 537q0 56 29.5 96t71.5 40q19 0 38 -10q51 -26 56 -98v-13q0 -37 -21 -82q-28 -55 -55 -66q-9 -4 -23 -4q-16 0 -34 8q-38 18 -55 78q-7 24 -7 51z" />
<glyph unicode="&#xb8;" horiz-adv-x="485" d="M54 -418q0 28 20 46q10 8 17.5 10.5t35.5 3.5q68 5 94 25q26 19 29 51l1 9q0 8 -7 16t-18 8l-58 -2q-25 0 -43 9q-36 16 -49 54q-8 21 -10 52q-3 18 -3 29q0 10 5 37q5 30 17.5 69t19.5 49q19 25 45 25q15 0 30 -9q18 -11 27.5 -39t16.5 -87l4 -36q56 -4 86 -14t61 -42 q56 -56 56 -144q0 -34 -11 -63q-19 -52 -53 -87q-63 -67 -152 -70q-37 0 -41 1q-85 21 -110 62q-10 17 -10 37z" />
<glyph unicode="&#xbf;" horiz-adv-x="855" d="M54 313q0 63 20 135q17 59 43 107.5t84 132.5q35 51 58 89q28 49 61 131t38 112q6 38 28 49q12 6 31 6q16 0 24 -4q27 -12 44 -50.5t17 -85.5q0 -68 -46.5 -170t-128.5 -217q-37 -52 -63.5 -113t-31.5 -106l-2 -27q0 -81 65 -122q35 -20 79 -23h11q50 0 117 43 q32 21 63.5 54t45.5 61q20 40 20 87q0 19 -5 41q-8 30 -28.5 60.5t-43.5 46.5q-17 11 -22 21l-2 10q0 16 15 33q25 25 61 25q52 0 107 -50q56 -51 79 -127q9 -27 9 -67q0 -87 -40 -161q-45 -80 -136 -145q-95 -69 -176 -85q-30 -4 -56 -4q-27 0 -57 4q-74 14 -141 55.5 t-99 92.5q-42 66 -42 161zM329 1241v13q0 41 21 82q27 55 55 67q14 4 23 4q17 0 35 -8q37 -18 54 -79q7 -24 7 -50q0 -56 -29.5 -95.5t-70.5 -39.5h-8q-14 1 -31 9q-51 25 -56 97z" />
<glyph unicode="&#xc0;" horiz-adv-x="788" d="M54 372q0 87 11 191q16 140 54 300.5t80 261.5q14 33 38.5 81.5t37.5 66.5q93 131 197 132h14q43 -2 83.5 -27t64.5 -63q48 -75 62 -212q5 -45 5 -179q0 -112 -4 -156q-5 -52 -7 -119l-7 -121q-3 -52 -3 -165q0 -115 4 -177q8 -134 31 -155q20 -18 20 -43q0 -15 -7 -25 q-16 -26 -57 -26q-11 0 -23 3q-48 13 -90 90q-21 39 -39 104q-23 78 -26 230q-1 86 -5 86l-23 -4q-24 -4 -141 -4q-122 0 -124 -2t-7 -66l-6 -73q-1 -6 -5 -83q-4 -104 -10 -136.5t-21 -40.5q-10 -5 -16 -5q-7 0 -19 7q-21 14 -37 81q-25 111 -25 248zM220 585q0 -6 6 -6 q8 0 25 4q83 17 155 17q53 0 81 -8l5 -1q3 0 3 16q0 21 7 144q6 126 6 199q0 74 -6 128q-7 65 -18 104t-22 39q-16 0 -45.5 -36.5t-53.5 -84.5q-63 -127 -108 -325q-35 -169 -35 -190zM269 1773q0 4 2 12q8 37 48 37q6 0 16 -2q25 -5 58 -29q40 -32 74 -70q39 -44 63 -83 q45 -68 45 -97q0 -6 -2 -16q-9 -25 -36 -30q-3 -1 -9 -1q-19 0 -43 18q-58 45 -121 109q-40 41 -60 73q-35 50 -35 79z" />
<glyph unicode="&#xc1;" horiz-adv-x="788" d="M54 372q0 87 11 191q16 140 54 300.5t80 261.5q14 33 38.5 81.5t37.5 66.5q93 131 197 132h14q43 -2 83.5 -27t64.5 -63q48 -75 62 -212q5 -45 5 -179q0 -112 -4 -156q-5 -52 -7 -119l-7 -121q-3 -52 -3 -165q0 -115 4 -177q8 -134 31 -155q20 -18 20 -43q0 -15 -7 -25 q-16 -26 -57 -26q-11 0 -23 3q-48 13 -90 90q-21 39 -39 104q-23 78 -26 230q-1 86 -5 86l-23 -4q-24 -4 -141 -4q-122 0 -124 -2t-7 -66l-6 -73q-1 -6 -5 -83q-4 -104 -10 -136.5t-21 -40.5q-10 -5 -16 -5q-7 0 -19 7q-21 14 -37 81q-25 111 -25 248zM220 585q0 -6 6 -6 q8 0 25 4q83 17 155 17q53 0 81 -8l5 -1q3 0 3 16q0 21 7 144q6 126 6 199q0 74 -6 128q-7 65 -18 104t-22 39q-16 0 -45.5 -36.5t-53.5 -84.5q-63 -127 -108 -325q-35 -169 -35 -190zM355 1551q0 27 45 97q24 39 63 83q38 41 74 70q33 24 58 29q12 2 16 2q39 0 49 -37 q1 -4 1 -12q0 -28 -34 -79q-22 -32 -61 -73q-66 -67 -120 -109q-24 -18 -44 -18q-6 0 -9 1q-27 5 -35 30q-3 7 -3 16z" />
<glyph unicode="&#xc2;" horiz-adv-x="788" d="M54 372q0 87 11 191q16 140 54 300.5t80 261.5q14 33 38.5 81.5t37.5 66.5q93 131 197 132h14q43 -2 83.5 -27t64.5 -63q48 -75 62 -212q5 -45 5 -179q0 -112 -4 -156q-5 -52 -7 -119l-7 -121q-3 -52 -3 -165q0 -115 4 -177q8 -134 31 -155q20 -18 20 -43q0 -15 -7 -25 q-16 -26 -57 -26q-11 0 -23 3q-48 13 -90 90q-21 39 -39 104q-23 78 -26 230q-1 86 -5 86l-23 -4q-24 -4 -141 -4q-122 0 -124 -2t-7 -66l-6 -73q-1 -6 -5 -83q-4 -104 -10 -136.5t-21 -40.5q-10 -5 -16 -5q-7 0 -19 7q-21 14 -37 81q-25 111 -25 248zM220 585q0 -6 6 -6 q8 0 25 4q83 17 155 17q53 0 81 -8l5 -1q3 0 3 16q0 21 7 144q6 126 6 199q0 74 -6 128q-7 65 -18 104t-22 39q-16 0 -45.5 -36.5t-53.5 -84.5q-63 -127 -108 -325q-35 -169 -35 -190zM222 1607v2q1 13 11 29q10 17 33 41q14 16 36.5 42.5t31 36t22 23.5t24 21t22.5 12 q18 7 30 7l19 -1q27 -2 41.5 -7.5t39.5 -21.5q60 -40 91 -71t46 -68q8 -18 8 -32l-1 -4q0 -23 -17 -35q-13 -10 -32 -10q-35 4 -90 45q-22 18 -81 72q-18 18 -24 18q-12 0 -76 -60q-67 -63 -89 -70q-3 0 -7 -1q-5 -1 -7 -1q-3 0 -13 5q-18 11 -18 28z" />
<glyph unicode="&#xc3;" horiz-adv-x="788" d="M54 372q0 87 11 191q16 140 54 300.5t80 261.5q14 33 38.5 81.5t37.5 66.5q93 131 197 132h14q43 -2 83.5 -27t64.5 -63q48 -75 62 -212q5 -45 5 -179q0 -112 -4 -156q-5 -52 -7 -119l-7 -121q-3 -52 -3 -165q0 -115 4 -177q8 -134 31 -155q20 -18 20 -43q0 -15 -7 -25 q-16 -26 -57 -26q-11 0 -23 3q-48 13 -90 90q-21 39 -39 104q-23 78 -26 230q-1 86 -5 86l-23 -4q-24 -4 -141 -4q-122 0 -124 -2t-7 -66l-6 -73q-1 -6 -5 -83q-4 -104 -10 -136.5t-21 -40.5q-10 -5 -16 -5q-7 0 -19 7q-21 14 -37 81q-25 111 -25 248zM193 1612 q1 61 28 111.5t71 72.5q37 18 85 18h12q24 0 52 -9q38 -12 62 -27t58 -46q69 -65 101 -65q21 0 30 22.5t9 77.5q0 34 1.5 42t6.5 12q6 6 20 6q30 0 46 -40q22 -57 22 -106q0 -103 -96 -150l-31 -16l-36 -1q-36 0 -54 5q-46 15 -91 50q-8 6 -54 47q-28 27 -43.5 36t-35.5 10 q-17 0 -27 -9q-18 -18 -42 -79q-8 -22 -17 -30t-25 -8q-29 0 -44 29q-8 16 -8 47zM220 585q0 -6 6 -6q8 0 25 4q83 17 155 17q53 0 81 -8l5 -1q3 0 3 16q0 21 7 144q6 126 6 199q0 74 -6 128q-7 65 -18 104t-22 39q-16 0 -45.5 -36.5t-53.5 -84.5q-63 -127 -108 -325 q-35 -169 -35 -190z" />
<glyph unicode="&#xc4;" horiz-adv-x="788" d="M54 372q0 87 11 191q16 140 54 300.5t80 261.5q14 33 38.5 81.5t37.5 66.5q93 131 197 132h14q43 -2 83.5 -27t64.5 -63q48 -75 62 -212q5 -45 5 -179q0 -112 -4 -156q-5 -52 -7 -119l-7 -121q-3 -52 -3 -165q0 -115 4 -177q8 -134 31 -155q20 -18 20 -43q0 -15 -7 -25 q-16 -26 -57 -26q-11 0 -23 3q-48 13 -90 90q-21 39 -39 104q-23 78 -26 230q-1 86 -5 86l-23 -4q-24 -4 -141 -4q-122 0 -124 -2t-7 -66l-6 -73q-1 -6 -5 -83q-4 -104 -10 -136.5t-21 -40.5q-10 -5 -16 -5q-7 0 -19 7q-21 14 -37 81q-25 111 -25 248zM220 585q0 -6 6 -6 q8 0 25 4q83 17 155 17q53 0 81 -8l5 -1q3 0 3 16q0 21 7 144q6 126 6 199q0 74 -6 128q-7 65 -18 104t-22 39q-16 0 -45.5 -36.5t-53.5 -84.5q-63 -127 -108 -325q-35 -169 -35 -190zM291 1609q0 35 7 62q25 85 71 109q11 6 32 8h8q14 0 23 -4q14 -5 28 -21t19 -31 q5 -18 5 -42q0 -84 -29 -137q-14 -28 -42 -42q-14 -7 -38 -7q-18 0 -31 5q-28 13 -44 44q-9 19 -9 56zM536 1609q0 35 7 62q25 85 71 109q11 6 32 8h8q14 0 23 -4q14 -5 28 -21t19 -31q5 -18 5 -41q0 -80 -29 -138q-14 -28 -42 -42q-14 -7 -38 -7q-18 0 -31 5q-30 14 -44 44 q-9 19 -9 56z" />
<glyph unicode="&#xc5;" horiz-adv-x="788" d="M54 372q0 87 11 191q16 140 54 300.5t80 261.5q14 33 38.5 81.5t37.5 66.5q93 131 197 132h14q43 -2 83.5 -27t64.5 -63q48 -75 62 -212q5 -45 5 -179q0 -112 -4 -156q-5 -52 -7 -119l-7 -121q-3 -52 -3 -165q0 -115 4 -177q8 -134 31 -155q20 -18 20 -43q0 -15 -7 -25 q-16 -26 -57 -26q-11 0 -23 3q-48 13 -90 90q-21 39 -39 104q-23 78 -26 230q-1 86 -5 86l-23 -4q-24 -4 -141 -4q-122 0 -124 -2t-7 -66l-6 -73q-1 -6 -5 -83q-4 -104 -10 -136.5t-21 -40.5q-10 -5 -16 -5q-7 0 -19 7q-21 14 -37 81q-25 111 -25 248zM220 585q0 -6 6 -6 q8 0 25 4q83 17 155 17q53 0 81 -8l5 -1q3 0 3 16q0 21 7 144q6 126 6 199q0 74 -6 128q-7 65 -18 104t-22 39q-16 0 -45.5 -36.5t-53.5 -84.5q-63 -127 -108 -325q-35 -169 -35 -190zM338 1677q0 58 21 101q13 26 41 56q43 46 92 65q26 10 51 10t54 -10q35 -13 52 -21 q55 -26 79.5 -69.5t24.5 -113.5q0 -55 -19 -95q-13 -26 -35 -48q-32 -31 -78 -49.5t-90 -18.5l-20 1q-51 4 -97 37q-47 33 -69 94q-7 20 -7 61zM512 1712q0 -14 9.5 -26.5t23.5 -16.5q8 -2 19 -2q34 0 50 8q22 12 26 33l1 13q0 35 -37 73q-15 13 -17 13q-4 0 -20 -13 t-27 -26q-24 -28 -27 -51z" />
<glyph unicode="&#xc6;" horiz-adv-x="1414" d="M54 372q0 92 12 191q16 140 54 300.5t80 261.5q14 33 38.5 81.5t37.5 66.5q93 131 197 132h14q43 -2 83.5 -27t64.5 -63q48 -75 62 -212q4 -54 4 -179q0 -106 -3 -156q-5 -52 -7 -119l-7 -121q-3 -52 -3 -165q0 -136 4 -177q8 -134 31 -155q19 -19 19 -43q0 -14 -6 -25 q-16 -26 -58 -26q-11 0 -22 3q-48 13 -90 90q-21 39 -39 104q-23 78 -26 230q-1 86 -5 86l-23 -4q-24 -4 -141 -4q-122 0 -124 -2t-7 -66l-6 -73q-1 -6 -5 -83q-4 -104 -10 -136.5t-21 -40.5q-10 -5 -17 -5t-18 7q-21 14 -37 81q-26 109 -26 248zM221 585q0 -6 5 -6 q7 0 26 4q82 17 155 17q52 0 81 -8l4 -1q4 0 4 16q0 21 7 144q6 126 6 199q0 74 -6 128q-7 65 -18 104t-22 39q-16 0 -45.5 -36.5t-53.5 -84.5q-63 -127 -108 -325q-35 -169 -35 -190zM716 469q0 45 3 85q6 76 13 136l8 64q15 133 48 293q34 167 34 188v1l-7 21q-3 9 -3 19 q0 16 11 35q30 49 160 76q137 29 223 29q43 0 82 -4q82 -8 109 -38q17 -18 17 -42q0 -28 -24 -44q-12 -9 -86 -25q-40 -7 -58 -12q-69 -14 -174 -20q-16 -1 -61 -6l-34 -3q-1 -37 -1 -82.5t-1 -62t-4 -57t-10 -109.5q-4 -36 -8 -83l-2 -23q148 31 160 32q24 2 31 2 q15 0 39 -3q43 -5 64 -14t33 -28t12 -38q0 -47 -58 -74q-46 -21 -95.5 -29t-188.5 -17q-8 -1 -9.5 -3t-3.5 -15q-2 -20 -2 -70q0 -157 7 -192q16 -76 34 -99q19 -25 40 -25q25 0 84 35q52 32 93 84q25 32 36.5 42.5t25.5 14.5q10 2 16 2q34 0 51 -36q9 -19 9 -54 q0 -52 -28 -112q-40 -83 -112 -139q-46 -35 -84 -49q-49 -20 -104 -20q-27 0 -53 6q-36 9 -71.5 30t-58.5 47q-53 56 -77 144q-25 88 -25 242z" />
<glyph unicode="&#xc7;" horiz-adv-x="781" d="M54 608l1 42q4 201 56 342q77 228 201 343q27 27 72 52q40 23 74 31q14 3 33 3q36 0 66 -9q47 -20 75 -58q29 -41 29 -85v-13q-6 -45 -25 -95q-20 -54 -40 -84q-20 -26 -38 -26q-12 0 -19 10q-3 2 -4 7q-1 2 -1.5 6t-0.5 6q-1 5 -1 23q-1 10 -1 40v6q0 10 -0.5 29.5 t-1.5 28.5q0 7 -0.5 13t-0.5 9l-1 3q-3 5 -8 5q-17 0 -57 -46q-108 -126 -158 -364q-10 -49 -15 -94q-3 -31 -5 -112l-1 -35q0 -77 8 -138q7 -58 27 -120q10 -31 18 -50q8 -16 20 -29q26 -27 55 -27q23 0 57 22q32 21 62 54q21 24 38 59q17 38 32 90q17 60 30 82 q12 23 30 27q8 2 10 2q8 0 16 -4q22 -7 32 -31q9 -24 9 -71l-1 -45q-8 -97 -23 -143q-29 -89 -98 -159q-25 -25 -48 -43q-26 -19 -52 -32q-60 -30 -121 -30q-14 0 -21 1q5 -25 9 -63l4 -36q51 -3 82 -13q34 -11 65 -43q56 -53 56 -144q0 -20 -2 -34q-2 -11 -9 -29 q-11 -31 -22 -48q-15 -22 -31 -39q-64 -69 -152 -70h-26q-13 0 -15 1q-85 22 -110 62q-10 17 -10 37q0 26 20 46q8 6 11 8q4 2 15 4q3 1 13 1.5t14 0.5q31 2 56 9t38 16q24 19 29 51l1 9q0 6 -1 9q-1 2 -6 7l-7 7q-3 1 -11 1l-58 -2q-12 0 -24 2q-7 1 -19 7q-36 17 -49 54 q-3 7 -6 23q-2 9 -4 29q-2 22 -2 29q0 11 1 17q1 7 3 20q6 32 18 69q8 28 15 41q-44 30 -78 79q-13 19 -30 55q-22 45 -29 65q-11 30 -28 100q-16 67 -21 108q-9 77 -9 161z" />
<glyph unicode="&#xc8;" horiz-adv-x="752" d="M54 469q0 45 3 85q6 76 13 136l8 64q15 133 48 293q34 167 34 188v1l-7 21q-4 8 -4 19q0 17 12 35q30 49 160 76q135 29 223 29q43 0 82 -4q82 -8 109 -38q17 -20 17 -42q0 -28 -24 -44q-12 -9 -86 -25q-40 -7 -58 -12q-69 -14 -174 -20q-16 -1 -61 -6l-34 -3 q-1 -37 -1 -82.5t-1 -62t-4 -57t-10 -109.5q-4 -36 -8 -83l-2 -23q148 31 160 32q22 2 31 2q15 0 39 -3q43 -5 64 -14t33 -28q11 -18 11 -38q0 -48 -57 -74q-46 -21 -95.5 -29t-188.5 -17q-8 -1 -10 -3t-3 -15q-2 -10 -2 -70q0 -157 7 -192q16 -76 34 -99q17 -25 40 -25 q25 0 84 35q52 32 93 84q25 32 36.5 42.5t25.5 14.5q10 2 15 2q33 0 52 -36q9 -19 9 -54q0 -52 -28 -112q-40 -83 -112 -139q-46 -35 -84 -49q-51 -20 -104 -20q-29 0 -53 6q-36 9 -71.5 30t-58.5 47q-53 56 -77 144q-25 87 -25 242zM222 1778q0 4 2 12q8 37 48 37 q6 0 16 -2q25 -5 58 -29q36 -28 74 -70q39 -44 63 -83q45 -68 45 -97q0 -6 -2 -16q-9 -25 -36 -30q-3 -1 -9 -1q-21 0 -43 18q-58 45 -121 109q-40 41 -60 73q-35 50 -35 79z" />
<glyph unicode="&#xc9;" horiz-adv-x="752" d="M54 469q0 45 3 85q6 76 13 136l8 64q15 133 48 293q34 167 34 188v1l-7 21q-4 8 -4 19q0 17 12 35q30 49 160 76q135 29 223 29q43 0 82 -4q82 -8 109 -38q17 -20 17 -42q0 -28 -24 -44q-12 -9 -86 -25q-40 -7 -58 -12q-69 -14 -174 -20q-16 -1 -61 -6l-34 -3 q-1 -37 -1 -82.5t-1 -62t-4 -57t-10 -109.5q-4 -36 -8 -83l-2 -23q148 31 160 32q22 2 31 2q15 0 39 -3q43 -5 64 -14t33 -28q11 -18 11 -38q0 -48 -57 -74q-46 -21 -95.5 -29t-188.5 -17q-8 -1 -10 -3t-3 -15q-2 -10 -2 -70q0 -157 7 -192q16 -76 34 -99q17 -25 40 -25 q25 0 84 35q52 32 93 84q25 32 36.5 42.5t25.5 14.5q10 2 15 2q33 0 52 -36q9 -19 9 -54q0 -52 -28 -112q-40 -83 -112 -139q-46 -35 -84 -49q-51 -20 -104 -20q-29 0 -53 6q-36 9 -71.5 30t-58.5 47q-53 56 -77 144q-25 87 -25 242zM283 1536q0 27 45 97q24 39 63 83 q38 41 74 70q33 24 58 29q10 2 16 2q39 0 49 -37q0 -2 0.5 -6t0.5 -6q0 -29 -35 -79q-20 -32 -60 -73q-60 -62 -120 -109q-24 -18 -44 -18q-6 0 -9 1q-27 5 -35 30q-3 8 -3 16z" />
<glyph unicode="&#xca;" horiz-adv-x="752" d="M54 469q0 45 3 85q6 76 13 136l8 64q15 133 48 293q34 167 34 188v1l-7 21q-4 8 -4 19q0 17 12 35q30 49 160 76q135 29 223 29q43 0 82 -4q82 -8 109 -38q17 -20 17 -42q0 -28 -24 -44q-12 -9 -86 -25q-40 -7 -58 -12q-69 -14 -174 -20q-16 -1 -61 -6l-34 -3 q-1 -37 -1 -82.5t-1 -62t-4 -57t-10 -109.5q-4 -36 -8 -83l-2 -23q148 31 160 32q22 2 31 2q15 0 39 -3q43 -5 64 -14t33 -28q11 -18 11 -38q0 -48 -57 -74q-46 -21 -95.5 -29t-188.5 -17q-8 -1 -10 -3t-3 -15q-2 -10 -2 -70q0 -157 7 -192q16 -76 34 -99q17 -25 40 -25 q25 0 84 35q52 32 93 84q25 32 36.5 42.5t25.5 14.5q10 2 15 2q33 0 52 -36q9 -19 9 -54q0 -52 -28 -112q-40 -83 -112 -139q-46 -35 -84 -49q-51 -20 -104 -20q-29 0 -53 6q-36 9 -71.5 30t-58.5 47q-53 56 -77 144q-25 87 -25 242zM190 1577v2q2 16 11 29q10 17 33 41 q14 16 36.5 42.5t31 36t22 23.5t24 21t22.5 12q18 7 30 7l19 -1q27 -2 41.5 -7.5t39.5 -21.5q60 -40 91 -71t46 -68q7 -15 7 -32v-4q0 -23 -17 -35q-13 -10 -33 -10q-35 5 -89 45q-22 18 -81 72q-18 18 -24 18q-14 0 -76 -60q-67 -63 -89 -70l-14 -2q-3 0 -13 5 q-18 11 -18 28z" />
<glyph unicode="&#xcb;" horiz-adv-x="752" d="M54 469q0 45 3 85q6 76 13 136l8 64q15 133 48 293q34 167 34 188v1l-7 21q-4 8 -4 19q0 17 12 35q30 49 160 76q135 29 223 29q43 0 82 -4q82 -8 109 -38q17 -20 17 -42q0 -28 -24 -44q-12 -9 -86 -25q-40 -7 -58 -12q-69 -14 -174 -20q-16 -1 -61 -6l-34 -3 q-1 -37 -1 -82.5t-1 -62t-4 -57t-10 -109.5q-4 -36 -8 -83l-2 -23q148 31 160 32q22 2 31 2q15 0 39 -3q43 -5 64 -14t33 -28q11 -18 11 -38q0 -48 -57 -74q-46 -21 -95.5 -29t-188.5 -17q-8 -1 -10 -3t-3 -15q-2 -10 -2 -70q0 -157 7 -192q16 -76 34 -99q17 -25 40 -25 q25 0 84 35q52 32 93 84q25 32 36.5 42.5t25.5 14.5q10 2 15 2q33 0 52 -36q9 -19 9 -54q0 -52 -28 -112q-40 -83 -112 -139q-46 -35 -84 -49q-51 -20 -104 -20q-29 0 -53 6q-36 9 -71.5 30t-58.5 47q-53 56 -77 144q-25 87 -25 242zM234 1624q0 35 7 62q25 85 71 109 q11 6 32 8h8q14 0 23 -4q14 -5 28 -21t19 -31q5 -18 5 -42q0 -84 -29 -137q-14 -28 -42 -42q-14 -7 -39 -7q-17 0 -30 5q-28 13 -44 44q-9 19 -9 56zM479 1624q0 35 7 62q25 85 71 109q11 6 32 8h8q14 0 23 -4q14 -5 28 -21t19 -31q5 -18 5 -41q0 -80 -29 -138 q-14 -28 -42 -42q-14 -7 -39 -7q-17 0 -30 5q-30 14 -44 44q-9 19 -9 56z" />
<glyph unicode="&#xcc;" horiz-adv-x="442" d="M-15 1768q0 4 2 12q8 37 48 37q6 0 16 -2q25 -5 58 -29q36 -29 74 -70q39 -44 63 -83q45 -68 45 -97q0 -6 -2 -16q-9 -25 -36 -30q-3 -1 -9 -1q-20 0 -43 18q-58 45 -121 109q-40 41 -60 73q-35 50 -35 79zM54 3q0 41 58 69q21 11 21 13q0 5 -11 32q-25 67 -34 198 q-3 50 -3 248t3 246l7 96q10 166 34 279q11 53 11 59v1q-2 2 -21 4q-28 4 -43.5 19.5t-15.5 39.5q0 60 90 86q24 7 58 7q55 0 106 -18t65 -44q9 -16 9 -33q0 -20 -16 -36l-11 -9l-70 2v-8l4 -49q3 -25 3 -139q0 -201 -6 -337l-8 -281q-6 -232 -12 -315l-2 -35q63 -15 63 -49 q0 -14 -13 -27q-8 -8 -25 -13.5t-83 -20.5l-84 -22q-18 -6 -30 -6q-10 0 -22 5q-22 11 -22 38z" />
<glyph unicode="&#xcd;" horiz-adv-x="442" d="M54 3q0 41 58 69q21 11 21 13q0 5 -11 32q-25 67 -34 198q-3 50 -3 248t3 246l7 96q10 166 34 279q11 53 11 59v1q-2 2 -21 4q-28 4 -43.5 19.5t-15.5 39.5q0 60 90 86q24 7 58 7q55 0 106 -18t65 -44q9 -16 9 -33q0 -20 -16 -36l-11 -9l-70 2v-8l4 -49q3 -25 3 -139 q0 -201 -6 -337l-8 -281q-6 -232 -12 -315l-2 -35q63 -15 63 -49q0 -14 -13 -27q-8 -8 -25 -13.5t-83 -20.5l-84 -22q-18 -6 -30 -6q-10 0 -22 5q-22 11 -22 38zM106 1536q0 27 45 97q24 39 63 83q38 41 74 70q33 24 58 29q10 2 16 2q39 0 49 -37q0 -2 0.5 -6t0.5 -6 q0 -29 -35 -79q-20 -32 -60 -73q-60 -62 -120 -109q-24 -18 -44 -18q-6 0 -9 1q-27 5 -35 30q-3 8 -3 16z" />
<glyph unicode="&#xce;" horiz-adv-x="442" d="M-32 1587v2q2 16 11 29q10 17 33 41q14 16 36.5 42.5t31 36t22 23.5t24 21t22.5 12q18 7 30 7l19 -1q27 -2 41.5 -7.5t39.5 -21.5q60 -40 91 -71t46 -68q7 -15 7 -32v-4q0 -23 -17 -35q-13 -10 -33 -10q-35 5 -89 45q-22 18 -81 72q-18 18 -24 18q-13 0 -76 -60 q-67 -63 -89 -70l-14 -2q-3 0 -13 5q-18 11 -18 28zM54 3q0 41 58 69q21 11 21 13q0 5 -11 32q-25 67 -34 198q-3 50 -3 248t3 246l7 96q10 166 34 279q11 53 11 59v1q-2 2 -21 4q-28 4 -43.5 19.5t-15.5 39.5q0 60 90 86q24 7 58 7q55 0 106 -18t65 -44q9 -16 9 -33 q0 -20 -16 -36l-11 -9l-70 2v-8l4 -49q3 -25 3 -139q0 -201 -6 -337l-8 -281q-6 -232 -12 -315l-2 -35q63 -15 63 -49q0 -14 -13 -27q-8 -8 -25 -13.5t-83 -20.5l-84 -22q-18 -6 -30 -6q-10 0 -22 5q-22 11 -22 38z" />
<glyph unicode="&#xcf;" horiz-adv-x="442" d="M27 1609q0 35 7 62q25 85 71 109q11 6 32 8h8q14 0 23 -4q14 -5 28 -21t19 -31q5 -18 5 -42q0 -84 -29 -137q-14 -28 -42 -42q-14 -7 -39 -7q-17 0 -30 5q-28 13 -44 44q-9 19 -9 56zM54 3q0 41 58 69q21 11 21 13q0 5 -11 32q-25 67 -34 198q-3 50 -3 248t3 246l7 96 q10 166 34 279q11 53 11 59v1q-2 2 -21 4q-28 4 -43.5 19.5t-15.5 39.5q0 60 90 86q24 7 58 7q55 0 106 -18t65 -44q9 -16 9 -33q0 -20 -16 -36l-11 -9l-70 2v-8l4 -49q3 -25 3 -139q0 -201 -6 -337l-8 -281q-6 -232 -12 -315l-2 -35q63 -15 63 -49q0 -14 -13 -27 q-8 -8 -25 -13.5t-83 -20.5l-84 -22q-18 -6 -30 -6q-10 0 -22 5q-22 11 -22 38zM272 1609q0 35 7 62q25 85 71 109q11 6 32 8h8q14 0 23 -4q14 -5 28 -21t19 -31q5 -18 5 -41q0 -80 -29 -138q-14 -28 -42 -42q-14 -7 -39 -7q-17 0 -30 5q-30 14 -44 44q-9 19 -9 56z" />
<glyph unicode="&#xd0;" horiz-adv-x="944" d="M-97 689q0 17 9 30q7 9 28 19q47 20 121 31q9 146 25 250q9 60 18 111q10 55 13 65q1 3 2.5 9.5t2.5 9.5q1 10 5 23q4 25 10 47q2 5 6.5 22.5t7.5 26.5q10 30 11 32q20 32 47 32l5 -1q17 -1 34 -18q26 -20 26 -130l-1 -68q0 -8 -0.5 -23.5t-1.5 -22.5q-1 -21 -3 -30v-5 q-4 -9 -14 -215q-4 -66 -5 -108h21q8 0 24.5 -0.5t24.5 -1.5q4 27 11 60q5 29 22 97q36 142 95 264q75 157 176 157l16 -1q107 -14 171 -139q55 -114 71 -298q9 -103 9 -173q0 -43 -3 -90q-6 -86 -23 -167q-19 -81 -55 -171q-14 -32 -38 -76q-25 -43 -45 -72 q-42 -55 -106 -91q-61 -34 -123 -34q-71 0 -104 36l-15 14q-1 0 -4 -5q-1 -1 -3.5 -6l-3.5 -7q-25 -40 -61 -61q-13 -7 -20 -8q-9 -1 -24 -3h-12q-16 0 -25 3q-54 18 -85 88q-40 85 -63 219q-23 136 -23 285l1 30q-5 -1 -13.5 -2.5t-10.5 -1.5q-4 -1 -10 -2t-10 -2 q-9 -1 -16 -3q-10 -2 -14 -2q-5 -1 -12 -1q-36 5 -56 38l-6 16q-4 12 -4 24zM245 621l1 -37q2 -49 4 -72q1 -32 5 -70q2 -24 5 -37q0 -1 1 -2v-1q1 0 2 4q1 3 3 12q0 1 1.5 10.5t2.5 15.5q2 16 6 42q3 22 9 62l2 14q4 32 9 67h-2q-7 0 -21.5 0.5t-20.5 1.5h-7v-10zM414 240 q0 -1 2 -3q1 -1 7 -1l18 1q17 1 27 3q6 1 24 10q44 23 69 53q28 33 57 92q31 65 46 117q16 55 27 130q7 55 7 150q0 78 -4 142q-5 84 -11 121q-4 23 -14 67q-8 29 -17 49q-3 8 -10 15l-14 14q-7 6 -11 7h-3q-14 0 -34 -30q-74 -113 -110 -391q-1 -8 -3 -22l18 -3q6 -1 14 -1 q4 0 9 -1t13 -3t13 -3q8 -2 22.5 -5.5t20.5 -4.5q58 -18 77 -54q6 -6 7 -13q1 -5 1 -13q0 -21 -21 -31l-6 -2q-2 0 -5 -1t-4 -1q-15 -3 -35 -6q-23 -3 -36 -3h-37h-26q-13 0 -35 2h-5q0 -1 -0.5 -3.5t-0.5 -4.5q-13 -144 -14 -150q-6 -58 -9 -88q-2 -15 -7 -62z" />
<glyph unicode="&#xd1;" horiz-adv-x="871" d="M54 516q0 226 11 385q22 340 53 400q14 29 43 29l12 -2q45 -12 59 -114q11 -117 11 -180v-6q0 -1 -4 -234l-1 -135q0 -307 8 -352l3 -12q37 240 95 495.5t99 367.5q82 221 169 263q21 10 50 10q27 0 48 -11q63 -33 93 -161q14 -68 14 -169q0 -39 -3 -72l-8 -90 q-7 -73 -10 -93l-7 -67q-36 -363 -36 -499q0 -67 5 -109q5 -38 5 -72q0 -27 -3 -39q-5 -21 -22.5 -35t-38.5 -14q-51 0 -84.5 66.5t-37.5 174.5l-1 26q0 194 25 444l6 66q5 41 6 71l11 114q10 107 10 200q0 53 -2 70q-4 36 -6 38h-1q-7 0 -30 -40.5t-39 -80.5 q-38 -92 -63 -223q-18 -89 -43 -240q-31 -203 -44 -321q-7 -74 -17 -158q-14 -103 -24 -143q-19 -77 -71 -106q-15 -8 -46 -13q-13 0 -22 1q-30 4 -63 30q-28 22 -48 59q-43 80 -55 251q-6 75 -6 230zM138 1592q1 61 28 111.5t71 72.5q37 18 85 18h13q23 0 51 -9 q38 -12 62 -27t58 -46q69 -65 101 -65q21 0 30 22.5t9 77.5q0 34 1.5 42t6.5 12q6 6 20 6q30 0 46 -40q22 -57 22 -106q0 -103 -96 -150l-31 -16l-36 -1q-37 0 -54 5q-46 15 -91 50q-8 6 -54 47q-28 27 -43.5 36t-35.5 10q-17 0 -27 -9q-18 -18 -42 -79q-8 -22 -17 -30 t-25 -8q-30 0 -44 29q-8 16 -8 47z" />
<glyph unicode="&#xd2;" horiz-adv-x="920" d="M54 535q0 151 33 297q37 163 86 269q14 31 14 34q0 4 21.5 44t31.5 55q16 25 24 50q26 82 82 128q63 52 137 56h13q54 0 110 -28q64 -31 109 -77q121 -119 147 -354q4 -33 4 -144q0 -143 -6 -196q-15 -147 -65 -309q-35 -109 -91 -194q-44 -66 -102 -117q-35 -32 -94 -62 q-56 -28 -121 -28l-25 2q-64 10 -113 46q-15 10 -42 39.5t-42 50.5q-79 112 -103 297q-8 72 -8 141zM250 581q0 -195 53 -314q51 -113 104 -113h7q18 2 30 8q35 15 79 59q47 49 76 101q110 200 110 506q0 21 -2 65q-4 94 -15 148t-37 101q-35 63 -131 109q-20 10 -32 10h-11 q-19 -1 -39 -12q-29 -17 -39.5 -33.5t-35.5 -82.5q-32 -79 -36 -94q-5 -20 -14 -47q-67 -211 -67 -411zM254 1783q0 2 0.5 6t0.5 6q10 37 49 37q6 0 16 -2q25 -5 58 -29q36 -29 74 -70q39 -44 63 -83q45 -70 45 -97q0 -9 -3 -16q-8 -25 -35 -30q-3 -1 -9 -1q-20 0 -44 18 q-60 47 -120 109q-40 41 -60 73q-35 50 -35 79z" />
<glyph unicode="&#xd3;" horiz-adv-x="920" d="M54 535q0 151 33 297q37 163 86 269q14 31 14 34q0 4 21.5 44t31.5 55q16 25 24 50q26 82 82 128q63 52 137 56h13q54 0 110 -28q64 -31 109 -77q121 -119 147 -354q4 -33 4 -144q0 -143 -6 -196q-15 -147 -65 -309q-35 -109 -91 -194q-44 -66 -102 -117q-35 -32 -94 -62 q-56 -28 -121 -28l-25 2q-64 10 -113 46q-15 10 -42 39.5t-42 50.5q-79 112 -103 297q-8 72 -8 141zM250 581q0 -195 53 -314q51 -113 104 -113h7q18 2 30 8q35 15 79 59q47 49 76 101q110 200 110 506q0 21 -2 65q-4 94 -15 148t-37 101q-35 63 -131 109q-20 10 -32 10h-11 q-19 -1 -39 -12q-29 -17 -39.5 -33.5t-35.5 -82.5q-32 -79 -36 -94q-5 -20 -14 -47q-67 -211 -67 -411zM395 1561q0 29 45 97q24 39 63 83q38 42 74 70q33 24 58 29q10 2 16 2q40 0 48 -37q2 -8 2 -12q0 -29 -35 -79q-20 -32 -60 -73q-63 -64 -121 -109q-23 -18 -43 -18 q-6 0 -9 1q-27 5 -36 30q-2 10 -2 16z" />
<glyph unicode="&#xd4;" horiz-adv-x="920" d="M54 535q0 151 33 297q37 163 86 269q14 31 14 34q0 4 21.5 44t31.5 55q16 25 24 50q26 82 82 128q63 52 137 56h13q54 0 110 -28q64 -31 109 -77q121 -119 147 -354q4 -33 4 -144q0 -143 -6 -196q-15 -147 -65 -309q-35 -109 -91 -194q-44 -66 -102 -117q-35 -32 -94 -62 q-56 -28 -121 -28l-25 2q-64 10 -113 46q-15 10 -42 39.5t-42 50.5q-79 112 -103 297q-8 72 -8 141zM237 1582v2q2 16 11 29q13 21 33 41q15 17 36.5 43t30.5 36t22.5 23.5t23.5 20.5t23 12q18 7 30 7l18 -1q28 -2 42.5 -7.5t38.5 -21.5q60 -39 91 -70.5t47 -68.5 q7 -15 7 -32v-4q-2 -24 -17 -35q-13 -10 -33 -10q-36 5 -89 45q-22 18 -81 72q-18 18 -24 18q-13 0 -76 -60q-67 -63 -90 -70q-12 -2 -14 -2t-12 5q-18 11 -18 28zM250 581q0 -195 53 -314q51 -113 104 -113h7q18 2 30 8q35 15 79 59q47 49 76 101q110 200 110 506 q0 21 -2 65q-4 94 -15 148t-37 101q-35 63 -131 109q-20 10 -32 10h-11q-19 -1 -39 -12q-29 -17 -39.5 -33.5t-35.5 -82.5q-32 -79 -36 -94q-5 -20 -14 -47q-67 -211 -67 -411z" />
<glyph unicode="&#xd5;" horiz-adv-x="920" d="M54 535q0 151 33 297q37 163 86 269q14 31 14 34q0 4 21.5 44t31.5 55q16 25 24 50q26 82 82 128q63 52 137 56h13q54 0 110 -28q64 -31 109 -77q121 -119 147 -354q4 -33 4 -144q0 -143 -6 -196q-15 -147 -65 -309q-35 -109 -91 -194q-44 -66 -102 -117q-35 -32 -94 -62 q-56 -28 -121 -28l-25 2q-64 10 -113 46q-15 10 -42 39.5t-42 50.5q-79 112 -103 297q-8 72 -8 141zM163 1623q1 61 28 111.5t71 72.5q37 18 85 18h12q24 0 52 -9q38 -12 62 -27t58 -46q69 -65 101 -65q21 0 30 22.5t9 77.5q0 34 1.5 42t6.5 12q6 6 20 6q30 0 46 -40 q22 -61 22 -106q0 -104 -96 -150l-31 -16l-36 -1q-36 0 -54 5q-46 15 -91 50q-8 6 -54 47q-28 27 -43.5 36t-35.5 10q-17 0 -27 -9q-18 -18 -42 -79q-8 -22 -17 -30t-25 -8q-29 0 -44 29q-8 16 -8 47zM250 581q0 -195 53 -314q51 -113 104 -113h7q18 2 30 8q35 15 79 59 q47 49 76 101q110 200 110 506q0 21 -2 65q-4 94 -15 148t-37 101q-35 63 -131 109q-20 10 -32 10h-11q-19 -1 -39 -12q-29 -17 -39.5 -33.5t-35.5 -82.5q-32 -79 -36 -94q-5 -20 -14 -47q-67 -211 -67 -411z" />
<glyph unicode="&#xd6;" horiz-adv-x="920" d="M54 535q0 151 33 297q37 163 86 269q14 31 14 34q0 4 21.5 44t31.5 55q16 25 24 50q26 82 82 128q63 52 137 56h13q54 0 110 -28q64 -31 109 -77q121 -119 147 -354q4 -33 4 -144q0 -143 -6 -196q-15 -147 -65 -309q-35 -109 -91 -194q-44 -66 -102 -117q-35 -32 -94 -62 q-56 -28 -121 -28l-25 2q-64 10 -113 46q-15 10 -42 39.5t-42 50.5q-79 112 -103 297q-8 72 -8 141zM250 581q0 -195 53 -314q51 -113 104 -113h7q18 2 30 8q35 15 79 59q47 49 76 101q110 200 110 506q0 21 -2 65q-4 94 -15 148t-37 101q-35 63 -131 109q-20 10 -32 10h-11 q-19 -1 -39 -12q-29 -17 -39.5 -33.5t-35.5 -82.5q-32 -79 -36 -94q-5 -20 -14 -47q-67 -211 -67 -411zM306 1639q0 35 7 62q25 85 71 109q11 6 32 8h8q14 0 23 -4q14 -5 28 -21t19 -31q5 -18 5 -42q0 -84 -29 -137q-14 -28 -42 -42q-14 -7 -39 -7q-17 0 -30 5 q-28 13 -44 44q-9 19 -9 56zM551 1639q0 35 7 62q25 85 71 109q11 6 32 8h8q14 0 23 -4q14 -5 28 -21t19 -31q5 -18 5 -41q0 -80 -29 -138q-14 -28 -42 -42q-14 -7 -39 -7q-17 0 -30 5q-30 14 -44 44q-9 19 -9 56z" />
<glyph unicode="&#xd7;" horiz-adv-x="545" d="M54 391l1 6q2 2 2 3q4 20 42 61l101 95q-54 57 -87 77q-12 7 -13 8q-8 6 -11 7l-9 6q-13 10 -13 32q0 15 7 30q11 21 24 32q19 17 34 17q39 0 105 -48q15 -12 16 -13q4 -3 14 -13q21 -23 36 -35q40 44 63 86l12 20q10 16 32 16q13 0 29 -6q23 -10 34 -21q18 -21 18 -38 l-1 -16q-14 -59 -63 -117l-30 -34q4 -7 16 -21q7 -9 17 -23l7 -8q6 -13 13 -20l27 -54q7 -24 7 -40q0 -19 -8 -38q-2 -8 -6 -14q-16 -19 -34 -19q-12 0 -41 21q-25 20 -53 53q-13 15 -48 61l-51 -43q-14 -8 -23 -18q-56 -40 -99 -40q-36 0 -54 21q-13 12 -13 27z" />
<glyph unicode="&#xd8;" horiz-adv-x="920" d="M54 535q0 147 33 297q39 165 86 269q2 5 5.5 13.5t4.5 10.5q4 8 4 10q0 3 11 23q0 1 9 17.5t14 25.5q13 25 19 33q0 1 14 25q4 9 10 25q14 46 33 75q21 30 49 53q64 55 137 56h13q58 0 110 -28q31 -15 59 -33q20 -14 50 -44q121 -117 147 -354q4 -47 4 -144 q0 -76 -1 -113q-1 -48 -5 -83q-17 -154 -65 -309q-35 -109 -91 -194q-18 -27 -47 -61q-36 -39 -55 -56q-22 -18 -42 -31q-20 -14 -52 -31q-60 -28 -121 -28l-25 2h-3q-24 -42 -64 -42q-12 0 -23 4q-46 18 -63 68q-5 19 -7 61q-19 21 -37 45q-79 112 -103 297q-8 74 -8 141z M250 581q0 -78 7 -135q13 46 20 74q5 17 15 55q3 10 7.5 26.5t6.5 23.5q5 16 5 18q11 37 30 99q3 11 35 115q19 60 22 67q4 9 12 33q13 38 16 50q2 8 20 55q4 11 9.5 26t6.5 19q3 6 7.5 16.5t6.5 16.5q7 20 9 26q12 31 28 61l12 24h-1q-14 7 -18 8q-8 2 -14 2h-11 q-13 -2 -20 -3q-11 -4 -19 -9q-15 -9 -28 -20q-11 -11 -21 -31q-6 -11 -26 -65q-13 -35 -24 -60q-11 -28 -12 -34l-2 -7q-2 -7 -3 -12q-2 -4 -5 -14t-4 -14q-67 -226 -67 -411zM399 155q3 -1 8 -1h7q10 2 16 3q7 1 14 5q18 9 38 25q20 14 41 34q17 18 42 50q18 25 34 51 q109 208 109 506q0 43 -1 65q-3 92 -15 149q-6 27 -15 51l-12 -42q-5 -19 -15 -51q-3 -9 -9.5 -30t-10.5 -32q-12 -34 -27 -82q-11 -35 -33 -101q-18 -58 -34 -106q-5 -14 -11.5 -35t-11.5 -35.5t-9 -25.5q-40 -124 -68 -236q-22 -85 -37 -162z" />
<glyph unicode="&#xd9;" horiz-adv-x="909" d="M54 834q0 64 2 76q1 5 5 66q8 136 37 235q34 110 86 110l13 -2q39 -10 50 -81q6 -31 11 -378q6 -332 23 -461t65 -198q10 -15 27 -31t22 -16q15 0 37 18q27 23 44 57q24 46 47 178q26 151 41 281q3 35 8 72l36 307q25 227 40 266q20 46 67 46q31 0 54.5 -24t32.5 -64 q10 -49 16 -133q11 -185 11 -487q0 -196 4.5 -288t20.5 -247q1 -9 1 -29q0 -60 -11 -84q-20 -46 -67 -46q-54 0 -90 74q-21 41 -38 140q-9 52 -12 52l-2 -8q-20 -77 -35 -108q-29 -66 -94 -121q-52 -46 -118 -46l-17 1q-65 11 -114 47q-95 71 -138 205q-47 144 -60 406 q-5 92 -5 215zM219 1723q0 8 1 12q8 37 49 37q4 0 16 -2q25 -5 58 -29q36 -28 74 -70q42 -50 63 -83q45 -70 45 -97q0 -9 -3 -16q-8 -25 -35 -30q-3 -1 -9 -1q-20 0 -44 18q-54 42 -120 109q-39 41 -61 73q-34 51 -34 79z" />
<glyph unicode="&#xda;" horiz-adv-x="909" d="M54 834q0 64 2 76q1 5 5 66q8 136 37 235q34 110 86 110l13 -2q39 -10 50 -81q6 -31 11 -378q6 -332 23 -461t65 -198q10 -15 27 -31t22 -16q15 0 37 18q27 23 44 57q24 46 47 178q26 151 41 281q3 35 8 72l36 307q25 227 40 266q20 46 67 46q31 0 54.5 -24t32.5 -64 q10 -49 16 -133q11 -185 11 -487q0 -196 4.5 -288t20.5 -247q1 -9 1 -29q0 -60 -11 -84q-20 -46 -67 -46q-54 0 -90 74q-21 41 -38 140q-9 52 -12 52l-2 -8q-20 -77 -35 -108q-29 -66 -94 -121q-52 -46 -118 -46l-17 1q-65 11 -114 47q-95 71 -138 205q-47 144 -60 406 q-5 92 -5 215zM260 1466q0 28 44 97q26 40 64 83q34 38 74 70q31 24 57 29q12 2 17 2q40 0 48 -37q2 -8 2 -12q0 -26 -35 -79q-20 -32 -60 -73q-63 -64 -121 -109q-24 -18 -43 -18q-6 0 -10 1q-26 5 -35 30q-2 10 -2 16z" />
<glyph unicode="&#xdb;" horiz-adv-x="909" d="M54 834q0 64 2 76q1 5 5 66q8 136 37 235q34 110 86 110l13 -2q39 -10 50 -81q6 -31 11 -378q6 -332 23 -461t65 -198q10 -15 27 -31t22 -16q15 0 37 18q27 23 44 57q24 46 47 178q26 151 41 281q3 35 8 72l36 307q25 227 40 266q20 46 67 46q31 0 54.5 -24t32.5 -64 q10 -49 16 -133q11 -185 11 -487q0 -196 4.5 -288t20.5 -247q1 -9 1 -29q0 -60 -11 -84q-20 -46 -67 -46q-54 0 -90 74q-21 41 -38 140q-9 52 -12 52l-2 -8q-20 -77 -35 -108q-29 -66 -94 -121q-52 -46 -118 -46l-17 1q-65 11 -114 47q-95 71 -138 205q-47 144 -60 406 q-5 92 -5 215zM182 1582v2q2 16 11 29q12 20 32 41q16 18 37 43t30.5 35.5t22.5 24t23.5 20.5t23.5 12q17 7 29 7l19 -1q27 -2 41.5 -7.5t39.5 -21.5q60 -40 91 -71t47 -68q7 -15 7 -32v-4q-2 -23 -17 -35q-13 -10 -33 -10q-36 5 -89 45q-26 21 -81 72q-20 18 -25 18 q-12 0 -76 -60q-66 -63 -89 -70q-12 -2 -14 -2t-12 5q-18 10 -18 28z" />
<glyph unicode="&#xdc;" horiz-adv-x="909" d="M54 834q0 64 2 76q1 5 5 66q8 136 37 235q34 110 86 110l13 -2q39 -10 50 -81q6 -31 11 -378q6 -332 23 -461t65 -198q10 -15 27 -31t22 -16q15 0 37 18q27 23 44 57q24 46 47 178q26 151 41 281q3 35 8 72l36 307q25 227 40 266q20 46 67 46q31 0 54.5 -24t32.5 -64 q10 -49 16 -133q11 -185 11 -487q0 -196 4.5 -288t20.5 -247q1 -9 1 -29q0 -60 -11 -84q-20 -46 -67 -46q-54 0 -90 74q-21 41 -38 140q-9 52 -12 52l-2 -8q-20 -77 -35 -108q-29 -66 -94 -121q-52 -46 -118 -46l-17 1q-65 11 -114 47q-95 71 -138 205q-47 144 -60 406 q-5 92 -5 215zM216 1564q0 35 7 62q25 85 71 109q11 6 32 8h8q14 0 23 -4q14 -5 28 -21t19 -31q4 -15 4 -42q0 -83 -28 -137q-14 -28 -42 -42q-14 -7 -39 -7q-18 0 -30 5q-28 13 -44 44q-9 19 -9 56zM461 1564q0 35 7 62q25 85 71 109q11 6 32 8h8q14 0 23 -4q14 -5 28 -21 t19 -31q4 -15 4 -41q0 -82 -28 -138q-14 -28 -42 -42q-14 -7 -39 -7q-18 0 -30 5q-30 14 -44 44q-9 19 -9 56z" />
<glyph unicode="&#xdd;" horiz-adv-x="843" d="M54 766q0 65 4 104q7 66 8 93q10 112 32.5 231.5t41.5 159.5q6 12 17 22t21 12l7 1q17 0 32 -13.5t21 -34.5q5 -20 5 -79q0 -50 -5 -148q-7 -101 -7 -241l-1 -60q0 -69 8 -122q4 -37 12 -76.5t15.5 -64t11.5 -24.5q6 0 28 44.5t37 86.5q41 114 98 345q85 335 144 397 q24 27 54 27q52 0 84 -68q36 -74 49 -184l6 -56q12 -102 12 -266q0 -159 -18 -267q-23 -135 -74 -250q-38 -88 -89.5 -161.5t-97.5 -105.5q-37 -27 -87 -44q-69 -24 -123 -24q-12 0 -28 2q-20 4 -39 15q-55 28 -55 75q0 11 2 16q10 47 54 49q21 0 72 20q52 20 69 31 q37 23 74 73q60 90 103 226q42 143 53 400q3 71 3 140q0 105 -6 105q-8 0 -50 -267q-23 -152 -37 -220.5t-34 -130.5q-22 -67 -55 -121.5t-67 -79.5q-43 -31 -99 -31q-14 0 -34 4q-80 22 -123 124q-23 56 -39 155q-10 77 -10 181zM282 1531q0 28 44 97q26 40 64 83 q37 42 74 70q31 24 57 29q12 2 17 2q40 0 48 -37q1 -4 1 -12q0 -28 -34 -79q-24 -36 -61 -73q-59 -62 -120 -109q-24 -18 -43 -18q-7 0 -10 1q-25 4 -35 30q-2 5 -2 16z" />
<glyph unicode="&#xde;" />
<glyph unicode="&#xdf;" horiz-adv-x="868" d="M54 310q0 110 4 160q14 175 27 237l9 55q20 118 68 234q72 176 207 289q68 58 140 77q22 5 44 5q53 0 97 -19q64 -29 103 -90t46 -144l2 -43q0 -70 -19 -140q-33 -117 -137 -240q-15 -17 -15 -20l27 -7q50 -12 82 -38.5t54 -74.5q21 -45 21 -109q0 -78 -39 -149 q-43 -78 -112 -120.5t-189 -65.5q-48 -9 -87 -9q-101 0 -130 57q-8 16 -8 35q0 48 56 76q14 6 27 6l18 -1q14 0 37 5l79 14q53 10 67 14q45 14 79 58.5t34 87.5v9q-4 40 -18 49q-9 6 -30 6q-22 0 -52 -8q-26 -7 -69 -26.5t-65 -35.5q-17 -11 -37 -18q-7 -2 -19 -2 q-32 0 -55 22t-24 54q0 23 10 41t46 62q72 86 110 128q81 90 125 175q24 49 36 112q6 30 6 61q0 61 -19 93q-7 10 -20.5 17.5t-25.5 7.5q-44 0 -109 -71q-66 -73 -101 -153t-66 -225q-18 -82 -30 -236l-8 -97q-10 -102 -10 -237q0 -43 6 -119q5 -65 5 -108q0 -39 -6 -47 q-17 -22 -41 -22q-7 0 -15 3q-39 14 -69 83q-26 60 -39 162q-8 69 -8 180z" />
<glyph unicode="&#xe0;" horiz-adv-x="746" d="M54 150q0 29 5 56q16 79 83 200q121 222 301 304q51 21 111 24l24 1q17 0 35 -7q36 -15 36 -44q0 -10 -5 -22q-4 -4 -4 -11l2 -11q1 -6 1 -36q0 -50 -6 -194l-2 -83q0 -143 19 -206q4 -14 16 -21q23 -13 23 -29q0 -14 -12.5 -26.5t-30.5 -17.5q-6 -1 -16 -1 q-35 0 -66.5 35t-51.5 97q-19 58 -23 136l-2 39q-69 -121 -121.5 -188.5t-107.5 -98.5q-44 -26 -91 -26q-10 0 -22 2q-32 6 -56.5 27.5t-33.5 52.5q-5 18 -5 48zM227 207q0 -2 1 -2q3 0 19 16q41 43 107 142q28 42 66 110t38 75l-1 1q-2 0 -34.5 -30t-45.5 -45 q-65 -75 -110 -164q-14 -27 -27 -60.5t-13 -42.5zM244 1124q0 8 1 12q8 37 48 37q5 0 17 -2q26 -5 57 -29q37 -28 74 -70q38 -43 64 -83q44 -69 44 -97q0 -11 -2 -16q-10 -26 -35 -30q-3 -1 -10 -1q-19 0 -43 18q-61 47 -120 109q-37 37 -61 73q-34 51 -34 79z" />
<glyph unicode="&#xe1;" horiz-adv-x="746" d="M54 150q0 29 5 56q16 79 83 200q121 222 301 304q51 21 111 24l24 1q17 0 35 -7q36 -15 36 -44q0 -10 -5 -22q-4 -4 -4 -11l2 -11q1 -6 1 -36q0 -50 -6 -194l-2 -83q0 -143 19 -206q4 -14 16 -21q23 -13 23 -29q0 -14 -12.5 -26.5t-30.5 -17.5q-6 -1 -16 -1 q-35 0 -66.5 35t-51.5 97q-19 58 -23 136l-2 39q-69 -121 -121.5 -188.5t-107.5 -98.5q-44 -26 -91 -26q-10 0 -22 2q-32 6 -56.5 27.5t-33.5 52.5q-5 18 -5 48zM227 207q0 -2 1 -2q3 0 19 16q41 43 107 142q28 42 66 110t38 75l-1 1q-2 0 -34.5 -30t-45.5 -45 q-65 -75 -110 -164q-14 -27 -27 -60.5t-13 -42.5zM283 877q0 27 45 97q26 40 64 83q36 41 73 70q33 24 58 29q12 2 16 2q41 0 49 -37q1 -4 1 -12q0 -28 -34 -79q-22 -32 -61 -73q-66 -67 -120 -109q-24 -18 -43 -18q-7 0 -10 1q-25 4 -35 30q-3 8 -3 16z" />
<glyph unicode="&#xe2;" horiz-adv-x="746" d="M54 150q0 29 5 56q16 79 83 200q121 222 301 304q51 21 111 24l24 1q17 0 35 -7q36 -15 36 -44q0 -10 -5 -22q-4 -4 -4 -11l2 -11q1 -6 1 -36q0 -50 -6 -194l-2 -83q0 -143 19 -206q4 -14 16 -21q23 -13 23 -29q0 -14 -12.5 -26.5t-30.5 -17.5q-6 -1 -16 -1 q-35 0 -66.5 35t-51.5 97q-19 58 -23 136l-2 39q-69 -121 -121.5 -188.5t-107.5 -98.5q-44 -26 -91 -26q-10 0 -22 2q-32 6 -56.5 27.5t-33.5 52.5q-5 18 -5 48zM182 928v2q2 15 10 29q10 17 33 41q16 18 37 43t30.5 35.5t22.5 24t23.5 20.5t23.5 12q17 7 29 7l19 -1 q27 -2 41.5 -7.5t39.5 -21.5q60 -40 91 -71t46 -68q8 -18 8 -32v-4q-2 -23 -17 -35q-13 -10 -33 -10q-36 4 -89 45q-26 21 -81 72q-20 18 -25 18q-12 0 -76 -60q-67 -63 -89 -70l-14 -2q-4 0 -12 5q-18 10 -18 28zM227 207q0 -2 1 -2q3 0 19 16q41 43 107 142q28 42 66 110 t38 75l-1 1q-2 0 -34.5 -30t-45.5 -45q-65 -75 -110 -164q-14 -27 -27 -60.5t-13 -42.5z" />
<glyph unicode="&#xe3;" horiz-adv-x="746" d="M54 150q0 29 5 56q16 79 83 200q121 222 301 304q51 21 111 24l24 1q17 0 35 -7q36 -15 36 -44q0 -10 -5 -22q-4 -4 -4 -11l2 -11q1 -6 1 -36q0 -50 -6 -194l-2 -83q0 -143 19 -206q4 -14 16 -21q23 -13 23 -29q0 -14 -12.5 -26.5t-30.5 -17.5q-6 -1 -16 -1 q-35 0 -66.5 35t-51.5 97q-19 58 -23 136l-2 39q-69 -121 -121.5 -188.5t-107.5 -98.5q-44 -26 -91 -26q-10 0 -22 2q-32 6 -56.5 27.5t-33.5 52.5q-5 18 -5 48zM146 958q1 61 28 111.5t71 72.5q37 18 85 18h13q23 0 51 -9q38 -12 62 -27t58 -46q69 -65 101 -65 q21 0 30 22.5t9 77.5q0 34 1.5 42t6.5 12q6 6 20 6q30 0 46 -40q22 -57 22 -106q0 -103 -96 -150l-31 -16l-36 -1q-37 0 -54 5q-46 15 -91 50q-8 6 -54 47q-28 27 -43.5 36t-35.5 10q-17 0 -27 -9q-18 -18 -42 -79q-8 -22 -17 -30t-25 -8q-30 0 -44 29q-8 16 -8 47zM227 207 q0 -2 1 -2q3 0 19 16q41 43 107 142q28 42 66 110t38 75l-1 1q-2 0 -34.5 -30t-45.5 -45q-65 -75 -110 -164q-14 -27 -27 -60.5t-13 -42.5z" />
<glyph unicode="&#xe4;" horiz-adv-x="746" d="M54 150q0 29 5 56q16 79 83 200q121 222 301 304q51 21 111 24l24 1q17 0 35 -7q36 -15 36 -44q0 -10 -5 -22q-4 -4 -4 -11l2 -11q1 -6 1 -36q0 -50 -6 -194l-2 -83q0 -143 19 -206q4 -14 16 -21q23 -13 23 -29q0 -14 -12.5 -26.5t-30.5 -17.5q-6 -1 -16 -1 q-35 0 -66.5 35t-51.5 97q-19 58 -23 136l-2 39q-69 -121 -121.5 -188.5t-107.5 -98.5q-44 -26 -91 -26q-10 0 -22 2q-32 6 -56.5 27.5t-33.5 52.5q-5 18 -5 48zM204 955q0 35 7 62q25 85 71 109q11 6 32 8h8q15 0 23 -4q14 -5 28 -21t19 -31q5 -14 5 -42q0 -84 -29 -137 q-14 -28 -42 -42q-13 -7 -38 -7q-18 0 -31 5q-28 13 -44 44q-9 19 -9 56zM227 207q0 -2 1 -2q3 0 19 16q41 43 107 142q28 42 66 110t38 75l-1 1q-2 0 -34.5 -30t-45.5 -45q-65 -75 -110 -164q-14 -27 -27 -60.5t-13 -42.5zM449 955q0 35 7 62q25 85 71 109q11 6 32 8h8 q15 0 23 -4q14 -5 28 -21t19 -31q5 -14 5 -41q0 -80 -29 -138q-14 -28 -42 -42q-13 -7 -38 -7q-18 0 -31 5q-30 14 -44 44q-9 19 -9 56z" />
<glyph unicode="&#xe5;" horiz-adv-x="746" d="M54 150q0 29 5 56q16 79 83 200q121 222 301 304q51 21 111 24l24 1q17 0 35 -7q36 -15 36 -44q0 -10 -5 -22q-4 -4 -4 -11l2 -11q1 -6 1 -36q0 -50 -6 -194l-2 -83q0 -143 19 -206q4 -14 16 -21q23 -13 23 -29q0 -14 -12.5 -26.5t-30.5 -17.5q-6 -1 -16 -1 q-35 0 -66.5 35t-51.5 97q-19 58 -23 136l-2 39q-69 -121 -121.5 -188.5t-107.5 -98.5q-44 -26 -91 -26q-10 0 -22 2q-32 6 -56.5 27.5t-33.5 52.5q-5 18 -5 48zM201 1023q0 58 21 101q13 26 41 56q43 46 92 65q26 10 51 10t54 -10q35 -13 52 -21q55 -26 79.5 -69.5 t24.5 -113.5q0 -55 -19 -95q-13 -26 -35 -48q-31 -31 -77.5 -49.5t-90.5 -18.5l-20 1q-51 4 -97 37q-47 33 -69 94q-7 20 -7 61zM227 207q0 -2 1 -2q3 0 19 16q41 43 107 142q28 42 66 110t38 75l-1 1q-2 0 -34.5 -30t-45.5 -45q-65 -75 -110 -164q-14 -27 -27 -60.5 t-13 -42.5zM375 1058q0 -14 9.5 -26.5t23.5 -16.5q10 -2 20 -2q33 0 49 8q22 12 26 33l1 13q0 35 -37 73q-15 13 -17 13q-4 0 -20 -13t-27 -26q-24 -28 -27 -51z" />
<glyph unicode="&#xe6;" horiz-adv-x="1121" d="M54 136q0 27 5 59q17 84 83 210q121 230 301 318q51 25 111 26l24 1q15 0 19 -1q6 -1 15 -6q0 -1 1 -1q36 -15 36 -45q0 -3 -2 -13q-2 -8 -3 -10q-4 -6 -4 -10l9 6q59 44 132 44h5q82 0 137 -51q50 -41 50 -105q0 -65 -55 -132q-28 -34 -67 -61q-47 -31 -80 -40l-21 -6 q-36 -15 -64 -15q-9 0 -23 4l-4 1q-1 0 -1 -1l1 -5q9 -26 33 -47q19 -16 36 -26q20 -12 37 -18q33 -14 68 -14q23 0 45 9q5 2 35 17q24 13 53 32q38 26 43 29q12 9 21 13q6 3 12 3q14 0 20 -7q5 -7 5 -24l-1 -12q-3 -48 -31 -86q-16 -22 -35 -38q-20 -19 -46 -36 q-80 -46 -162 -46q-28 0 -54 6q-29 7 -52 15q7 -8 7 -20q0 -15 -12 -27q-14 -14 -31 -18q-5 -2 -16 -2q-70 0 -118 139q-18 56 -23 142l-2 41q-65 -119 -118 -193q-54 -73 -111 -108q-48 -27 -91 -27q-8 0 -22 2q-69 16 -90 84q-5 22 -5 50zM227 197q0 -3 1 -3q2 0 7 5 l12 12q17 19 48 63q10 14 59 86q9 15 43 74q11 21 43 79q18 36 18 41h-1q-1 0 -17 -14q-11 -10 -34 -33q-10 -9 -29 -31q-26 -30 -59 -82q-32 -48 -51 -90q-16 -31 -28 -65q-12 -35 -12 -42zM651 453q0 -2 1 -3q2 -2 5 -2h13q20 0 34 5q54 21 82 70q10 17 10 31q0 9 -5 17 q-4 7 -14 12q-15 4 -19 5h-6q-19 -3 -39 -22q-20 -17 -37 -45q-9 -16 -17 -37q-8 -24 -8 -31z" />
<glyph unicode="&#xe7;" horiz-adv-x="700" d="M54 337q0 23 1 34q3 37 9 63t21 65q47 125 129 201q22 20 52 41q31 21 49 29q45 19 89 21q74 0 139 -48q27 -20 44 -56q15 -36 15 -72q0 -15 -3 -30q-4 -18 -18 -44q-14 -24 -32 -42q-41 -35 -73 -35q-25 0 -35 19q-1 3 -1 9q0 8 3 23q7 27 7 58q0 25 -6 39q-5 11 -14 20 q-12 9 -20 10l-3 1q-14 0 -40 -17q-28 -18 -49 -42q-79 -95 -79 -210q0 -47 13 -89q26 -79 75 -101q9 -4 24 -4q41 0 100 36q35 21 60 60q16 23 39 37q21 12 41 12q17 0 31 -9q14 -10 20 -28q4 -9 4 -23q0 -29 -21 -66q-58 -114 -168 -169q-62 -30 -134 -30h-1q5 -28 9 -62 l4 -36q51 -3 82 -13q34 -11 65 -43q56 -53 56 -144q0 -27 -1 -34q-1 -8 -10 -29q-11 -31 -22 -48q-13 -21 -31 -39q-62 -69 -152 -70h-25q-13 0 -16 1q-85 22 -110 62q-9 18 -9 37q0 27 19 46q2 1 4.5 2.5t4.5 3t3 2.5q3 2 14 4q3 1 13 1.5t14 0.5q31 2 56 9q27 8 38 16 q24 19 29 51l1 9q0 6 -1 9q-1 2 -6 7l-7 7q-2 1 -11 1l-57 -2q-13 0 -25 2q-7 1 -19 7q-36 17 -49 54q-3 7 -6 23q-2 9 -4 29q-2 22 -2 29q0 11 1 17q1 7 3 20q6 32 18 69q2 9 10 29q-51 29 -88 83q-27 40 -44 103t-17 123z" />
<glyph unicode="&#xe8;" horiz-adv-x="683" d="M54 351q0 92 44.5 182t113.5 139q63 46 132 46h5q75 0 137 -53q50 -44 50 -110q0 -65 -55 -139q-23 -32 -67.5 -63.5t-79.5 -41.5q-68 -22 -86 -22q-13 0 -22 4l-4 1q-1 0 -1 -1l1 -5q7 -24 33 -50q37 -34 73 -46q40 -14 68 -14q26 0 45 9q38 14 88 51q42 32 54.5 39.5 t21.5 7.5q14 0 19 -6.5t5 -25.5v-13q-4 -51 -31 -90q-28 -41 -81 -77q-71 -48 -162 -48q-29 0 -54 6q-134 31 -196 132q-51 83 -51 188zM91 1079q0 2 0.5 6t0.5 6q10 37 49 37q4 0 16 -2q25 -5 58 -29q36 -28 74 -70q39 -44 63 -83q45 -70 45 -97q0 -9 -3 -16 q-8 -25 -35 -30q-3 -1 -9 -1q-20 0 -44 18q-60 47 -120 109q-39 41 -61 73q-34 51 -34 79zM214 445q0 -6 19 -6t34 6q54 19 82 73q9 18 9 33q0 10 -4 17q-11 16 -33 18h-6q-17 -2 -39 -22t-37 -48q-8 -15 -16.5 -38.5t-8.5 -32.5z" />
<glyph unicode="&#xe9;" horiz-adv-x="683" d="M54 351q0 92 44.5 182t113.5 139q63 46 132 46h5q75 0 137 -53q50 -44 50 -110q0 -65 -55 -139q-23 -32 -67.5 -63.5t-79.5 -41.5q-68 -22 -86 -22q-13 0 -22 4l-4 1q-1 0 -1 -1l1 -5q7 -24 33 -50q37 -34 73 -46q40 -14 68 -14q26 0 45 9q38 14 88 51q42 32 54.5 39.5 t21.5 7.5q14 0 19 -6.5t5 -25.5v-13q-4 -51 -31 -90q-28 -41 -81 -77q-71 -48 -162 -48q-29 0 -54 6q-134 31 -196 132q-51 83 -51 188zM197 847q0 29 45 97q24 39 63 83q38 42 74 70q33 24 58 29q10 2 16 2q40 0 48 -37q2 -8 2 -12q0 -29 -35 -79q-20 -32 -60 -73 q-63 -64 -121 -109q-24 -18 -43 -18q-6 0 -9 1q-27 5 -36 30q-2 10 -2 16zM214 445q0 -6 19 -6t34 6q54 19 82 73q9 18 9 33q0 10 -4 17q-11 16 -33 18h-6q-17 -2 -39 -22t-37 -48q-8 -15 -16.5 -38.5t-8.5 -32.5z" />
<glyph unicode="&#xea;" horiz-adv-x="683" d="M54 351q0 92 44.5 182t113.5 139q63 46 132 46h5q75 0 137 -53q50 -44 50 -110q0 -65 -55 -139q-23 -32 -67.5 -63.5t-79.5 -41.5q-68 -22 -86 -22q-13 0 -22 4l-4 1q-1 0 -1 -1l1 -5q7 -24 33 -50q37 -34 73 -46q40 -14 68 -14q26 0 45 9q38 14 88 51q42 32 54.5 39.5 t21.5 7.5q14 0 19 -6.5t5 -25.5v-13q-4 -51 -31 -90q-28 -41 -81 -77q-71 -48 -162 -48q-29 0 -54 6q-134 31 -196 132q-51 83 -51 188zM54 878v2q2 16 11 29q13 20 32 41q16 18 37 43t30.5 35.5t22.5 24t23.5 20.5t23.5 12q18 7 30 7l18 -1q28 -2 42.5 -7.5t38.5 -21.5 q60 -39 91 -70.5t47 -68.5q7 -15 7 -32v-4q-2 -24 -17 -35q-13 -10 -33 -10q-36 5 -89 45q-35 29 -81 72q-18 18 -24 18q-13 0 -77 -60q-66 -63 -89 -70q-12 -2 -14 -2t-12 5q-18 11 -18 28zM214 445q0 -6 19 -6t34 6q54 19 82 73q9 18 9 33q0 10 -4 17q-11 16 -33 18h-6 q-17 -2 -39 -22t-37 -48q-8 -15 -16.5 -38.5t-8.5 -32.5z" />
<glyph unicode="&#xeb;" horiz-adv-x="683" d="M54 351q0 92 44.5 182t113.5 139q63 46 132 46h5q75 0 137 -53q50 -44 50 -110q0 -65 -55 -139q-23 -32 -67.5 -63.5t-79.5 -41.5q-68 -22 -86 -22q-13 0 -22 4l-4 1q-1 0 -1 -1l1 -5q7 -24 33 -50q37 -34 73 -46q40 -14 68 -14q26 0 45 9q38 14 88 51q42 32 54.5 39.5 t21.5 7.5q14 0 19 -6.5t5 -25.5v-13q-4 -51 -31 -90q-28 -41 -81 -77q-71 -48 -162 -48q-29 0 -54 6q-134 31 -196 132q-51 83 -51 188zM128 915q0 35 7 62q25 85 71 109q11 6 32 8h8q14 0 23 -4q14 -5 28 -21t19 -31q5 -18 5 -42q0 -81 -29 -137q-14 -28 -42 -42 q-14 -7 -39 -7q-17 0 -30 5q-28 13 -44 44q-9 19 -9 56zM214 445q0 -6 19 -6t34 6q54 19 82 73q9 18 9 33q0 10 -4 17q-11 16 -33 18h-6q-17 -2 -39 -22t-37 -48q-8 -15 -16.5 -38.5t-8.5 -32.5zM373 915q0 35 7 62q25 85 71 109q11 6 32 8h8q14 0 23 -4q14 -5 28 -21 t19 -31q4 -15 4 -41q0 -82 -28 -138q-14 -28 -42 -42q-14 -7 -39 -7q-17 0 -30 5q-30 14 -44 44q-9 19 -9 56z" />
<glyph unicode="&#xec;" horiz-adv-x="315" d="M54 478q0 96 7 139q11 71 36 108q26 38 69 38l13 -1q42 -6 61 -43q21 -39 21 -121q0 -53 -6 -152q-6 -103 -6 -200q0 -69 2 -102v-15q0 -30 -3 -51q-4 -30 -12.5 -45t-27.5 -25q-16 -8 -36 -8q-19 0 -35 8q-31 15 -46.5 55t-23.5 122q-13 149 -13 293zM54 1079q0 8 1 12 q10 37 49 37q4 0 16 -2q25 -5 58 -29q36 -28 74 -70q39 -44 63 -83q45 -70 45 -97q0 -9 -3 -16q-8 -25 -35 -30q-3 -1 -9 -1q-20 0 -44 18q-60 47 -120 109q-39 41 -61 73q-34 51 -34 79z" />
<glyph unicode="&#xed;" horiz-adv-x="315" d="M54 478q0 96 7 139q11 71 36 108q26 38 69 38l13 -1q42 -6 61 -43q21 -39 21 -121q0 -53 -6 -152q-6 -103 -6 -200q0 -69 2 -102v-15q0 -30 -3 -51q-4 -30 -12.5 -45t-27.5 -25q-16 -8 -36 -8q-19 0 -35 8q-31 15 -46.5 55t-23.5 122q-13 149 -13 293zM54 847q0 29 45 97 q24 39 63 83q38 42 74 70q33 24 58 29q10 2 16 2q40 0 48 -37q2 -8 2 -12q0 -29 -35 -79q-20 -32 -60 -73q-63 -64 -121 -109q-22 -18 -43 -18q-6 0 -9 1q-27 5 -35 30q-3 7 -3 16z" />
<glyph unicode="&#xee;" horiz-adv-x="315" d="M-80 868v2q2 16 11 29q13 20 32 41q16 18 37 43t30.5 35.5t22.5 24t23.5 20.5t23.5 12q18 7 30 7l18 -1q28 -2 42.5 -7.5t38.5 -21.5q60 -40 91 -71t47 -68q7 -15 7 -32v-4q-2 -24 -17 -35q-13 -10 -33 -10q-36 5 -89 45q-26 21 -81 72q-18 18 -25 18q-12 0 -76 -60 q-66 -63 -89 -70q-12 -2 -14 -2t-12 5q-18 10 -18 28zM54 478q0 96 7 139q11 71 36 108q26 38 69 38l13 -1q42 -6 61 -43q21 -39 21 -121q0 -53 -6 -152q-6 -103 -6 -200q0 -69 2 -102v-15q0 -30 -3 -51q-4 -30 -12.5 -45t-27.5 -25q-16 -8 -36 -8q-19 0 -35 8 q-31 15 -46.5 55t-23.5 122q-13 149 -13 293z" />
<glyph unicode="&#xef;" horiz-adv-x="315" d="M-23 932q0 35 7 62q25 85 71 109q11 6 32 8h8q14 0 23 -4q14 -5 28 -21t19 -31q5 -18 5 -42q0 -84 -29 -137q-14 -28 -42 -42q-14 -7 -39 -7q-17 0 -30 5q-28 13 -44 44q-9 19 -9 56zM54 478q0 96 7 139q11 71 36 108q26 38 69 38l13 -1q42 -6 61 -43q21 -39 21 -121 q0 -53 -6 -152q-6 -103 -6 -200q0 -69 2 -102v-15q0 -30 -3 -51q-4 -30 -12.5 -45t-27.5 -25q-16 -8 -36 -8q-19 0 -35 8q-31 15 -46.5 55t-23.5 122q-13 149 -13 293zM222 932q0 35 7 62q25 85 71 109q11 6 32 8h8q14 0 23 -4q14 -5 28 -21t19 -31q5 -18 5 -41 q0 -80 -29 -138q-14 -28 -42 -42q-14 -7 -39 -7q-17 0 -30 5q-30 14 -44 44q-9 19 -9 56z" />
<glyph unicode="&#xf0;" horiz-adv-x="683" d="M54 373q0 88 39 167q38 78 104 119q60 36 117 37q46 0 92 -11q12 -2 15 -2q8 0 11 18t6 60q4 55 10 112l-24 1q-80 0 -118 -12q-3 0 -7 -1t-7 -2q-2 -1 -13 -4l-18 -3q-27 4 -42 38q-7 21 -7 40q0 18 6 29t21 20q33 20 90 31q5 1 12 2.5t9 1.5q5 1 18 1q16 0 29 1 q9 1 75 1q4 23 12 46q21 78 44 110t46 32q34 0 49 -54q6 -25 6 -93q0 -36 -1 -53q8 -3 24 -5q13 -2 58 -16q43 -18 56 -54q7 -8 7 -26q0 -28 -27 -35q-27 -9 -66 -9q-26 0 -35 1q-4 0 -12.5 0.5t-13.5 0.5q-15 -204 -15 -402q0 -161 4 -316l2 -124q0 -29 -2 -41 q-4 -22 -28 -32q-18 -8 -28 -8q-35 0 -62 36q-24 43 -51 170q0 4 -2 4q-3 0 -18 -12q-68 -50 -141 -50q-94 0 -156 69q-35 41 -50 91q-16 49 -18 126zM228 394q0 -60 21 -97q10 -18 19 -25q8 -7 31 -7q41 3 123 48q0 214 -10 218q-25 18 -89 18q-43 -4 -69 -47t-26 -108z " />
<glyph unicode="&#xf1;" horiz-adv-x="701" d="M54 266q0 122 6 183q4 59 16 128.5t22 95.5q15 41 39 54q10 7 21 7h9q35 -3 56 -42q8 -16 9.5 -24.5t2.5 -45.5v-18q0 -62 -11 -183q-5 -68 -5 -103q0 -16 1 -16q3 0 25 45q71 139 164 262q37 49 68 70t67 21q68 0 96 -78q7 -20 7 -98q0 -71 -7 -133l-15 -128 q-24 -220 -36 -245q-14 -25 -44 -25q-18 0 -32 10q-18 12 -29.5 38.5t-21.5 81.5q-10 50 -10 113q0 77 20 234l2 12q-20 -20 -59 -97t-72 -158q-42 -108 -59 -144.5t-33 -54.5q-33 -35 -74 -35q-11 0 -23 3q-42 11 -68 64q-23 49 -30 127q-2 30 -2 79zM79 878q1 61 28 111.5 t71 72.5q37 18 85 18h12q24 0 52 -9q38 -12 62 -27t58 -46q69 -65 101 -65q21 0 30 22.5t9 77.5q0 34 1.5 42t6.5 12q6 6 20 6q30 0 46 -40q21 -59 21 -106q0 -103 -95 -150l-31 -16l-36 -1q-36 0 -54 5q-46 15 -91 50q-8 6 -54 47q-28 27 -43.5 36t-35.5 10q-17 0 -27 -9 q-18 -18 -42 -79q-8 -22 -17 -30t-25 -8q-29 0 -44 29q-8 16 -8 47z" />
<glyph unicode="&#xf2;" horiz-adv-x="664" d="M54 343q0 118 42 215q50 118 131 170q29 19 64 20l43 5q10 2 32 2q56 -2 100 -26q35 -20 59.5 -50t52.5 -85q32 -62 32 -163q0 -56 -24 -129q-48 -144 -152 -217q-50 -35 -91 -47q-25 -7 -63 -7q-22 0 -37 3q-16 3 -50 19q-30 15 -55 40q-33 34 -58 95q-26 67 -26 155z M81 1079q0 4 2 12q8 37 48 37q6 0 16 -2q25 -5 58 -29q40 -32 74 -70q39 -44 63 -83q45 -68 45 -97q0 -6 -2 -16q-9 -25 -36 -30q-3 -1 -9 -1q-19 0 -43 18q-58 45 -121 109q-40 41 -60 73q-35 50 -35 79zM227 367q1 -99 34 -134q15 -16 26 -16q8 0 24 8q17 9 43.5 36 t39.5 49q28 46 37 96q6 30 6 56q0 66 -34 100q-25 25 -72 28h-17q-15 0 -23 -7q-13 -13 -23 -35q-41 -85 -41 -181z" />
<glyph unicode="&#xf3;" horiz-adv-x="664" d="M54 343q0 118 42 215q50 118 131 170q29 19 64 20l43 5q10 2 32 2q56 -2 100 -26q35 -20 59.5 -50t52.5 -85q32 -62 32 -163q0 -56 -24 -129q-48 -144 -152 -217q-50 -35 -91 -47q-25 -7 -63 -7q-22 0 -37 3q-16 3 -50 19q-30 15 -55 40q-33 34 -58 95q-26 67 -26 155z M187 847q0 27 45 97q24 39 63 83q38 42 74 70q33 24 58 29q12 2 16 2q39 0 49 -37q1 -4 1 -12q0 -28 -34 -79q-22 -32 -61 -73q-66 -67 -120 -109q-24 -18 -44 -18q-6 0 -9 1q-27 5 -35 30q-3 8 -3 16zM227 367q1 -99 34 -134q15 -16 26 -16q8 0 24 8q17 9 43.5 36t39.5 49 q28 46 37 96q6 30 6 56q0 66 -34 100q-25 25 -72 28h-17q-15 0 -23 -7q-13 -13 -23 -35q-41 -85 -41 -181z" />
<glyph unicode="&#xf4;" horiz-adv-x="664" d="M54 343q0 118 42 215q50 118 131 170q29 19 64 20l43 5q10 2 32 2q56 -2 100 -26q35 -20 59.5 -50t52.5 -85q32 -62 32 -163q0 -56 -24 -129q-48 -144 -152 -217q-50 -35 -91 -47q-25 -7 -63 -7q-22 0 -37 3q-16 3 -50 19q-30 15 -55 40q-33 34 -58 95q-26 67 -26 155z M54 903v2q1 13 11 29q10 17 33 41q14 16 36.5 42.5t31 36t22 23.5t24 21t22.5 12q18 7 30 7l19 -1q27 -2 41.5 -7.5t39.5 -21.5q60 -40 91 -71t46 -68q8 -18 8 -32l-1 -4q0 -23 -17 -35q-13 -10 -32 -10q-35 4 -90 45q-22 18 -81 72q-18 18 -24 18q-12 0 -76 -60 q-67 -63 -89 -70q-3 0 -7 -1q-5 -1 -7 -1q-3 0 -13 5q-18 11 -18 28zM227 367q1 -99 34 -134q15 -16 26 -16q8 0 24 8q17 9 43.5 36t39.5 49q28 46 37 96q6 30 6 56q0 66 -34 100q-25 25 -72 28h-17q-15 0 -23 -7q-13 -13 -23 -35q-41 -85 -41 -181z" />
<glyph unicode="&#xf5;" horiz-adv-x="664" d="M30 898q1 61 28 111.5t71 72.5q37 18 85 18h12q24 0 52 -9q38 -12 62 -27t58 -46q69 -65 101 -65q21 0 30 22.5t9 77.5q0 34 1.5 42t6.5 12q6 6 20 6q30 0 46 -40q22 -57 22 -106q0 -103 -96 -150l-31 -16l-36 -1q-37 0 -54 5q-46 15 -91 50q-8 6 -54 47q-28 27 -43.5 36 t-35.5 10q-17 0 -27 -9q-18 -18 -42 -79q-8 -22 -17 -30t-25 -8q-30 0 -44 29q-8 16 -8 47zM54 343q0 118 42 215q50 118 131 170q29 19 64 20l43 5q10 2 32 2q56 -2 100 -26q35 -20 59.5 -50t52.5 -85q32 -62 32 -163q0 -56 -24 -129q-48 -144 -152 -217q-50 -35 -91 -47 q-25 -7 -63 -7q-22 0 -37 3q-16 3 -50 19q-30 15 -55 40q-33 34 -58 95q-26 67 -26 155zM227 367q1 -99 34 -134q15 -16 26 -16q8 0 24 8q17 9 43.5 36t39.5 49q28 46 37 96q6 30 6 56q0 66 -34 100q-25 25 -72 28h-17q-15 0 -23 -7q-13 -13 -23 -35q-41 -85 -41 -181z" />
<glyph unicode="&#xf6;" horiz-adv-x="664" d="M54 343q0 118 42 215q50 118 131 170q29 19 64 20l43 5q10 2 32 2q56 -2 100 -26q35 -20 59.5 -50t52.5 -85q32 -62 32 -163q0 -56 -24 -129q-48 -144 -152 -217q-50 -35 -91 -47q-25 -7 -63 -7q-22 0 -37 3q-16 3 -50 19q-30 15 -55 40q-33 34 -58 95q-26 67 -26 155z M118 935q0 35 7 62q25 85 71 109q11 6 32 8h8q14 0 23 -4q14 -5 28 -21t19 -31q5 -18 5 -42q0 -84 -29 -137q-14 -28 -42 -42q-14 -7 -38 -7q-18 0 -31 5q-28 13 -44 44q-9 19 -9 56zM227 367q1 -99 34 -134q15 -16 26 -16q8 0 24 8q17 9 43.5 36t39.5 49q28 46 37 96 q6 30 6 56q0 66 -34 100q-25 25 -72 28h-17q-15 0 -23 -7q-13 -13 -23 -35q-41 -85 -41 -181zM363 935q0 35 7 62q25 85 71 109q11 6 32 8h8q14 0 23 -4q14 -5 28 -21t19 -31q5 -18 5 -41q0 -80 -29 -138q-14 -28 -42 -42q-14 -7 -38 -7q-18 0 -31 5q-30 14 -44 44 q-9 19 -9 56z" />
<glyph unicode="&#xf7;" horiz-adv-x="781" d="M54 544q0 17 8 30q7 10 25 19q41 20 108 31q5 1 13.5 2.5t10.5 1.5q7 1 22 1q19 0 33 1h4q10 1 32 1h25h44q9 0 27.5 -0.5t27.5 -1.5q31 -2 32 -2t3 -0.5t6 -1t7 -0.5q7 -1 24 -1q24 -2 36 -4q5 -1 11 -1q12 -2 17 -3t13 -1q2 0 31 -7q6 -2 19 -5.5t19 -4.5 q50 -18 68 -54q5 -6 6 -13q1 -5 1 -13q0 -21 -19 -31q-1 -1 -2 -1t-1.5 -0.5t-1.5 -0.5l-8 -2q-11 -3 -30 -6t-33 -3h-33q-13 0 -23 1q-21 0 -30 1l-87 5q-30 2 -58 3q-7 0 -19.5 0.5t-17.5 1.5l-56 2q-42 0 -79 -3q-40 -3 -62 -9q-5 -1 -17 -3q-4 -1 -9 -2.5t-6 -1.5 q-2 -1 -6 -1t-6 -1q-5 -1 -10 -1q-32 5 -50 38l-6 16q-3 14 -3 24zM300 281q0 55 30 96q30 40 71 40q19 0 38 -10q51 -26 56 -98l1 -13q0 -41 -22 -82q-25 -52 -55 -66q-9 -4 -22 -4q-17 0 -35 8q-39 17 -55 78q-7 24 -7 51zM314 841q0 55 30 96q30 40 71 40q19 0 38 -10 q51 -26 56 -98l1 -13q0 -41 -22 -82q-25 -52 -55 -66q-9 -4 -22 -4q-17 0 -35 8q-39 17 -55 78q-7 24 -7 51z" />
<glyph unicode="&#xf8;" horiz-adv-x="664" d="M54 343q0 109 42 215q50 114 131 170q19 12 31 16t33 4l38 4q5 14 15 44q4 14 19 55q15 40 17 45q8 22 13 33q6 18 10 26q8 25 27 61q19 39 37 70q53 92 107 92h1q57 0 60 -87q0 -9 -2 -31q-6 -40 -12 -73q-7 -35 -17 -75l-21 -72q-5 -20 -15 -51q-3 -9 -9.5 -30 t-10.5 -32q-5 -14 -18 -53q22 -29 48 -80q32 -69 32 -163q0 -32 -5 -60q-3 -21 -19 -69q-47 -146 -152 -217q-50 -35 -91 -47q-1 0 -3 -0.5t-3 -0.5q-19 -84 -26 -133q-3 -14 -7 -42q-1 -7 -1.5 -13.5t-1.5 -13t-1 -9.5q-4 -20 -6 -29q-1 -6 -3 -13.5t-2 -9.5 q-29 -66 -77 -66q-13 0 -22 4q-48 18 -63 68q-7 22 -7 73q0 93 24 234l-6 6q-18 18 -31 39t-27 56q-26 72 -26 155zM238 463q4 19 12 42q-8 -19 -12 -42z" />
<glyph unicode="&#xf9;" horiz-adv-x="665" d="M54 405q0 142 26 237q13 48 27 71.5t36 34.5q18 7 29 7h4q23 -1 41.5 -19.5t25.5 -50.5q4 -20 4 -177q1 -158 8 -192q8 -32 9 -33h1q1 0 6 5q18 27 85 164q66 139 83 167t41 39q14 7 27 7l11 -1q53 -3 77 -51q10 -19 13 -41t3 -84l-2 -161q-4 -234 -21 -266 q-18 -35 -56 -35q-16 0 -29 7q-21 10 -35 39t-29 91q-3 10 -6 22.5t-5 18.5l-2 6l-14 -30q-25 -60 -68 -92.5t-95 -32.5h-13q-95 8 -140 101q-36 73 -41 200zM127 1049q0 8 1 12q8 37 49 37q4 0 16 -2q25 -5 58 -29q37 -29 73 -70q38 -43 64 -83q45 -70 45 -97q0 -9 -3 -16 q-10 -26 -35 -30q-3 -1 -10 -1q-19 0 -43 18q-54 42 -120 109q-39 41 -61 73q-34 51 -34 79z" />
<glyph unicode="&#xfa;" horiz-adv-x="665" d="M54 405q0 142 26 237q13 48 27 71.5t36 34.5q18 7 29 7h4q23 -1 41.5 -19.5t25.5 -50.5q4 -20 4 -177q1 -158 8 -192q8 -32 9 -33h1q1 0 6 5q18 27 85 164q66 139 83 167t41 39q14 7 27 7l11 -1q53 -3 77 -51q10 -19 13 -41t3 -84l-2 -161q-4 -234 -21 -266 q-18 -35 -56 -35q-16 0 -29 7q-21 10 -35 39t-29 91q-3 10 -6 22.5t-5 18.5l-2 6l-14 -30q-25 -60 -68 -92.5t-95 -32.5h-13q-95 8 -140 101q-36 73 -41 200zM249 807q0 28 44 97q26 40 64 83q37 42 74 70q31 24 57 29q12 2 17 2q40 0 48 -37q1 -4 1 -12q0 -28 -34 -79 q-24 -36 -61 -73q-59 -62 -120 -109q-24 -18 -43 -18q-7 0 -10 1q-25 4 -35 30q-2 10 -2 16z" />
<glyph unicode="&#xfb;" horiz-adv-x="665" d="M54 405q0 142 26 237q13 48 27 71.5t36 34.5q18 7 29 7h4q23 -1 41.5 -19.5t25.5 -50.5q4 -20 4 -177q1 -158 8 -192q8 -32 9 -33h1q1 0 6 5q18 27 85 164q66 139 83 167t41 39q14 7 27 7l11 -1q53 -3 77 -51q10 -19 13 -41t3 -84l-2 -161q-4 -234 -21 -266 q-18 -35 -56 -35q-16 0 -29 7q-21 10 -35 39t-29 91q-3 10 -6 22.5t-5 18.5l-2 6l-14 -30q-25 -60 -68 -92.5t-95 -32.5h-13q-95 8 -140 101q-36 73 -41 200zM100 888v2q2 16 11 29q7 14 32 41q16 18 37 43t30.5 35.5t22.5 24t23.5 20.5t23.5 12q17 7 29 7l19 -1 q27 -2 41.5 -7.5t39.5 -21.5q60 -40 91 -71t47 -68q7 -15 7 -32v-4q-2 -23 -17 -35q-13 -10 -33 -10q-36 4 -89 45q-26 21 -81 72q-20 18 -25 18q-12 0 -76 -60q-66 -63 -89 -70q-12 -2 -14 -2t-12 5q-18 10 -18 28z" />
<glyph unicode="&#xfc;" horiz-adv-x="665" d="M54 405q0 142 26 237q13 48 27 71.5t36 34.5q18 7 29 7h4q23 -1 41.5 -19.5t25.5 -50.5q4 -20 4 -177q1 -158 8 -192q8 -32 9 -33h1q1 0 6 5q18 27 85 164q66 139 83 167t41 39q14 7 27 7l11 -1q53 -3 77 -51q10 -19 13 -41t3 -84l-2 -161q-4 -234 -21 -266 q-18 -35 -56 -35q-16 0 -29 7q-21 10 -35 39t-29 91q-3 10 -6 22.5t-5 18.5l-2 6l-14 -30q-25 -60 -68 -92.5t-95 -32.5h-13q-95 8 -140 101q-36 73 -41 200zM179 910q0 35 7 62q25 85 71 109q11 6 32 8h7q15 0 24 -4q14 -5 28 -21t19 -31q4 -15 4 -42q0 -83 -28 -137 q-14 -28 -42 -42q-14 -7 -39 -7q-18 0 -30 5q-28 13 -44 44q-9 19 -9 56zM424 910q0 35 7 62q25 85 71 109q11 6 32 8h7q15 0 24 -4q14 -5 28 -21t19 -31q4 -15 4 -41q0 -82 -28 -138q-14 -28 -42 -42q-14 -7 -39 -7q-18 0 -30 5q-30 14 -44 44q-9 19 -9 56z" />
<glyph unicode="&#xfd;" horiz-adv-x="658" d="M54 465q0 98 22 171q14 47 27 69t35 32q11 5 24 7h5q36 0 58 -33q17 -30 20 -118q4 -112 10 -126q2 -5 4 -5q4 0 39.5 46.5t54.5 77.5q34 55 65 91q26 27 61 27q21 0 40 -10q25 -12 38.5 -34t24.5 -67q10 -39 19 -150q3 -39 3 -181t-3 -193q-13 -210 -84 -348 q-40 -79 -99 -123q-60 -44 -118 -44q-18 0 -30 4q-44 11 -76 45t-32 110q0 38 20 51q9 6 18 6q16 0 38 -31q32 -47 49 -47q14 0 37 26q32 34 56 100t32 138q12 106 12 347q0 87 -4 87q-2 0 -13 -21q-43 -85 -92 -118q-46 -30 -94 -30q-13 0 -24 3q-47 10 -82.5 51t-51.5 102 q-9 30 -9 88zM209 837q0 27 45 97q24 39 63 83q38 42 74 70q33 24 58 29q12 2 16 2q39 0 49 -37q1 -4 1 -12q0 -28 -34 -79q-22 -32 -61 -73q-60 -62 -120 -109q-24 -18 -44 -18q-6 0 -9 1q-27 5 -35 30q-3 8 -3 16z" />
<glyph unicode="&#xfe;" />
<glyph unicode="&#xff;" horiz-adv-x="658" d="M54 465q0 98 22 171q14 47 27 69t35 32q11 5 24 7h5q36 0 58 -33q17 -30 20 -118q4 -112 10 -126q2 -5 4 -5q4 0 39.5 46.5t54.5 77.5q34 55 65 91q26 27 61 27q21 0 40 -10q25 -12 38.5 -34t24.5 -67q10 -39 19 -150q3 -39 3 -181t-3 -193q-13 -210 -84 -348 q-40 -79 -99 -123q-60 -44 -118 -44q-18 0 -30 4q-44 11 -76 45t-32 110q0 38 20 51q9 6 18 6q16 0 38 -31q32 -47 49 -47q14 0 37 26q32 34 56 100t32 138q12 106 12 347q0 87 -4 87q-2 0 -13 -21q-43 -85 -92 -118q-46 -30 -94 -30q-13 0 -24 3q-47 10 -82.5 51t-51.5 102 q-9 30 -9 88zM155 925q0 35 7 62q25 85 71 109q11 6 32 8h8q14 0 23 -4q14 -5 28 -21t19 -31q5 -18 5 -42q0 -84 -29 -137q-14 -28 -42 -42q-14 -7 -38 -7q-18 0 -31 5q-28 13 -44 44q-9 19 -9 56zM400 925q0 35 7 62q25 85 71 109q11 6 32 8h8q14 0 23 -4q14 -5 28 -21 t19 -31q5 -18 5 -41q0 -80 -29 -138q-14 -28 -42 -42q-14 -7 -38 -7q-18 0 -31 5q-30 14 -44 44q-9 19 -9 56z" />
<glyph unicode="&#x152;" horiz-adv-x="1588" d="M54 535q0 147 34 297q37 163 86 269q14 31 14 34q0 4 21.5 44t31.5 55q16 25 24 50q26 82 82 128q63 52 137 56h12q54 0 111 -28q64 -31 109 -77q121 -119 147 -354q4 -50 4 -144q0 -143 -6 -196q-15 -147 -65 -309q-35 -109 -91 -194q-44 -66 -102 -117q-35 -32 -94 -62 q-56 -28 -121 -28l-25 2q-64 10 -113 46q-15 10 -42 39.5t-42 50.5q-79 112 -103 297q-9 68 -9 141zM251 581q0 -195 53 -314q51 -113 104 -113h7q18 2 30 8q35 15 79 59q47 49 76 101q109 201 109 506q0 43 -1 65q-4 94 -15 148t-37 101q-35 63 -131 109q-20 10 -32 10h-11 q-19 -1 -39 -12q-29 -17 -39.5 -33.5t-35.5 -82.5q-32 -79 -36 -94q-5 -20 -14 -47q-67 -211 -67 -411zM890 469q0 45 3 85q6 76 13 136l8 64q15 133 48 293q34 167 34 188v1l-7 21q-3 9 -3 19q0 16 11 35q30 49 160 76q137 29 223 29q43 0 82 -4q82 -8 109 -38 q17 -18 17 -42q0 -28 -24 -44q-12 -9 -86 -25q-40 -7 -58 -12q-69 -14 -174 -20q-16 -1 -61 -6l-34 -3q-1 -37 -1 -82.5t-1 -62t-4 -57t-10 -109.5q-4 -36 -8 -83l-2 -23q148 31 160 32q24 2 31 2q15 0 39 -3q43 -5 64 -14t33 -28t12 -38q0 -47 -58 -74q-46 -21 -95.5 -29 t-188.5 -17q-8 -1 -10 -3t-3 -15q-2 -20 -2 -70q0 -157 7 -192q16 -76 34 -99q19 -25 40 -25q26 0 84 35q52 32 93 84q25 32 36.5 42.5t25.5 14.5q12 2 16 2q34 0 51 -36q9 -19 9 -54q0 -52 -28 -112q-40 -83 -112 -139q-46 -35 -84 -49q-49 -20 -104 -20q-27 0 -53 6 q-36 9 -71.5 30t-58.5 47q-53 56 -77 144q-25 88 -25 242z" />
<glyph unicode="&#x153;" horiz-adv-x="1124" d="M54 343q0 109 42 215q50 114 131 170q19 12 31 16t33 4l43 5q22 2 32 2q54 -1 100 -26q36 -20 60 -50q20 -25 42 -66q35 53 85 89q58 46 132 46h5q81 0 137 -53q50 -42 50 -110t-55 -139q-27 -34 -68 -63q-44 -32 -79 -42q-7 -3 -21 -7q-36 -15 -65 -15q-13 0 -22 4l-4 1 q-1 0 -1 -1l1 -5q9 -27 33 -50q13 -12 35 -27q18 -12 38 -19q33 -14 68 -14q23 0 45 9q6 2 34 18q27 13 54 33q24 18 43 31q12 9 21 13q6 3 12 3q14 0 19 -6q5 -8 5 -26v-13q-5 -50 -31 -90q-14 -21 -35 -40q-16 -15 -46 -37q-80 -48 -162 -48q-28 0 -54 6q-134 28 -196 132 l-4 8q-44 -73 -108 -116q-50 -35 -91 -47q-29 -7 -63 -7q-20 0 -37 3q-8 1 -23 8q-9 3 -27 11q-17 8 -28 17q-11 7 -27 23q-18 18 -31 39t-27 56q-26 72 -26 155zM227 367q1 -100 34 -134q13 -16 26 -16q10 0 24 8q17 9 44 36q25 26 39 49q16 28 24 47q9 26 13 49q6 30 6 56 q0 65 -34 100q-13 14 -30 21q-15 5 -42 7h-17q-11 0 -14 -1q-4 -1 -9 -6q-4 -4 -10 -13q-7 -9 -13 -22q-41 -84 -41 -181zM655 475q0 -2 1 -3q2 -2 5 -2q3 -1 13 -1q17 0 34 6q54 21 82 73q9 20 9 33q0 10 -4 17q-7 9 -15 13q-6 3 -18 5h-6q-19 -3 -39 -22q-20 -18 -37 -48 q-10 -19 -17 -39q-8 -24 -8 -32z" />
<glyph unicode="&#x178;" horiz-adv-x="843" d="M54 766q0 65 4 104q7 66 8 93q10 112 32.5 231.5t41.5 159.5q6 12 17 22t21 12l7 1q17 0 32 -13.5t21 -34.5q5 -20 5 -79q0 -50 -5 -148q-7 -101 -7 -241l-1 -60q0 -69 8 -122q4 -37 12 -76.5t15.5 -64t11.5 -24.5q6 0 28 44.5t37 86.5q41 114 98 345q85 335 144 397 q24 27 54 27q52 0 84 -68q36 -74 49 -184l6 -56q12 -102 12 -266q0 -159 -18 -267q-23 -135 -74 -250q-38 -88 -89.5 -161.5t-97.5 -105.5q-37 -27 -87 -44q-69 -24 -123 -24q-12 0 -28 2q-20 4 -39 15q-55 28 -55 75q0 11 2 16q10 47 54 49q21 0 72 20q52 20 69 31 q37 23 74 73q60 90 103 226q42 143 53 400q3 71 3 140q0 105 -6 105q-8 0 -50 -267q-23 -152 -37 -220.5t-34 -130.5q-22 -67 -55 -121.5t-67 -79.5q-43 -31 -99 -31q-14 0 -34 4q-80 22 -123 124q-23 56 -39 155q-10 77 -10 181zM193 1589q0 35 7 62q25 85 71 109 q11 6 32 8h7q15 0 24 -4q14 -5 28 -21t19 -31q4 -15 4 -42q0 -83 -28 -137q-14 -28 -42 -42q-14 -7 -39 -7q-18 0 -30 5q-28 13 -44 44q-9 19 -9 56zM438 1589q0 35 7 62q25 85 71 109q11 6 32 8h7q15 0 24 -4q14 -5 28 -21t19 -31q4 -15 4 -41q0 -82 -28 -138 q-14 -28 -42 -42q-14 -7 -39 -7q-18 0 -30 5q-30 14 -44 44q-9 19 -9 56z" />
<glyph unicode="&#x2c6;" horiz-adv-x="663" d="M54 903v2q2 16 11 29q13 20 32 41q16 18 37 43t30.5 35.5t22.5 24t23.5 20.5t23.5 12q18 7 30 7l18 -1q28 -2 42.5 -7.5t38.5 -21.5q60 -40 91 -71t47 -68q7 -15 7 -32v-4q-2 -24 -17 -35q-13 -10 -33 -10q-36 5 -89 45q-26 21 -81 72q-18 18 -25 18q-12 0 -76 -60 q-66 -63 -89 -70q-12 -2 -14 -2t-12 5q-18 11 -18 28z" />
<glyph unicode="&#x2dc;" horiz-adv-x="712" d="M54 898q1 61 28 111.5t71 72.5q37 18 85 18h12q24 0 52 -9q38 -12 62 -27t58 -46q69 -65 101 -65q21 0 30 22.5t9 77.5q0 34 1.5 42t6.5 12q6 6 20 6q30 0 46 -40q22 -61 22 -106q0 -103 -96 -150l-31 -16l-36 -1q-37 0 -54 5q-46 15 -91 50q-8 6 -54 47q-28 27 -43.5 36 t-35.5 10q-17 0 -27 -9q-18 -18 -42 -79q-8 -22 -17 -30t-25 -8q-30 0 -44 29q-8 16 -8 47z" />
<glyph unicode="&#x2000;" horiz-adv-x="954" />
<glyph unicode="&#x2001;" horiz-adv-x="1909" />
<glyph unicode="&#x2002;" horiz-adv-x="954" />
<glyph unicode="&#x2003;" horiz-adv-x="1909" />
<glyph unicode="&#x2004;" horiz-adv-x="636" />
<glyph unicode="&#x2005;" horiz-adv-x="477" />
<glyph unicode="&#x2006;" horiz-adv-x="318" />
<glyph unicode="&#x2007;" horiz-adv-x="318" />
<glyph unicode="&#x2008;" horiz-adv-x="238" />
<glyph unicode="&#x2009;" horiz-adv-x="381" />
<glyph unicode="&#x200a;" horiz-adv-x="106" />
<glyph unicode="&#x2010;" horiz-adv-x="669" d="M54 544q0 19 7 30q5 10 20 19q37 22 91 31q24 5 69 6q16 1 47 1q91 0 109 -4q12 -3 34 -3q5 0 13 -1t16 -2.5t10 -1.5q18 -4 25 -4q20 -3 57 -17q42 -18 57 -54q6 -8 6 -26q0 -21 -16 -31q-1 0 -4.5 -1.5t-5.5 -2.5q-27 -9 -53 -9h-28q-29 0 -44 2l-72 5q-14 1 -43 3 t-37 2l-46 2q-75 0 -118 -12q-19 -4 -26 -7q-11 -3 -19 -3q-26 3 -41 38l-5 16q-3 12 -3 24z" />
<glyph unicode="&#x2011;" horiz-adv-x="669" d="M54 544q0 19 7 30q5 10 20 19q37 22 91 31q24 5 69 6q16 1 47 1q91 0 109 -4q12 -3 34 -3q5 0 13 -1t16 -2.5t10 -1.5q18 -4 25 -4q20 -3 57 -17q42 -18 57 -54q6 -8 6 -26q0 -21 -16 -31q-1 0 -4.5 -1.5t-5.5 -2.5q-27 -9 -53 -9h-28q-29 0 -44 2l-72 5q-14 1 -43 3 t-37 2l-46 2q-75 0 -118 -12q-19 -4 -26 -7q-11 -3 -19 -3q-26 3 -41 38l-5 16q-3 12 -3 24z" />
<glyph unicode="&#x2012;" horiz-adv-x="669" d="M54 544q0 19 7 30q5 10 20 19q37 22 91 31q24 5 69 6q16 1 47 1q91 0 109 -4q12 -3 34 -3q5 0 13 -1t16 -2.5t10 -1.5q18 -4 25 -4q20 -3 57 -17q42 -18 57 -54q6 -8 6 -26q0 -21 -16 -31q-1 0 -4.5 -1.5t-5.5 -2.5q-27 -9 -53 -9h-28q-29 0 -44 2l-72 5q-14 1 -43 3 t-37 2l-46 2q-75 0 -118 -12q-19 -4 -26 -7q-11 -3 -19 -3q-26 3 -41 38l-5 16q-3 12 -3 24z" />
<glyph unicode="&#x2013;" horiz-adv-x="874" d="M54 544q0 18 9 30q8 10 28 19q50 22 124 31q33 5 94 6q22 1 64 1q123 0 149 -4q18 -3 45 -3q8 0 19 -1t22 -2.5t14 -1.5q24 -4 33 -4q28 -3 78 -17q57 -17 78 -54q8 -8 8 -26q0 -21 -22 -31q-1 0 -6 -1.5t-8 -2.5q-34 -9 -72 -9h-37q-40 0 -61 2l-99 5q-18 1 -57.5 3 t-50.5 2l-63 2q-103 0 -160 -12q-27 -4 -37 -7q-13 -3 -25 -3q-35 3 -57 38l-6 16q-4 11 -4 24z" />
<glyph unicode="&#x2014;" horiz-adv-x="1082" d="M54 544q0 18 12 30q8 9 35 19q63 22 158 31q42 5 119 6q28 1 82 1q156 0 190 -4q21 -3 58 -3q10 0 23.5 -1t27 -2.5t17.5 -1.5q32 -4 43 -4q32 -3 100 -17q72 -18 98 -54q11 -8 11 -26q0 -20 -28 -31q-1 0 -7.5 -1.5t-10.5 -2.5q-45 -9 -92 -9h-47q-51 0 -78 2l-125 5 q-23 1 -74 3t-64 2l-80 2q-130 0 -204 -12q-32 -4 -47 -7q-16 -3 -32 -3q-45 3 -72 38l-8 16q-5 13 -5 24z" />
<glyph unicode="&#x2018;" horiz-adv-x="319" d="M79 1302q0 49 29 110q39 80 87 95q16 4 21 4q9 0 22 -5q23 -7 34 -32q5 -15 5 -41v-26q0 -53 7 -112q6 -49 6 -74q0 -28 -10 -45q-9 -13 -22 -22q-12 -8 -43 -8q-29 0 -50 10q-19 10 -37 28t-28 37q-21 39 -21 81z" />
<glyph unicode="&#x2019;" horiz-adv-x="319" d="M79 1435q0 32 10 46q9 13 22 22q12 8 43 8q29 0 50 -10q19 -10 37 -28t28 -37q21 -39 21 -82q0 -48 -29 -109q-39 -80 -87 -95q-12 -4 -22 -4q-11 0 -21 5q-23 7 -34 32q-5 10 -5 40v27q0 53 -7 112q-6 48 -6 73z" />
<glyph unicode="&#x201a;" horiz-adv-x="319" d="M65 174q0 32 10 46q9 13 22 22q12 8 43 8q29 0 50 -10q19 -10 37 -28t28 -37q21 -39 21 -82q0 -48 -29 -109q-39 -80 -87 -95q-12 -4 -22 -4q-11 0 -21 5q-23 7 -34 32q-5 10 -5 40v27q0 53 -7 112q-6 48 -6 73z" />
<glyph unicode="&#x201c;" horiz-adv-x="572" d="M79 1348q0 49 29 109q47 99 109 99q9 0 21 -5q34 -11 38 -46q1 -5 1 -39q0 -77 7 -126q6 -47 6 -73q0 -35 -10 -46l-10 -11q-13 -13 -21 -16t-34 -3t-35 4q-27 9 -52 34q-49 49 -49 119zM332 1348q0 57 35 122q35 66 81 82q11 4 22 4q16 0 32 -9q16 -11 23 -28 q2 -3 4 -13q1 -6 1 -27v-27q0 -60 8 -121q5 -45 5 -64q0 -31 -9 -44q-11 -16 -23 -24q-4 -3 -10 -5t-12 -2q-5 -1 -21 -1t-21 1q-10 2 -14 3q-6 1 -15 6q-40 23 -63 63q-23 41 -23 84z" />
<glyph unicode="&#x201d;" horiz-adv-x="572" d="M79 1480q0 31 10 45q10 15 22 23q6 4 11 6q2 1 6 1q3 1 5 1h21q17 0 22 -1t13 -3q6 -2 15 -6q41 -23 63 -62q23 -41 23 -85q0 -58 -34 -122q-35 -65 -82 -82q-11 -4 -22 -4q-17 0 -31 10q-17 9 -24 27q-2 3 -4 14q-1 5 -1 26v27q0 60 -8 121q-5 45 -5 64zM332 1480 q0 35 10 46l10 11q13 13 21 16t34 3t35 -4q27 -9 52 -34q49 -49 49 -119q0 -49 -29 -109q-46 -99 -109 -99q-9 0 -21 5q-34 11 -38 46q-1 5 -1 39q0 77 -7 126q-6 46 -6 73z" />
<glyph unicode="&#x201e;" horiz-adv-x="572" d="M47 167q0 31 10 45q10 15 22 23q6 4 11 6q2 1 6 1q3 1 5 1h21q17 0 22 -1t13 -3q6 -1 15 -6q41 -23 63 -62q23 -41 23 -85q0 -58 -34 -122q-35 -65 -82 -82q-11 -4 -22 -4q-17 0 -31 10q-17 9 -24 27q-2 3 -4 14q-1 5 -1 26v27q0 60 -8 121q-5 45 -5 64zM300 167 q0 35 10 46l10 11q13 13 21 16q7 3 34 3q26 0 35 -4q27 -9 52 -34q49 -49 49 -119q0 -49 -29 -109q-46 -99 -109 -99q-9 0 -21 5q-34 11 -38 46q-1 5 -1 39q0 77 -7 126q-6 46 -6 73z" />
<glyph unicode="&#x2022;" />
<glyph unicode="&#x2026;" />
<glyph unicode="&#x202f;" horiz-adv-x="381" />
<glyph unicode="&#x2039;" horiz-adv-x="672" d="M54 611v12q2 34 12.5 58t48 60.5t95.5 79t169 118.5q153 104 189 104q12 0 25.5 -8t18.5 -18q7 -14 7 -26q0 -38 -46 -94q-14 -19 -68.5 -73t-94.5 -90q-106 -93 -106 -100q0 -4 6 -7q29 -19 111 -94.5t113 -111.5q40 -47 40 -80q0 -11 -5 -23q-8 -17 -26.5 -28.5 t-39.5 -11.5q-11 0 -39 8t-109.5 47.5t-119.5 63.5q-95 61 -134 101q-35 38 -45 82q-2 14 -2 31z" />
<glyph unicode="&#x203a;" horiz-adv-x="673" d="M54 330q0 37 45 95q14 18 68.5 72.5t94.5 90.5q107 92 107 99q0 3 -7 7q-29 19 -111 94.5t-113 112.5q-39 46 -39 80q0 13 4 22q8 17 26.5 28.5t39.5 11.5q10 0 40 -8q27 -8 108.5 -47.5t120.5 -63.5q91 -57 133 -101q37 -40 45 -81q3 -10 3 -32v-12q-3 -44 -27.5 -79.5 t-88.5 -86t-210 -149.5q-151 -105 -189 -105q-12 0 -25.5 8t-18.5 18q-6 12 -6 26z" />
<glyph unicode="&#x205f;" horiz-adv-x="477" />
<glyph unicode="&#x20ac;" />
<glyph unicode="&#x2122;" />
<glyph unicode="&#x25fc;" horiz-adv-x="780" d="M0 0v780h780v-780h-780z" />
</font>
</defs>
</svg>
